<svg id="Layer_1" xmlns="http://www.w3.org/2000/svg" viewBox="0 0 31.3 31.3"><style>.st0{fill:#51b9e9}.st1{fill:none;stroke:#51b9e9;stroke-miterlimit:10}</style><path class="st0" d="M23.3 10.2c-.6.4-1.3.7-2.1.8-.6-.6-1.5-1-2.4-1-1.8 0-3.3 1.5-3.3 3.3 0 .3 0 .5.1.8-2.7-.1-5.2-1.5-6.8-3.5-.3.5-.4 1.1-.4 1.7 0 1.1.6 2.2 1.5 2.7-.5 0-1.1-.2-1.5-.4 0 1.6 1.1 2.9 2.7 3.2-.3.1-.6.1-.9.1-.2 0-.4 0-.6-.1.4 1.3 1.6 2.3 3.1 2.3-1.1.9-2.6 1.4-4.1 1.4h-.8c1.5.9 3.2 1.5 5.1 1.5 6.1 0 9.4-5 9.4-9.4v-.4c.6-.5 1.2-1 1.6-1.7-.6.3-1.2.4-1.9.5.5-.4 1-1 1.3-1.8z"/><circle class="st1" cx="15.7" cy="15.7" r="15.2"/></svg>