<svg id="Layer_1" data-name="Layer 1" xmlns="http://www.w3.org/2000/svg" viewBox="0 0 402.5 96.5"><defs><style>.cls-1{fill:#fff}</style></defs><title>dashboard_intro</title><path class="cls-1" d="M392.47 64.68a.65.65 0 0 0 .32-.09.66.66 0 0 0 .52-.64.67.67 0 0 0-.67-.67h-46.35a6.68 6.68 0 0 0-.4 13.34V78h-.41a7.39 7.39 0 0 1-7.38-7.39.67.67 0 1 0-1.34 0 8.74 8.74 0 0 0 8.73 8.73h.41v2.87a.67.67 0 0 0 1.07.54l3.31-2.41 3.31 2.41a.67.67 0 0 0 1.07-.54v-2.84h38a.67.67 0 0 0 0-1.34h-38v-1.39h38a.67.67 0 0 0 .67-.67.66.66 0 0 0-.52-.64.65.65 0 0 0-.32-.09 5.28 5.28 0 0 1-.02-10.56zM353.3 80.92L350.66 79a.67.67 0 0 0-.79 0l-2.64 1.92V69.1h6.06v11.82zm32.55-11a6.61 6.61 0 0 0 2.72 5.34h-33.93v-2.58h30a.67.67 0 1 0 0-1.34h-30v-2.9a.67.67 0 0 0-.67-.67h-7.41a.67.67 0 0 0-.67.67v6.84a5.33 5.33 0 0 1 .4-10.65h42.28a6.61 6.61 0 0 0-2.71 5.37zM354.5 54.29h30.17a.67.67 0 1 0 0-1.34H354.5a.67.67 0 0 0 0 1.34z"/><path class="cls-1" d="M392.47 46.3a.65.65 0 0 0 .32-.09.66.66 0 0 0 .52-.64.67.67 0 0 0-.67-.67h-46.35a6.68 6.68 0 0 0 0 13.36h46.34a.67.67 0 0 0 .67-.67.66.66 0 0 0-.52-.64.65.65 0 0 0-.32-.09 5.28 5.28 0 0 1 .01-10.56zm-6.62 5.28a6.61 6.61 0 0 0 2.72 5.34H346.3a5.34 5.34 0 0 1 0-10.68h42.28a6.61 6.61 0 0 0-2.72 5.33z"/><path class="cls-1" d="M392.64 59.64h-47.16a7.39 7.39 0 0 1-7.38-7.39.67.67 0 1 0-1.34 0 8.74 8.74 0 0 0 8.72 8.75h47.16a.67.67 0 0 0 0-1.36zM350.9 33h1.1v5a1.47 1.47 0 0 0 1.47 1.47H360V41a1.47 1.47 0 0 0 1.47 1.47h9.41a1.47 1.47 0 0 0 1.5-1.47v-1.5h7.06a1.47 1.47 0 0 0 1.47-1.5v-5.11H382a.62.62 0 0 0 .43-.18 1.47 1.47 0 0 0 0-2.08l-6.24-6.24-.58-.58.94-.95a.62.62 0 0 0-.87-.87l-.94.95-.9-.94a.62.62 0 0 0-.87.87l.95.95-.17.17-4.75 4.69-1.32-1.32-.58-.58.94-.95a.62.62 0 0 0-.84-.83l-.94.95-.95-.95a.62.62 0 0 0-.87.87l.95.95-.17.17-1.48 1.48-4.45-4.47-.17-.17.94-.95a.62.62 0 0 0-.86-.88l-.94.95-.95-.95a.62.62 0 0 0-.87.87l.94.95-.17.17-6.76 6.76a1.47 1.47 0 0 0 0 2.08.66.66 0 0 0 .45.17zm23.72-8.15a.24.24 0 0 1 .17-.07.24.24 0 0 1 .17.07l.42.42 6.24 6.24a.23.23 0 0 1 .07.16h-1.39a.62.62 0 0 0-.61.62V38a.24.24 0 0 1-.24.24h-7.06v-2.38h1.14a.62.62 0 0 0 .43-.18 1.47 1.47 0 0 0 0-2.08l-4-4zm-8.53 3a.23.23 0 0 1 .17-.07.24.24 0 0 1 .17.07l6.65 6.65a.24.24 0 0 1 .07.15h-1.39a.62.62 0 0 0-.61.62V41a.24.24 0 0 1-.24.24h-9.41a.24.24 0 0 1-.24-.24v-5.67a.62.62 0 0 0-.62-.62h-1.38a.24.24 0 0 1 .07-.15zm-14.76 3.75l6.76-6.76a.23.23 0 0 1 .33 0l.42.42 4 4-4.41 4.41a1.47 1.47 0 0 0 0 2.08.61.61 0 0 0 .44.18H360v2.33h-6.53a.24.24 0 0 1-.24-.24v-5.66a.62.62 0 0 0-.62-.62h-1.38a.23.23 0 0 1 .1-.14z"/><path class="cls-1" d="M364.7 35.88h3a.62.62 0 0 0 0-1.24h-3a.62.62 0 1 0 0 1.24zM72.89 41.09H57.41V37.8a.67.67 0 0 0-1.34 0v3.29h-2.18a3.5 3.5 0 0 0-3.5 3.5v37.22a3.5 3.5 0 0 0 3.5 3.5h19a3.5 3.5 0 0 0 3.5-3.5V44.59a3.5 3.5 0 0 0-3.5-3.5zM75 81.81A2.16 2.16 0 0 1 72.89 84h-19a2.16 2.16 0 0 1-2.16-2.16V44.59a2.16 2.16 0 0 1 2.16-2.16h19A2.16 2.16 0 0 1 75 44.59v37.22z"/><path class="cls-1" d="M71.18 46.58H55.6a2.09 2.09 0 0 0-2.08 2.08v15a2.09 2.09 0 0 0 2.08 2.08h15.58a2.09 2.09 0 0 0 2.08-2.08v-15a2.09 2.09 0 0 0-2.08-2.08zm.74 17.08a.74.74 0 0 1-.74.74H55.6a.74.74 0 0 1-.74-.74v-15a.74.74 0 0 1 .74-.74h15.58a.74.74 0 0 1 .74.74v15zm-1.17 5.6h-2.61a.67.67 0 1 0 0 1.34h2.61a.67.67 0 1 0 0-1.34zm-6.06 0h-2.6a.67.67 0 1 0 0 1.34h2.61a.67.67 0 1 0-.01-1.34zm-6.05 0H56a.67.67 0 0 0 0 1.34h2.61a.67.67 0 0 0 .03-1.34zm12.11 4.12h-2.61a.67.67 0 0 0 0 1.34h2.61a.67.67 0 0 0 0-1.34zm-6.06 0h-2.6a.67.67 0 0 0 0 1.34h2.61a.67.67 0 0 0-.01-1.34zm-6.05 0H56a.67.67 0 0 0 0 1.34h2.61a.67.67 0 0 0 .03-1.34zm12.11 4.01h-2.61a.67.67 0 1 0 0 1.34h2.61a.67.67 0 1 0 0-1.34zm-6.06 0h-2.6a.67.67 0 1 0 0 1.34h2.61a.67.67 0 1 0-.01-1.34zm-6.05 0H56a.67.67 0 0 0 0 1.34h2.61a.67.67 0 0 0 .03-1.34zM42.42 16.47H18.11a7.21 7.21 0 0 0-7.21 7.2v10.9a7.21 7.21 0 0 0 7.21 7.2h18.23l5.12 3.68a.8.8 0 0 0 1.27-.65v-3a7.21 7.21 0 0 0 6.89-7.2V23.67a7.21 7.21 0 0 0-7.2-7.2zM48 34.57a5.6 5.6 0 0 1-5.59 5.59h-.48a.81.81 0 0 0-.81.8v2.26l-4.06-2.92a.8.8 0 0 0-.47-.15H18.11a5.6 5.6 0 0 1-5.59-5.59V23.67a5.6 5.6 0 0 1 5.59-5.59h24.31A5.6 5.6 0 0 1 48 23.67v10.9z"/><path class="cls-1" d="M40.94 23.58H20.19a.67.67 0 0 0 0 1.34h20.75a.67.67 0 0 0 0-1.34zm0 3.42H20.19a.67.67 0 0 0 0 1.34h20.75a.67.67 0 0 0 0-1.34zm0 3.38H20.19a.67.67 0 0 0 0 1.34h20.75a.67.67 0 0 0 0-1.34zM94.62 43.6a7 7 0 0 0-3.94-2.76 7.07 7.07 0 1 0 5 8.66 7 7 0 0 0-.7-5.36c-.12-.19-.24-.37-.36-.54zm-11.31 2.56a5.72 5.72 0 0 1 9.59-2.54l-9.6 2.6v-.06zm11.06 3a5.72 5.72 0 0 1-11.25-1.49l10.67-2.87a5.69 5.69 0 0 1 .58 4.34zm-5.53 7.07a7 7 0 0 0-6.93 6.56.63.63 0 0 0 0 .1v20.42a1.32 1.32 0 0 0 1.32 1.32h2.71v5.07a.67.67 0 0 0 1.34 0v-5.07h3.49v5.07a.67.67 0 0 0 1.34 0v-5.07h2.7a.67.67 0 0 0 .6-.38 1.32 1.32 0 0 0 .4-.94V62.88a.63.63 0 0 0 0-.1 7 7 0 0 0-6.97-6.55zm5.61 27.06H83.23V63.17a5.61 5.61 0 0 1 11.21 0v20.12zM44.61 14.92a6.31 6.31 0 0 1 6.31 6.31.67.67 0 1 0 1.34 0 7.66 7.66 0 0 0-7.65-7.65.67.67 0 0 0 0 1.34z"/><path class="cls-1" d="M45.31 11.23a9.49 9.49 0 0 1 9.48 9.48.67.67 0 1 0 1.34 0A10.84 10.84 0 0 0 45.31 9.89a.67.67 0 1 0 0 1.34zm101.6 40.33a7.05 7.05 0 0 0 .24-7.43c-.1-.18-.22-.36-.34-.53a7 7 0 0 0-3.94-2.76 7.06 7.06 0 0 0-7.67 10.8l-1.51 1.51a.67.67 0 1 0 .95.95l1.36-1.43a7 7 0 0 0 10-.06l1.48 1.48a.67.67 0 1 0 .95-.95zm-11.41-5.4a5.72 5.72 0 0 1 9.59-2.54l-9.61 2.59v-.05zm11.06 3a5.72 5.72 0 0 1-11.25-1.49L146 44.78a5.69 5.69 0 0 1 .55 4.36zM148 81.48v-18.6a.63.63 0 0 0 0-.1 6.93 6.93 0 0 0-10.66-5.46 7.12 7.12 0 0 1 .9 1 5.6 5.6 0 0 1 8.44 4.83v18.4a.91.91 0 0 1 0 .19l.45 1.52H135l.38-1.55a.53.53 0 0 1 0-.16v-2a7 7 0 0 1-1.34.48v1.45l-.57 2.3a.67.67 0 0 0 .65.83h3.78v5.09a.67.67 0 1 0 1.34 0v-5.07h3.49v5.07a.67.67 0 1 0 1.34 0v-5.07H148a.67.67 0 0 0 .64-.86z"/><path class="cls-1" d="M138.31 72.74V62.69a6.58 6.58 0 0 0-6.57-6.58h-3v-2.87a.67.67 0 0 0-1.06-.54L123 56.11h-13.69a6.58 6.58 0 0 0-6.57 6.58v10.05a6.58 6.58 0 0 0 6.57 6.57h22.43a6.58 6.58 0 0 0 6.57-6.57zM131.74 78h-22.43a5.24 5.24 0 0 1-5.23-5.23V62.69a5.24 5.24 0 0 1 5.23-5.23h13.86a.67.67 0 0 0 .39-.13l3.86-2.77v2.23a.67.67 0 0 0 .67.67h3.65a5.24 5.24 0 0 1 5.26 5.23v10.05a5.24 5.24 0 0 1-5.26 5.26z"/><path class="cls-1" d="M130.67 62h-20.76a.67.67 0 1 0 0 1.34h20.75a.67.67 0 1 0 .01-1.34zm0 3.39h-20.76a.67.67 0 0 0 0 1.34h20.75a.67.67 0 0 0 .01-1.34zm0 3.39h-20.76a.67.67 0 0 0 0 1.34h20.75a.67.67 0 0 0 .01-1.34zm-7 3.38h-13.76a.67.67 0 0 0 0 1.34h13.76a.67.67 0 0 0 0-1.34zm9.94-51.26a7.2 7.2 0 0 0 2.12 7.25l1.44 3.5a.67.67 0 0 0 .62.42h5.51a.67.67 0 0 0 .61-.39l1.63-3.58a7.25 7.25 0 1 0-11.93-7.2zm12.7 3.42a5.87 5.87 0 0 1-1.77 2.87.67.67 0 0 0-.16.22l-1.51 3.31h-1.61v-2.3a.67.67 0 0 0-1.34 0v2.3h-1.68l-1.33-3.23a.67.67 0 0 0-.18-.25 5.91 5.91 0 1 1 9.58-2.92zm-5.72-13.72a.67.67 0 0 0 .67-.67V7a.67.67 0 1 0-1.34 0v3a.67.67 0 0 0 .67.6zm1.5 22.2h-3a.67.67 0 0 0 0 1.34h3a.67.67 0 0 0 0-1.34zm0 1.88h-3a.67.67 0 1 0 0 1.34h3a.67.67 0 1 0 0-1.34zm-7.9-22.94a.67.67 0 1 0 1.16-.67l-1.49-2.57a.67.67 0 1 0-1.16.67zm-6.64 2.96l2.57 1.48a.66.66 0 0 0 .34.09.67.67 0 0 0 .34-1.27l-2.57-1.48a.67.67 0 0 0-.68 1.18zm18.56-2.7a.67.67 0 0 0 .92-.25l1.48-2.57a.67.67 0 1 0-1.16-.67l-1.48 2.57a.67.67 0 0 0 .24.92zm6.89 1.53L150.42 15a.67.67 0 0 0 .34 1.25.66.66 0 0 0 .33-.09l2.57-1.48a.67.67 0 0 0-.66-1.15zM40.16 51.65h-2.38v-2.53a2.37 2.37 0 0 0-2.36-2.36H15.16a.52.52 0 0 0-.36.14h-.07L9 52.58a.67.67 0 0 0-.19.47V79.4a2.37 2.37 0 0 0 2.36 2.36h2.38v2.53a2.37 2.37 0 0 0 2.35 2.41h24.26a2.37 2.37 0 0 0 2.36-2.36V54a2.37 2.37 0 0 0-2.36-2.35zM14.53 49v2.69a1 1 0 0 1-1 1h-2.78zm-.79 8.44a.67.67 0 0 0-.2.48v22.55h-2.38a1 1 0 0 1-1-1V54.08h3.37a2.37 2.37 0 0 0 2.36-2.36V48.1h19.53a1 1 0 0 1 1 1v2.53H19.93a.67.67 0 0 0-.24 0 .66.66 0 0 0-.14.09h-.07zm5.54-3.55v2.69a1 1 0 0 1-1 1H15.5zm21.91 30.45a1 1 0 0 1-1 1H15.9a1 1 0 0 1-1-1V59h3.37a2.37 2.37 0 0 0 2.36-2.36V53h19.53a1 1 0 0 1 1 1v30.34zm254.6-53.85H273a4.06 4.06 0 0 0-4 4.06v44.56a4.06 4.06 0 0 0 4 4.06h22.75a4.06 4.06 0 0 0 4.06-4.06V34.55a4.06 4.06 0 0 0-4.02-4.06zm2.71 48.62a2.72 2.72 0 0 1-2.71 2.71H273a2.72 2.72 0 0 1-2.71-2.71V34.55a2.72 2.72 0 0 1 2.71-2.72h22.75a2.72 2.72 0 0 1 2.71 2.71v44.57z"/><path class="cls-1" d="M284.41 72.84a3.4 3.4 0 1 0 3.4 3.4 3.4 3.4 0 0 0-3.4-3.4zm0 5.45a2.05 2.05 0 1 1 2.05-2.05 2.06 2.06 0 0 1-2.05 2.05zm9.33-41.78h-18.66a2.37 2.37 0 0 0-2.36 2.36v30.31a2.37 2.37 0 0 0 2.36 2.36h18.66a2.37 2.37 0 0 0 2.36-2.36V38.87a2.37 2.37 0 0 0-2.36-2.36zm1 32.67a1 1 0 0 1-1 1h-18.66a1 1 0 0 1-1-1V38.87a1 1 0 0 1 1-1h18.66a1 1 0 0 1 1 1v30.31zm-11.89-34.55H286a.67.67 0 1 0 0-1.34h-3.12a.67.67 0 0 0-.03 1.34zm-23.56-12.26L257.73 19a1.44 1.44 0 0 0-1.33-.87 1.38 1.38 0 0 0-1.3.79c-4.35 8.43-4.35 8.78-4.35 8.95l-.08 52.6a.83.83 0 0 0 0 .13v.18a5.43 5.43 0 0 0 10.87 0v-.17a1 1 0 0 0 0-.14v-3.19a5.49 5.49 0 0 0 0-.62v-.07l.07-48.75c.01-.12 0-.38-2.32-5.47zm-3.16-3a.27.27 0 0 1 .26-.14.31.31 0 0 1 .29.19l1.1 2.39h-2.89zM254.27 23a.59.59 0 0 1 .28-.08h3.53a.59.59 0 0 1 .25.06c.86 1.9 1.68 3.72 2 4.53l-1.88 1.87-2-2a.57.57 0 0 0-.81 0l-2 2-1.64-1.7c.29-.68 1.24-2.63 2.27-4.68zm6.12 57.68v.08a4.29 4.29 0 0 1-8.58 0v-.83a5.41 5.41 0 0 0 8.58.11v.66zm0-3.49a4.29 4.29 0 0 1-8.55-.55v-.05l.07-47.39 1.41 1.41a.57.57 0 0 0 .4.17.57.57 0 0 0 .4-.17l2-2 2 2a.57.57 0 0 0 .81 0l1.54-1.61z"/><path class="cls-1" d="M257.41 34.74a.57.57 0 0 0-.57.57v40.31a.57.57 0 0 0 .57.57.57.57 0 0 0 .57-.57V35.31a.57.57 0 0 0-.57-.57zm-2.25-.01a.57.57 0 0 0-.57.57v40.31a.57.57 0 0 0 1.14 0V35.3a.57.57 0 0 0-.57-.57zm64.05.6a9.16 9.16 0 0 0-9.15 9.15.67.67 0 0 0 1.34 0 7.81 7.81 0 0 1 15.62 0 .67.67 0 0 0 1.34 0 9.16 9.16 0 0 0-9.15-9.15z"/><path class="cls-1" d="M319.21 31.08a13.29 13.29 0 0 0-13.27 13.27.67.67 0 1 0 1.34 0 11.93 11.93 0 0 1 23.86 0 .67.67 0 0 0 1.34 0 13.29 13.29 0 0 0-13.27-13.27z"/><path class="cls-1" d="M320.07 49.42a5 5 0 1 0-1.81 0L310 79.61a.67.67 0 0 0 .47.82h.18a.67.67 0 0 0 .65-.49l2.34-8.56a.67.67 0 0 0 .31-.09l5.23-3 5.23 3a.66.66 0 0 0 .31.08L327 80a.67.67 0 0 0 .65.49h.18a.67.67 0 0 0 .47-.82zm-4.53-4.94a3.67 3.67 0 1 1 3.67 3.67 3.68 3.68 0 0 1-3.67-3.67zm-1.45 25.21l1-3.67 2.71 1.55zm5.07-2.89l-3.7-2.11 3.7-13.51 3.7 13.51zm1.36.77l2.71-1.57 1 3.66zm-79.87 2.16h-6.73a.67.67 0 1 0 0 1.34h6.73a5.28 5.28 0 0 1 .06 10.55 7.15 7.15 0 0 0-7.1-6.36h-3.06c-2.84 0-4.54 1.35-4.54 3.61v.06h-3.3a.67.67 0 0 0 0 1.34H226v4.65h-3.3a.67.67 0 0 0 0 1.34h3.3v.05c0 3.22 3.3 3.22 4.54 3.22h3.06a7.15 7.15 0 0 0 7.13-6.53 6.62 6.62 0 0 0-.08-13.27zm-7 18.47h-3.09c-2.66 0-3.2-.72-3.2-1.88v-7.45c0-1.51 1.07-2.27 3.2-2.27h3.06a5.76 5.76 0 0 1 2.78.71v10a.65.65 0 0 0 0 .15 5.76 5.76 0 0 1-2.75.74zm4.09-1.73v-8.14a5.79 5.79 0 0 1 0 8.14zM219.65 50.6v8.08h-8.08a.67.67 0 0 0-.67.67 9.42 9.42 0 1 0 9.42-9.42.67.67 0 0 0-.67.67zm1.35 8.75V51.3a8.08 8.08 0 1 1-8.73 8.7h8.05a.67.67 0 0 0 .68-.65zM205.15 80.8H192.5v-2.61h-1.34v2.61h-12.65c-2.15 0-3.82 2.42-3.82 4.5a.67.67 0 0 0 .67.67h32.94a.67.67 0 0 0 .7-.67c0-2.08-1.7-4.5-3.85-4.5zm-29 3.83c.29-1.23 1.29-2.49 2.4-2.49h26.65c1.11 0 2.11 1.26 2.4 2.49h-31.49zm-19-31.78a.67.67 0 0 0-.67.67v4.58a.67.67 0 0 0 1.34 0v-4.58a.67.67 0 0 0-.67-.67zm6.13-3.46v8.71a.67.67 0 0 0 1.34 0v-8.71a.67.67 0 0 0-1.34 0zm3.72 2.22v6.5a.67.67 0 1 0 1.34 0v-6.5a.67.67 0 1 0-1.34 0zm7 0v6.5a.67.67 0 0 0 1.34 0v-6.5a.67.67 0 0 0-1.34 0zM170.55 49v9.1a.67.67 0 1 0 1.34 0V49a.67.67 0 1 0-1.34 0zm33.34 38.81h-24.12a.67.67 0 1 0 0 1.34h24.11a.67.67 0 0 0 .01-1.34zM184.15 45.6a2.07 2.07 0 0 0-2.06 2.07v19.39a2.07 2.07 0 0 0 2.06 2.06h15.36a2.07 2.07 0 0 0 2.07-2.06V47.67a2.07 2.07 0 0 0-2.07-2.07h-15.36zm16.08 2.07v19.39a.72.72 0 0 1-.72.72h-15.36a.72.72 0 0 1-.72-.72V47.67a.72.72 0 0 1 .72-.72h15.36a.72.72 0 0 1 .72.72z"/><path class="cls-1" d="M190.78 57.9a4 4 0 1 0-2.84-4.9 4 4 0 0 0 2.84 4.9zm-1.54-4.58a2.68 2.68 0 1 1 1.89 3.29 2.68 2.68 0 0 1-1.89-3.3zm2.59 5.29a4.71 4.71 0 0 0-4.71 4.71.67.67 0 0 0 .67.67h8.08a.67.67 0 0 0 .67-.67 4.72 4.72 0 0 0-4.71-4.71zm-3.3 4a3.37 3.37 0 0 1 6.6 0h-6.6zM217.72 56v-8.77a.67.67 0 0 0-.67-.67 9.43 9.43 0 0 0-9.42 9.44.67.67 0 0 0 .67.67h8.75a.67.67 0 0 0 .67-.67zm-1.34-.67H209a8.09 8.09 0 0 1 7.38-7.38v7.38z"/><path class="cls-1" d="M223.87 73.43v-4.35a10.24 10.24 0 0 1-1.34.4v4a2.48 2.48 0 0 1-2.53 2.43h-56.39a2.48 2.48 0 0 1-2.48-2.48v-9.11a.62.62 0 0 0 0-.07V44.79a.62.62 0 0 0 0-.07v-4.47a2.48 2.48 0 0 1 2.48-2.48H220a2.48 2.48 0 0 1 2.48 2.48v9a10.24 10.24 0 0 1 1.34.4v-9.4a3.82 3.82 0 0 0-3.82-3.82h-56.39a3.82 3.82 0 0 0-3.82 3.82v33.18a3.82 3.82 0 0 0 3.82 3.82H220a3.82 3.82 0 0 0 3.87-3.82z"/></svg>