<svg id="Layer_1" xmlns="http://www.w3.org/2000/svg" viewBox="0 0 132.3 84.2"><style>.st0{fill:#1ab6eb}</style><path class="st0" d="M81 35.3s-.1 0 0 0l-.1-.1h-1.1l-.1.1-2.5 3c-3.3-2.7-7.5-4.3-12-4.3-3.8 0-7.3 1.1-10.3 3-.2.1-.4.2-.6.4-2.3 1.6-4.2 3.7-5.6 6.1-.5.8-.9 1.5-1 2.1-1 2.3-1.5 4.8-1.5 7.4 0 5.8 2.6 11 6.7 14.5l-2.4 2.9c-.3.3-.2.8.1 1.1.1.1.2.1.3.2 0 .1.1.1.2.2 3 2.3 6.5 3.8 10.2 4.4 1.4.2 2.8.4 4.1.4 1.7 0 3.3-.2 4.9-.5v6.1h-8.5c-.4 0-.8.4-.8.8s.4.8.8.8h18.6c.4 0 .8-.4.8-.8s-.4-.8-.8-.8H72v-6.5c3.1-.9 6.1-2.5 8.6-4.6 4.3-3.6 7.2-8.6 8.2-14.1 1.5-7.9-1.5-16.3-7.8-21.8zm-30.9 9.3c.8-1.1 2.1-2.7 4.4-4.9.4-.4.6-.6.8-.7.1-.1.3-.2.4-.3.1 0 .2-.1.3-.1.1-.1.3-.1.6-.3 1.3 1.1 5.2 6.6 5.6 7.6 0 .2-.1.4-.3.6l-2.3 1.9c-.1.1-.2.3-.3.4 0 0-.1.3-.1.5v.1l-.7 3.9v.3c0 .3.2.7.5.8 2.9 1 5.7 2.3 6 2.9 0 .2-.1.7-.2.8L61.6 66v.1c-.1.4-.4.6-.8.6s-.7-.3-.8-.6V66l-2.4-8v-.3l-.6-3.5c0-.1-.1-.3-.2-.4l-3-3.8c0-.1-.1-.1-.2-.2-1.7-1.3-3.8-3-4.4-3.7.4-.5.6-1 .9-1.5zm20.3 30.3c-2.8.6-5.8.7-8.8.2-3.4-.6-6.5-1.9-9.3-4l1.9-2.3c3.1 2.2 7 3.6 11.1 3.6 1.8 0 3.5-.2 5.1-.7v3.2zm-5.1-4.1c-9.6 0-17.5-7.8-17.5-17.5 0-1.9.3-3.8.9-5.5.7.7 1.9 1.7 4 3.3l2.8 3.6.6 3.4v.4l2.4 8.1c.2 1.1 1.2 1.9 2.3 1.9 1.1 0 2.1-.8 2.3-1.9l3.1-7.9c0-.1.3-.9.3-1.4 0-1.3-2.2-2.7-6.5-4.2l.6-3.4c0-.1.1-.2.1-.3l2.1-1.7c.6-.5.9-1.1.9-1.9 0-.8-3.6-6.3-5.8-8.4 2.2-1 4.7-1.6 7.4-1.6 9.6 0 17.5 7.8 17.5 17.5s-7.9 17.5-17.5 17.5zm21.9-13.7C85.8 65.6 79.6 72 72 74.4v-3.3c7.3-2.7 12.4-9.7 12.4-17.9 0-5.4-2.3-10.3-5.9-13.8l2-2.4c5.5 5.2 8 12.8 6.7 20.1z"/><path class="st0" d="M81.4 51.9c0-1.5-1.7-2.5-1.8-2.6l-7.3-3.7c-.1 0-.1-.1-.2-.1-.5-.1-1-.2-1.5-.2-2.8 0-5.1 2.3-5.1 5.1 0 1 .3 1.9.8 2.8.2.4.5.7.8 1l3.1 3.6.4 4.1c0 1.5 1.2 2.7 2.7 2.7 1.1 0 2-.7 2.3-1.3l5-9.3c.2-.3.8-1.3.8-2.1zm-2.1 1.3l-5 9.2s-.4.6-1 .6-1.1-.5-1.1-1.1v-.1l-.5-4.4c0-.2-.1-.3-.2-.4l-4-4.6c-.3-.6-.5-1.2-.5-1.9 0-1.9 1.6-3.5 3.5-3.5.3 0 .7 0 1 .1l7.3 3.7c.3.2 1 .7 1 1.1 0 .2-.2.8-.5 1.3zm45.6-31.7H100c-4.1 0-7.4 3.3-7.4 7.4v11.2c0 4 3.1 7.2 7.1 7.4v3.1c0 .3.2.6.4.7.1.1.2.1.4.1s.3-.1.5-.2l5.3-3.8H125c4.1 0 7.4-3.3 7.4-7.4V28.9c-.1-4.1-3.4-7.4-7.5-7.4zm5.8 18.6c0 3.2-2.6 5.8-5.8 5.8h-19c-.2 0-.3.1-.5.2l-4.2 3v-2.4c0-.4-.4-.8-.8-.8h-.4c-3.2 0-5.8-2.6-5.8-5.8V28.9c0-3.2 2.6-5.8 5.8-5.8h24.9c3.2 0 5.8 2.6 5.8 5.8v11.2z"/><path class="st0" d="M124.2 28.1h-23.1c-.4 0-.8.4-.8.8s.4.8.8.8h23.1c.4 0 .8-.4.8-.8s-.3-.8-.8-.8zm0 3.8h-23.1c-.4 0-.8.4-.8.8s.4.8.8.8h23.1c.4 0 .8-.4.8-.8s-.3-.8-.8-.8zm0 3.8h-23.1c-.4 0-.8.4-.8.8s.4.8.8.8h23.1c.4 0 .8-.4.8-.8 0-.5-.3-.8-.8-.8zm-91.9-2.4H7.4c-4.1 0-7.4 3.3-7.4 7.4v11.2c0 4.1 3.3 7.4 7.4 7.4h18.7l5.3 3.8c.1.1.3.2.5.2.1 0 .3 0 .4-.1.3-.1.4-.4.4-.7v-3.1c3.9-.2 7.1-3.4 7.1-7.4V40.7c-.1-4.1-3.4-7.4-7.5-7.4zm5.8 18.5c0 3.2-2.6 5.8-5.8 5.8h-.5c-.4 0-.8.4-.8.8v2.4l-4.2-3c-.1-.1-.3-.2-.5-.2h-19c-3.2 0-5.8-2.6-5.8-5.8V40.7c0-3.2 2.6-5.8 5.8-5.8h24.9c3.2 0 5.8 2.6 5.8 5.8v11.1z"/><path class="st0" d="M31.1 39.2H8c-.4 0-.8.4-.8.8s.4.8.8.8h23.1c.4 0 .8-.4.8-.8s-.3-.8-.8-.8zm0 3.8H8c-.4 0-.8.4-.8.8s.4.8.8.8h23.1c.4 0 .8-.4.8-.8s-.3-.8-.8-.8zm0 3.8H8c-.4 0-.8.4-.8.8s.4.8.8.8h23.1c.4 0 .8-.4.8-.8 0-.5-.3-.8-.8-.8zm29.1-32.3c-.7 2.6.1 5.4 2.1 7.2l1.4 3.5c.1.2.3.4.6.4h5.5c.3 0 .5-.2.6-.4l1.6-3.6c1-.9 1.7-2.1 2.1-3.4 1-3.8-1.2-7.8-5.1-8.8-3.8-1-7.7 1.3-8.8 5.1zm8.5-3.8c3.1.8 5 4.1 4.1 7.2-.3 1.1-.9 2.1-1.8 2.9.1.1 0 .1 0 .2l-1.5 3.3h-1.6V22c0-.4-.3-.7-.7-.7-.4 0-.7.3-.7.7v2.3h-1.7l-1.3-3.2c0-.1-.1-.2-.2-.2-1.7-1.5-2.4-3.8-1.8-6 .9-3.1 4.1-5 7.2-4.2zm-1.5-6.4c.4 0 .7-.3.7-.7v-3c0-.4-.3-.7-.7-.7-.4 0-.7.3-.7.7v3c0 .4.3.7.7.7zm1.5 22.1h-3c-.4 0-.7.3-.7.7 0 .4.3.7.7.7h3c.4 0 .7-.3.7-.7 0-.4-.3-.7-.7-.7zm0 1.9h-3c-.4 0-.7.3-.7.7 0 .4.3.7.7.7h3c.4 0 .7-.3.7-.7 0-.4-.3-.7-.7-.7zM60.8 5.4c.1.2.3.3.6.3.1 0 .2 0 .3-.1.3-.1.5-.5.3-.8l-1.5-2.6c-.2-.3-.6-.4-.9-.2-.3.2-.4.6-.2.9l1.4 2.5zm-6.6 3l2.6 1.5c.1.1.2.1.3.1.2 0 .5-.1.6-.3.2-.3.1-.7-.2-.9l-2.6-1.5c-.3-.3-.7-.2-.9.2-.2.3-.1.7.2.9zm18.5-2.7c.1.1.2.1.3.1.2 0 .5-.1.6-.3l1.5-2.6c.2-.3.1-.7-.2-.9-.3-.2-.7-.1-.9.2l-1.5 2.6c-.2.3-.1.7.2.9zm4.6 4.2c.1 0 .2 0 .3-.1l2.6-1.5c.3-.2.4-.6.2-.9-.2-.3-.6-.4-.9-.2L77 8.7c-.3.2-.4.6-.2.9 0 .2.3.3.5.3z"/></svg>