<svg id="Layer_1" xmlns="http://www.w3.org/2000/svg" viewBox="0 0 116.986 74.465"><style>.st0{fill:none;stroke:#00a8ed;stroke-miterlimit:10}.st1{fill:#00a8ed}.st2{fill:none}.st3{fill:#333}.st4{fill:#fff}.st5{fill:#5d5d5d}.st6{fill:#0096d7}.st7{fill:#3cc}.st8{fill:#58595b}.st9{fill:#0095d6}.st10{fill:#33b8b8}.st11{fill:none;stroke:#09f;stroke-width:4;stroke-linecap:round;stroke-linejoin:round}.st12{fill:#09f}.st13,.st14{fill:none;stroke:#3cc}.st13{stroke-miterlimit:10}.st14{stroke-width:2;stroke-linecap:round;stroke-linejoin:round}</style><symbol id="facebook" viewBox="-16.735 -16.735 33.471 33.471"><circle class="st0" r="16.235"/><path class="st1" d="M4.74 10.102H1.511c-1.916 0-4.048-.806-4.048-3.584.009-.968 0-1.895 0-2.938h-2.217V.053h2.285v-10.155h4.2V.12h2.772l.251 3.47H1.659s.007 1.544 0 1.992c0 1.098 1.142 1.035 1.211 1.035.544 0 1.6-.002 1.872 0v3.485H4.74z" id="Icon_2_"/></symbol><path class="st7" d="M71.633 31.242l-.006-.004-.006-.006c-.018-.015-.037-.025-.056-.038-.018-.012-.035-.026-.053-.036-.024-.014-.05-.023-.076-.034-.016-.007-.032-.015-.049-.021-.03-.01-.061-.015-.091-.021-.014-.003-.028-.007-.043-.009-.025-.003-.05-.002-.076-.003-.02 0-.04-.003-.059-.002l-.009.002h-.004c-.019.002-.035.007-.051.01-.028.005-.056.008-.083.016-.019.006-.037.014-.056.022-.024.009-.048.017-.071.029-.021.011-.039.024-.059.037-.019.012-.039.023-.057.037-.02.016-.037.035-.056.053-.013.013-.028.024-.041.039l-.004.006-.006.006-2.236 2.691a16.81 16.81 0 0 0-10.636-3.781c-3.364 0-6.498.992-9.134 2.694a3.1 3.1 0 0 0-.573.387 17.016 17.016 0 0 0-4.947 5.425c-.451.686-.76 1.302-.918 1.842a16.808 16.808 0 0 0-1.32 6.544c0 5.143 2.314 9.754 5.951 12.855l-2.158 2.597a.711.711 0 0 0 .092 1 .707.707 0 0 0 .297.136.683.683 0 0 0 .157.17 20.795 20.795 0 0 0 9.028 3.93 20.83 20.83 0 0 0 8.007-.143v5.373h-7.546a.711.711 0 0 0-.71.71c0 .391.319.71.71.71h16.493a.71.71 0 0 0 0-1.42h-7.526v-5.731a21.14 21.14 0 0 0 7.648-4.042 21.008 21.008 0 0 0 7.265-12.499c1.274-7.232-1.382-14.715-6.932-19.531zm-27.309 8.21c.671-1.005 1.846-2.416 3.898-4.37.314-.31.527-.509.69-.644.128-.09.258-.177.389-.263.072-.035.144-.065.228-.099.126-.051.296-.119.516-.223 1.123.959 4.627 5.864 4.92 6.753a.705.705 0 0 1-.273.495l-2.029 1.665a.715.715 0 0 0-.242.39c0 .003-.064.281-.109.412a.698.698 0 0 0-.028.109l-.611 3.491a.735.735 0 0 0-.006.204l.011.081c0 .306.195.576.485.673 2.576.862 5.034 2.068 5.298 2.598-.014.197-.113.58-.163.741l-2.789 7.005a.732.732 0 0 0-.039.131.691.691 0 0 1-1.361 0 .458.458 0 0 0-.018-.073l-2.138-7.119-.008-.057c-.003-.022-.007-.045-.007-.068a.73.73 0 0 0-.009-.114l-.531-3.27a.719.719 0 0 0-.138-.319l-2.617-3.402a.713.713 0 0 0-.141-.139c-1.509-1.112-3.37-2.641-3.862-3.258.209-.455.436-.899.684-1.33zm17.907 26.769a19.505 19.505 0 0 1-7.761.196 19.38 19.38 0 0 1-8.229-3.53l1.686-2.029a16.796 16.796 0 0 0 9.822 3.162c1.552 0 3.053-.215 4.482-.608v2.809zm-4.481-3.622c-8.531 0-15.472-6.941-15.472-15.472 0-1.708.282-3.351.796-4.888.634.636 1.698 1.547 3.509 2.886l2.447 3.181.494 3.042c.003.074.012.147.022.218l.008.066a.707.707 0 0 0 .026.131l2.146 7.14a2.12 2.12 0 0 0 2.068 1.684 2.12 2.12 0 0 0 2.058-1.643l2.785-7c.041-.13.248-.802.248-1.261 0-1.143-1.929-2.395-5.732-3.72l.522-2.988c.024-.077.05-.173.073-.26l1.838-1.509a2.101 2.101 0 0 0 .804-1.651c0-.7-3.174-5.564-5.15-7.458a15.376 15.376 0 0 1 6.512-1.442c8.531 0 15.472 6.941 15.472 15.472S66.281 62.599 57.75 62.599zm19.416-12.074c-1.317 7.465-6.728 13.197-13.514 15.306v-2.879c6.412-2.399 10.991-8.587 10.991-15.826 0-4.777-1.996-9.093-5.194-12.169l1.787-2.15c4.805 4.5 7.076 11.216 5.93 17.718z"/><path class="st7" d="M72.034 45.887c0-1.322-1.466-2.175-1.635-2.27l-6.474-3.282a.691.691 0 0 0-.142-.061 4.533 4.533 0 0 0-5.854 4.331c0 .867.248 1.713.718 2.445l.012.019c.21.324.461.621.741.875l2.707 3.17.373 3.607a2.419 2.419 0 0 0 2.408 2.372c.984 0 1.732-.638 2.076-1.188l4.409-8.194c.11-.18.661-1.122.661-1.824zm-1.894 1.12l-4.398 8.178c-.013.02-.335.49-.855.49a.99.99 0 0 1-.989-.989.606.606 0 0 0-.004-.073l-.399-3.864a.714.714 0 0 0-.166-.388l-3.508-4.108a3.1 3.1 0 0 1-.473-1.647 3.111 3.111 0 0 1 3.954-2.993l6.428 3.258c.308.173.883.648.883 1.017.001.178-.219.699-.473 1.119zm40.325-27.959H88.417a6.528 6.528 0 0 0-6.52 6.521v9.887a6.529 6.529 0 0 0 6.244 6.515v2.767a.714.714 0 0 0 1.134.581l4.65-3.343h16.541a6.529 6.529 0 0 0 6.521-6.521v-9.887a6.53 6.53 0 0 0-6.522-6.52zm5.089 16.408a5.095 5.095 0 0 1-5.089 5.089H93.694a.714.714 0 0 0-.418.135l-3.703 2.662V41.26a.716.716 0 0 0-.716-.716h-.44a5.094 5.094 0 0 1-5.088-5.089v-9.887a5.094 5.094 0 0 1 5.088-5.089h22.049a5.095 5.095 0 0 1 5.089 5.089v9.888z"/><path class="st7" d="M109.876 24.862H89.472a.716.716 0 1 0 0 1.432h20.404a.716.716 0 1 0 0-1.432zm0 3.342H89.472a.716.716 0 1 0 0 1.432h20.404a.716.716 0 1 0 0-1.432zm0 3.342H89.472a.716.716 0 1 0 0 1.432h20.404a.716.716 0 1 0 0-1.432zm-81.307-2.104H6.52A6.528 6.528 0 0 0 0 35.963v9.887a6.528 6.528 0 0 0 6.52 6.521h16.541l4.65 3.342a.718.718 0 0 0 .745.056.717.717 0 0 0 .389-.637v-2.767a6.528 6.528 0 0 0 6.244-6.515v-9.887a6.527 6.527 0 0 0-6.52-6.521zm5.089 16.408a5.095 5.095 0 0 1-5.089 5.089h-.44a.717.717 0 0 0-.716.716v2.08l-3.703-2.662a.714.714 0 0 0-.418-.135H6.52a5.094 5.094 0 0 1-5.088-5.089v-9.887a5.094 5.094 0 0 1 5.088-5.089h22.049a5.095 5.095 0 0 1 5.089 5.089v9.888z"/><path class="st7" d="M27.514 34.683H7.11a.717.717 0 0 0 0 1.432h20.404a.716.716 0 1 0 0-1.432zm0 3.342H7.11a.717.717 0 0 0 0 1.432h20.404a.716.716 0 1 0 0-1.432zm0 3.342H7.11a.717.717 0 0 0 0 1.432h20.404a.716.716 0 1 0 0-1.432zm25.764-28.505a6.338 6.338 0 0 0 1.865 6.378l1.272 3.081a.59.59 0 0 0 .546.365h4.852a.59.59 0 0 0 .537-.346l1.432-3.147a6.348 6.348 0 0 0 1.815-3.013 6.388 6.388 0 0 0-4.5-7.82 6.388 6.388 0 0 0-7.819 4.502zm7.512-3.361a5.204 5.204 0 0 1 3.667 6.372 5.166 5.166 0 0 1-1.555 2.524.614.614 0 0 0-.145.197l-1.325 2.912h-1.42v-2.022a.59.59 0 1 0-1.18 0v2.022h-1.476l-1.173-2.841a.595.595 0 0 0-.158-.22 5.168 5.168 0 0 1-1.607-5.275 5.204 5.204 0 0 1 6.372-3.669zm-1.368-5.707a.59.59 0 0 0 .59-.59V.59a.59.59 0 1 0-1.18 0v2.613a.59.59 0 0 0 .59.591zm1.323 19.546h-2.613a.59.59 0 1 0 0 1.18h2.613a.59.59 0 1 0 0-1.18zm0 1.653h-2.613a.59.59 0 1 0 0 1.18h2.613a.59.59 0 1 0 0-1.18zM53.785 4.8a.59.59 0 0 0 1.023-.591l-1.307-2.262a.59.59 0 1 0-1.023.591L53.785 4.8zm-5.836 2.601l2.263 1.306a.592.592 0 0 0 .591-1.023L48.54 6.379a.591.591 0 0 0-.591 1.022zm16.336-2.385a.59.59 0 0 0 .807-.216l1.306-2.262a.591.591 0 0 0-1.023-.591L64.069 4.21a.59.59 0 0 0 .216.806zm4.083 3.771a.583.583 0 0 0 .295-.079l2.263-1.306a.591.591 0 0 0-.591-1.023l-2.263 1.306a.591.591 0 0 0 .296 1.102z"/></svg>