<svg xmlns="http://www.w3.org/2000/svg" viewBox="0 0 30 38.18"><defs><style>.cls-1{fill:#32b7b7}</style></defs><title>Asset 23</title><g id="Layer_2" data-name="Layer 2"><path class="cls-1" d="M25.13 6H25V1a1 1 0 0 0-2 0v5h-7V1a1 1 0 0 0-2 0v5h-.1c-3.42 0-5.47 2.57-5.47 6.87v4.63A10.83 10.83 0 0 0 18 28.26a8 8 0 0 1-16-.1 1 1 0 1 0-2 0 10 10 0 0 0 20 .12 10.82 10.82 0 0 0 10-10.76v-4.63C30 11 30 6 25.13 6zm-5.95 20.29A8.75 8.75 0 0 1 13 23.75h12.35a8.75 8.75 0 0 1-6.17 2.54zM28 17.43a1 1 0 0 0 0 .13 8.72 8.72 0 0 1-1.1 4.19 1 1 0 0 0-.24 0H11.48a8.72 8.72 0 0 1-1.08-4.21v-4.66C10.41 9.67 11.56 8 13.84 8h11.28c1.76 0 2.88.86 2.88 4.89z" id="Featured_Blog_Posts" data-name="Featured Blog Posts"/></g></svg>