<svg id="Layer_1" data-name="Layer 1" xmlns="http://www.w3.org/2000/svg" viewBox="0 0 76.28 57.77"><defs><style>.cls-1{fill:transparent}.cls-2{fill:#66c766}</style></defs><title>infrastructure</title><path class="cls-1" d="M0 0h76.28v57.77H0z"/><path class="cls-2" d="M2862.46 4770.71l-4.7-4.7-.44-.44.71-.71a.47.47 0 1 0-.66-.66l-.71.71-.71-.71a.47.47 0 0 0-.66.66l.71.71-.13.13-3.41 3.41.66.66 3.41-3.41a.18.18 0 0 1 .25 0l5 5a.18.18 0 0 1 .05.12h-1a.47.47 0 0 0-.46.47v4.34a.18.18 0 0 1-.18.18h-5.83v.93h5.83a1.11 1.11 0 0 0 1.11-1.11v-3.88h.86a.46.46 0 0 0 .33-.14 1.11 1.11 0 0 0-.03-1.56zm-16.46 5.76h-6a.18.18 0 0 1-.18-.18V4772a.47.47 0 0 0-.47-.47h-1a.18.18 0 0 1 .05-.11l5.09-5.09a.18.18 0 0 1 .25 0l3.52 3.52.66-.66-3.2-3.2-.44-.44.71-.71a.47.47 0 0 0-.66-.66l-.71.71-.71-.71a.47.47 0 1 0-.66.66l.71.71-.13.13-5.09 5.09a1.11 1.11 0 0 0 0 1.57.46.46 0 0 0 .33.14h.85v3.81a1.11 1.11 0 0 0 1.11 1.11h6v-.93zm5.28-2.78H2849a.47.47 0 1 1 0-.93h2.26a.47.47 0 0 1 .02.93zm8.44 30.78c-5.35-2.76-5.57-2.76-5.68-2.76l-27.83-.05h-.21a3.45 3.45 0 0 0 0 6.9h27.99c.08 0 .24 0 3.48-1.47l2.15-1a.91.91 0 0 0 .55-.84.87.87 0 0 0-.45-.78zm-31.45 3.36a2.72 2.72 0 0 1 .34-5.42h24.52l-.89.89a.36.36 0 0 0 0 .51l1.25 1.26-1.26 1.25a.36.36 0 0 0-.11.26.36.36 0 0 0 .11.26l1 1zm24.77-1.23l1.26-1.25a.36.36 0 0 0 .08-.12.37.37 0 0 0 0-.14.36.36 0 0 0-.11-.26l-.72-.73-.53-.53 1.09-1.09c.46.2 1.67.8 3 1.45a.38.38 0 0 1 0 .18v2.24a.38.38 0 0 1 0 .16c-1.2.55-2.36 1.06-2.88 1.27zm-27.88-1.47a3.44 3.44 0 0 0 1.3 2.7h-.46a2.72 2.72 0 0 1 0-5.45h.54a3.44 3.44 0 0 0-1.38 2.75zm34.22.34l-1.51.7v-1.84l1.54.79a.17.17 0 0 1 .09.16.19.19 0 0 1-.12.2z" transform="translate(-2791.65 -4755.56)"/><path class="cls-2" d="M2849.17 4805.92h-19.9a.36.36 0 0 0-.36.36.36.36 0 0 0 .36.36h19.9a.36.36 0 1 0 0-.72zm0-2.11h-19.9a.36.36 0 0 0 0 .72h19.9a.36.36 0 1 0 0-.72zm3.08-21.13v-1.95a.4.4 0 0 0-.79 0v1.95h-2.75v-1.95a.4.4 0 0 0-.79 0v1.95c-1.33 0-2.13 1-2.13 2.68v1.81a4.22 4.22 0 0 0 4 4.2v.75a2.28 2.28 0 0 1-2.28 2.28h-2.92a.43.43 0 0 0 0 .85h3.2a.42.42 0 0 0 .17 0 3.13 3.13 0 0 0 2.67-3.09v-.78a4.22 4.22 0 0 0 3.62-4.17v-1.79c-.1-.79-.1-2.74-2-2.74zm-2.31 7.91a3.41 3.41 0 0 1-2.4-1h4.81a3.41 3.41 0 0 1-2.41 1zm3.42-3.46a.43.43 0 0 0 0 .05 3.4 3.4 0 0 1-.43 1.64h-6a3.4 3.4 0 0 1-.42-1.64v-1.81c0-1.25.45-1.89 1.34-1.89h4.4c.69 0 1.11.32 1.11 1.89v1.77zm-13.45-1.64h-16.37a.43.43 0 0 0 0 .85h13.62v4.45a.43.43 0 0 0 .43.43h4.22v3.13h-1a.43.43 0 1 0 0 .85h1v.85h-18.75a2.76 2.76 0 0 1-2.75-2.75v-12.08h-.85v12.3a3.61 3.61 0 0 0 3.59 3.38h1.95a2.13 2.13 0 0 0 4.25 0h7.57a2.13 2.13 0 0 0 4.25 0h1.11a.43.43 0 0 0 .43-.43v-8.24a2.75 2.75 0 0 0-2.7-2.74zm-1.9 4.88v-4h1.9a1.9 1.9 0 0 1 1.9 1.9v2.13H2838zm-10.84 7.75a1.28 1.28 0 0 1-1.27-1.21h2.54a1.28 1.28 0 0 1-1.27 1.2zm11.83 0a1.28 1.28 0 0 1-1.27-1.21h2.54a1.28 1.28 0 0 1-1.27 1.2z" transform="translate(-2791.65 -4755.56)"/><path class="cls-2" d="M2823.54 4788.9h6.76a.43.43 0 0 0 0-.85h-6.76a.43.43 0 0 0 0 .85zm0 2.55h6.76a.43.43 0 0 0 0-.85h-6.76a.43.43 0 0 0 0 .85zm11.38-20.7a.43.43 0 0 1-.43.43h-1.88a.43.43 0 0 1 0-.85h1.88a.43.43 0 0 1 .43.42zm.94 3.7a.42.42 0 0 1-.21.37l-1.63.94a.43.43 0 0 1-.43-.74l1.63-.94a.43.43 0 0 1 .64.37zm0-7.45a.43.43 0 0 1-.64.37l-1.63-.94a.43.43 0 0 1 .43-.74l1.63.94a.43.43 0 0 1 .21.37zm-23.98 18.33a3.47 3.47 0 1 0-1.26 0l-6.2 22.66a.47.47 0 0 0 .33.57h.12a.47.47 0 0 0 .45-.34l2.09-7.64a.46.46 0 0 0 .21-.06l3.63-2.07 3.63 2.07a.46.46 0 0 0 .21.06l2.09 7.62a.47.47 0 0 0 .45.34h.12a.47.47 0 0 0 .33-.57zm1.93 10.59l-2.56 1.46-2.56-1.46 2.56-9.37zm-5.08-14a2.55 2.55 0 1 1 2.55 2.55 2.55 2.55 0 0 1-2.54-2.57zm-1 17.48l.69-2.54 1.88 1.07zm4.45-1.47l1.88-1.07.69 2.54z" transform="translate(-2791.65 -4755.56)"/><path class="cls-2" d="M2805.86 4781.9a5.43 5.43 0 0 1 10.86 0 .43.43 0 1 0 .85 0 6.28 6.28 0 0 0-12.56 0 .43.43 0 1 0 .85 0z" transform="translate(-2791.65 -4755.56)"/><path class="cls-2" d="M2811.29 4772.9a9 9 0 0 0-9 9 .43.43 0 0 0 .85 0 8.15 8.15 0 1 1 16.31 0 .43.43 0 0 0 .85 0 9 9 0 0 0-9.01-9z" transform="translate(-2791.65 -4755.56)"/><path class="cls-2" d="M2829.36 4770.32h-18.07a11.6 11.6 0 0 0-11.58 11.58.43.43 0 0 0 .85 0 10.75 10.75 0 0 1 10.73-10.73h18.07a.43.43 0 1 0 0-.85zM2856 4772l-4.7-4.7-.44-.44.71-.71a.47.47 0 1 0-.66-.66l-.71.71-.71-.71a.47.47 0 1 0-.66.66l.71.71-.13.13-5.09 5.09a1.11 1.11 0 0 0 0 1.57.46.46 0 0 0 .33.14h.85v3.81a1.11 1.11 0 0 0 1.11 1.11h7.09a1.11 1.11 0 0 0 1.11-1.11v-3.88h.86a.47.47 0 0 0 .33-.14 1.11 1.11 0 0 0 0-1.58zm-1.65.78a.47.47 0 0 0-.46.47v4.34a.18.18 0 0 1-.18.18h-7.09a.18.18 0 0 1-.18-.18v-4.28a.47.47 0 0 0-.47-.47h-1a.18.18 0 0 1 .05-.11l5.09-5.09a.18.18 0 0 1 .25 0l5 5a.18.18 0 0 1 .05.12h-1z" transform="translate(-2791.65 -4755.56)"/></svg>