<svg id="Layer_1" data-name="Layer 1" xmlns="http://www.w3.org/2000/svg" viewBox="0 0 76.28 57.77"><defs><style>.cls-1{fill:transparent}.cls-2{fill:#33b4b4}</style></defs><title>knowledge_products</title><path class="cls-1" d="M0 0h76.28v57.77H0z"/><path class="cls-2" d="M3146.15 4786.33l1.48 3.59a.58.58 0 0 0 .53.36h5.62a.58.58 0 0 0 .52-.34l1.67-3.67a7.29 7.29 0 1 0-12-7.24 7.33 7.33 0 0 0 2.18 7.3zm-1-7a6.13 6.13 0 1 1 10 6.17.58.58 0 0 0-.14.19l-1.56 3.44h-1.75v-2.45a.58.58 0 1 0-1.15 0v2.45h-2l-1.39-3.36a.58.58 0 0 0-.15-.21 6.09 6.09 0 0 1-1.9-6.23zm5.94-10.94a.58.58 0 0 0 .58-.58v-3a.58.58 0 0 0-1.15 0v3a.58.58 0 0 0 .57.58zm1.53 22.87h-3a.58.58 0 1 0 0 1.15h3a.58.58 0 0 0 0-1.15zm0 1.91h-3a.58.58 0 0 0 0 1.15h3a.58.58 0 0 0 0-1.15zm-7.97-23.56a.58.58 0 1 0 1-.58l-1.51-2.62a.58.58 0 1 0-1 .58zm-6.8 2.97l2.62 1.51a.58.58 0 1 0 .58-1l-2.62-1.51a.58.58 0 1 0-.58 1zm18.85-2.76a.58.58 0 0 0 .79-.21l1.51-2.61a.58.58 0 1 0-1-.58l-1.51 2.62a.58.58 0 0 0 .21.78zm4.68 4.35a.57.57 0 0 0 .29-.08l2.62-1.51a.58.58 0 1 0-.58-1l-2.62 1.51a.58.58 0 0 0 .29 1.08zm-27.82 29.41a1.29 1.29 0 0 0-.78 1.19 1.23 1.23 0 0 0 .71 1.15c6.23 3.2 7.74 3.87 8.17 4a.5.5 0 0 0 .17 0h22.48a5 5 0 0 0 0-10h-22.48c-.11.01-.42.01-8.27 3.66zm9.44 5.42l1.42-1.42a.47.47 0 0 0 0-.67l-1.89-1.89.25-.25 1.64-1.64a.47.47 0 0 0 .14-.34.47.47 0 0 0-.14-.34l-1.61-1.61h17.73a4.07 4.07 0 0 1 0 8.15H3143zm-5.69-2.23a.61.61 0 0 1-.09-.31v-3.3a.61.61 0 0 1 .08-.28c1.81-.83 3.55-1.6 4.29-1.91l1.82 1.82-1.89 1.89a.47.47 0 0 0 0 .67l1.89 1.89-1.68 1.68c-.66-.24-2.5-1.15-4.43-2.12zm-3.4-1.73a.31.31 0 0 1-.17-.3.36.36 0 0 1 .21-.33l2.31-1.07v2.9zm30.33-4.18h.1a4.07 4.07 0 1 1 0 8.15h-.91a5 5 0 0 0 0-8.15h.81z" transform="translate(-3113.65 -4759.23)"/><path class="cls-2" d="M3159.37 4803.8a.47.47 0 0 0-.47-.47h-10.07a.47.47 0 1 0 0 .95h10.07a.47.47 0 0 0 .47-.48zm0 2.1a.47.47 0 0 0-.47-.47h-10.07a.47.47 0 1 0 0 .95h10.07a.47.47 0 0 0 .47-.48z" transform="translate(-3113.65 -4759.23)"/></svg>