<svg xmlns="http://www.w3.org/2000/svg" viewBox="0 0 81.32 77.21"><defs><style>.cls-1{fill:#3764d1}</style></defs><title>Asset 7</title><g id="Layer_2" data-name="Layer 2"><g id="Layer_1-2" data-name="Layer 1"><path class="cls-1" d="M52.23 30.58h-29c-.52 0-.94.58-.94 1.29s.42 1.29.94 1.29h29c.52 0 .94-.58.94-1.29s-.42-1.29-.94-1.29zm0 6.54h-29c-.52 0-.94.58-.94 1.29s.42 1.29.94 1.29h29c.52 0 .94-.58.94-1.29s-.42-1.29-.94-1.29zm0 6.54h-29c-.52 0-.94.58-.94 1.29s.42 1.29.94 1.29h29c.52 0 .94-.58.94-1.29s-.42-1.29-.94-1.29z"/><path class="cls-1" d="M60.33 9.41h-4.58V4.55A4.55 4.55 0 0 0 51.2 0H12.23a1.27 1.27 0 0 0-.4.08 1.27 1.27 0 0 0-.29.19 1.23 1.23 0 0 0-.13.08L.39 11.19a1.29 1.29 0 0 0-.37.9H0v50.77a4.55 4.55 0 0 0 4.54 4.55h4.59v4.86a4.55 4.55 0 0 0 4.54 4.55h46.66a4.55 4.55 0 0 0 4.54-4.55V14a4.55 4.55 0 0 0-4.54-4.59zM11 4.36v5.17a2 2 0 0 1-2 2H3.76zM9.51 20.6a1.28 1.28 0 0 0-.38.92v43.31H4.55a2 2 0 0 1-2-2V14.08h6.52a4.55 4.55 0 0 0 4.54-4.54v-7H51.2a2 2 0 0 1 2 2v4.87H21.42a1.28 1.28 0 0 0-.45.09 1.27 1.27 0 0 0-.28.18 1.22 1.22 0 0 0-.14.09zm10.65-6.83v5.17a2 2 0 0 1-2 2h-5.28zm42.13 58.5a2 2 0 0 1-2 2H13.67a2 2 0 0 1-2-2V23.49h6.53a4.55 4.55 0 0 0 4.54-4.55V12h37.59a2 2 0 0 1 2 2zm16.4-57.67l-1.76-3.33a1.65 1.65 0 0 0-1.5-.86 1.59 1.59 0 0 0-1.47.78C69 19.45 69 19.79 69 20v51.54a.71.71 0 0 0 0 .12v.18c0 2.93 2.75 5.32 6.13 5.33a6.6 6.6 0 0 0 4.34-1.56 5 5 0 0 0 1.81-3.77v-.16a.81.81 0 0 0 0-.13v-3.1a4.69 4.69 0 0 0 0-.6v-.07L81.32 20c0-.15 0-.4-2.63-5.4zm-3.58-2.29a.24.24 0 0 1 .21-.1.26.26 0 0 1 .24.13l.9 1.71h-2.37zm-1.84 2.93a.67.67 0 0 1 .29-.07h3.65a.67.67 0 0 1 .26.06c.89 1.75 1.73 3.44 2.07 4.18l-1.94 1.73-2-1.83a.65.65 0 0 0-.83 0l-2 1.82-1.78-1.59c.24-.66 1.22-2.43 2.28-4.3zm6.43 56.52v.07a3.7 3.7 0 0 1-1.35 2.81 4.91 4.91 0 0 1-3.23 1.16c-2.52 0-4.57-1.78-4.57-4V71a6.33 6.33 0 0 0 9.15.11v.61zm-.23-4.26a4.26 4.26 0 0 1-4.3 3.5 4.22 4.22 0 0 1-4.35-4v-.06L70.86 22l1.42 1.33a.6.6 0 0 0 .41.16.59.59 0 0 0 .41-.16l2-1.87 2 1.87a.6.6 0 0 0 .82 0l1.63-1.52z"/><path class="cls-1" d="M76.57 26.73a.61.61 0 0 0-.65.56v39.53a.61.61 0 0 0 .65.56.69.69 0 0 0 .46-.16.52.52 0 0 0 .19-.39V27.3a.61.61 0 0 0-.65-.57zm-2.57 0a.61.61 0 0 0-.65.56v39.53a.65.65 0 0 0 1.29 0V27.29a.61.61 0 0 0-.64-.56z"/></g></g></svg>