<svg xmlns="http://www.w3.org/2000/svg" viewBox="0 0 30 52.44"><defs><style>.cls-1{fill:#32b7b7}</style></defs><title>Asset 26</title><g id="Layer_2" data-name="Layer 2"><path class="cls-1" d="M15 0a15 15 0 1 0 10.52 25.67A15 15 0 0 0 15 0zm12.3 13.68h-11V2.7a12.39 12.39 0 0 1 11 10.98zm-2.7 9.11l-6.43-6.48h9.13a12.31 12.31 0 0 1-2.7 6.48zM2.63 15A12.39 12.39 0 0 1 13.68 2.7v12.38a1.15 1.15 0 0 0 .33.79v.05l8.66 8.71A12.36 12.36 0 0 1 2.63 15zm23.81 21.92H3.56a1.32 1.32 0 0 0 0 2.63h22.88a1.32 1.32 0 0 0 0-2.63zm0 6.31H3.56a1.32 1.32 0 0 0 0 2.63h22.88a1.32 1.32 0 0 0 0-2.63zm0 6.57H3.56a1.32 1.32 0 1 0 0 2.63h22.88a1.32 1.32 0 0 0 0-2.63z" id="Featured_Blog_Posts" data-name="Featured Blog Posts"/></g></svg>