<svg id="Layer_1" data-name="Layer 1" xmlns="http://www.w3.org/2000/svg" viewBox="0 0 76.28 57.77"><defs><style>.cls-1{fill:transparent}.cls-2{fill:#f36}</style></defs><title>real_time_information</title><path class="cls-1" d="M0 0h76.28v57.77H0z"/><path class="cls-2" d="M2524.31 4774.38h-2a.44.44 0 1 1 0-.88h2a.44.44 0 1 1 0 .88zm5.07 1.24h-7.53a3.13 3.13 0 0 1 .77.88h6.76a.67.67 0 0 1 .67.67V4797a.67.67 0 0 1-.67.67h-6.33v.88h6.33a1.55 1.55 0 0 0 1.54-1.54v-19.8a1.55 1.55 0 0 0-1.54-1.59zm-8.3 25.84a2.05 2.05 0 0 0 .92-1.68 2.22 2.22 0 0 0-.92 1.68zm2.21-2.1h-.24v.37a3.11 3.11 0 0 1 0 .52 1.34 1.34 0 1 1-1 1.77 3.11 3.11 0 0 1-.74.5 2.22 2.22 0 1 0 1.98-3.16z" transform="translate(-2465.12 -4755.56)"/><path class="cls-2" d="M2530.72 4771.68h-14.87a2.65 2.65 0 0 0-2.65 2.65v.5h.88v-.5a1.78 1.78 0 0 1 1.77-1.77h14.87a1.78 1.78 0 0 1 1.77 1.77v29.12a1.78 1.78 0 0 1-1.77 1.77h-14.87a1.78 1.78 0 0 1-1.77-1.77v-.73h-.88v.73a2.65 2.65 0 0 0 2.65 2.65h14.87a2.65 2.65 0 0 0 2.65-2.65v-29.12a2.65 2.65 0 0 0-2.65-2.65zm-51.87 18.48a.44.44 0 0 1-.44-.44v-3a.44.44 0 0 1 .88 0v3a.44.44 0 0 1-.44.44zm1.73 3.41V4781a.44.44 0 1 1 .88 0v12.72a.44.44 0 0 1-.88 0v-.17m2.71-3.39a.44.44 0 0 1-.44-.44V4784a.44.44 0 1 1 .88 0v5.69a.44.44 0 0 1-.44.47zm2.42 0a.44.44 0 0 1-.44-.44v-4.25a.44.44 0 0 1 .88 0v4.25a.44.44 0 0 1-.44.44zm4.59 0a.44.44 0 0 1-.44-.44v-4.25a.44.44 0 0 1 .88 0v4.25a.44.44 0 0 1-.44.44zm-2.3 0a.44.44 0 0 1-.44-.44v-6a.44.44 0 0 1 .88 0v6a.44.44 0 0 1-.44.44zm18.53-8.6h-10a1.35 1.35 0 0 0-1.35 1.35v12.67a1.35 1.35 0 0 0 1.35 1.35h10a1.35 1.35 0 0 0 1.35-1.35v-12.67a1.35 1.35 0 0 0-1.35-1.35zm.47 14a.47.47 0 0 1-.47.47h-10a.47.47 0 0 1-.47-.47v-12.67a.47.47 0 0 1 .47-.47h10a.47.47 0 0 1 .47.47v12.67z" transform="translate(-2465.12 -4755.56)"/><path class="cls-2" d="M2500.82 4789.59a2.63 2.63 0 0 0 3-3.85 2.61 2.61 0 0 0-1.59-1.23 2.63 2.63 0 1 0-1.41 5.08zm-1-3a1.75 1.75 0 1 1 1.24 2.15 1.75 1.75 0 0 1-1.24-2.14zm1.69 3.46a3.08 3.08 0 0 0-3.08 3.08.44.44 0 0 0 .44.44h5.28a.44.44 0 0 0 .44-.44 3.08 3.08 0 0 0-3.08-3.08zm-2.16 2.64a2.2 2.2 0 0 1 4.31 0h-4.31zm18.65-3.91h-5.72a.44.44 0 0 1-.44-.44 6.16 6.16 0 0 1 6.16-6.16.44.44 0 0 1 .44.44v5.72a.44.44 0 0 1-.44.44zm-5.26-.88h4.82v-4.82a5.29 5.29 0 0 0-4.84 4.82z" transform="translate(-2465.12 -4755.56)"/><path class="cls-2" d="M2521.56 4797.16v2.58a1.62 1.62 0 0 1-1.62 1.62h-36.88a1.62 1.62 0 0 1-1.62-1.62v-21.68a1.62 1.62 0 0 1 1.62-1.62h36.88a1.62 1.62 0 0 1 1.62 1.62v5.87a6.72 6.72 0 0 1 .88.25v-6.12a2.5 2.5 0 0 0-2.49-2.5h-28v-2.4a1.55 1.55 0 0 0-1.54-1.54h-1.56V4770a1.55 1.55 0 0 0-1.54-1.54H2474l-3.75 3.68a.44.44 0 0 0-.13.31v17.23a1.55 1.55 0 0 0 1.54 1.54h1.34v1.78a1.55 1.55 0 0 0 1.54 1.54h6v5.22a2.5 2.5 0 0 0 2.49 2.5h18v2.32h-8.27c-1.4 0-2.49 1.58-2.49 2.94a.44.44 0 0 0 .44.44h21.52a.44.44 0 0 0 .44-.44c0-1.36-1.09-2.94-2.49-2.94h-8.27v-2.32h18a2.5 2.5 0 0 0 2.49-2.5v-2.83a6.71 6.71 0 0 1-.84.23zm-47.87-27.25v1.76a.67.67 0 0 1-.67.67h-1.8zm-.52 5.52a.44.44 0 0 0-.13.31v14.71h-1.56a.67.67 0 0 1-.67-.67v-16.57h2.2a1.55 1.55 0 0 0 1.54-1.54v-2.36h12.77a.67.67 0 0 1 .67.67v1.65h-10.94zm3.62-2.32v1.76a.67.67 0 0 1-.67.67h-1.8zm3.78 5v15.58h-6a.67.67 0 0 1-.67-.67v-16.57h2.2a1.55 1.55 0 0 0 1.54-1.54v-2.36h12.77a.67.67 0 0 1 .67.67v2.4h-8a2.5 2.5 0 0 0-2.51 2.44zm29.64 27.37a2 2 0 0 1 1.57 1.62h-20.54a2 2 0 0 1 1.56-1.62h17.41z" transform="translate(-2465.12 -4755.56)"/><path class="cls-2" d="M2520.13 4796.7a6.16 6.16 0 0 1-6.16-6.16.44.44 0 0 1 .44-.44h5.28v-5.28a.44.44 0 0 1 .44-.44 6.16 6.16 0 0 1 0 12.32zm-5.26-5.72a5.28 5.28 0 1 0 5.7-5.7v5.26a.44.44 0 0 1-.44.44h-5.26z" transform="translate(-2465.12 -4755.56)"/></svg>