<svg xmlns="http://www.w3.org/2000/svg" viewBox="0 0 30.5 38.85"><defs><style>.cls-1{fill:#32b7b7;stroke:#32b7b7;stroke-miterlimit:10;stroke-width:.5px}</style></defs><title>Asset 30</title><g id="Layer_2" data-name="Layer 2"><g id="Featured_Blog_Posts" data-name="Featured Blog Posts"><path class="cls-1" d="M27.77 2.34H16V1a.73.73 0 1 0-1.46 0v1.34H2.73A2.48 2.48 0 0 0 .25 4.81v31.31a2.48 2.48 0 0 0 2.48 2.48h25a2.48 2.48 0 0 0 2.48-2.48V4.81a2.48 2.48 0 0 0-2.44-2.47zm1 33.79a1 1 0 0 1-1 1h-25a1 1 0 0 1-1-1V4.81a1 1 0 0 1 1-1h11.8v1.34a.73.73 0 1 0 1.46 0V3.79h11.8a1 1 0 0 1 1 1z"/><path class="cls-1" d="M10.49 14.84H20a.73.73 0 0 0 0-1.46h-9.51a.73.73 0 0 0 0 1.46zM20 18.12h-9.49a.73.73 0 1 0 0 1.46H20a.73.73 0 1 0 0-1.46zm0 4.53h-9.51a.73.73 0 0 0 0 1.46H20a.73.73 0 0 0 0-1.46z"/></g></g></svg>