<svg xmlns="http://www.w3.org/2000/svg" viewBox="0 0 32.54 25.8"><defs><style>.cls-1{fill:#32b7b7;stroke:#32b7b7;stroke-miterlimit:10;stroke-width:.5px}</style></defs><title>Asset 28</title><g id="Layer_2" data-name="Layer 2"><g id="Featured_Blog_Posts" data-name="Featured Blog Posts"><path class="cls-1" d="M22.57 4.91H5.35A5.11 5.11 0 0 0 .25 10v7.72a5.11 5.11 0 0 0 5.1 5.1h12.92l3.63 2.61a.57.57 0 0 0 .9-.46v-2.14a5.11 5.11 0 0 0 4.88-5.1V10a5.11 5.11 0 0 0-5.11-5.09zm4 12.82a4 4 0 0 1-4 4h-.34a.57.57 0 0 0-.57.57v1.6l-2.88-2.1a.57.57 0 0 0-.33-.11H5.35a4 4 0 0 1-4-4V10a4 4 0 0 1 4-4h17.22a4 4 0 0 1 4 4z"/><path class="cls-1" d="M21.53 9.95H6.83a.48.48 0 0 0 0 1h14.7a.48.48 0 0 0 0-1zm0 2.93H6.83a.48.48 0 0 0 0 1h14.7a.48.48 0 0 0 0-1zm0 2.93H6.83a.48.48 0 0 0 0 1h14.7a.48.48 0 0 0 0-1zm2.59-12a4.47 4.47 0 0 1 4.47 4.47.48.48 0 1 0 1 0 5.42 5.42 0 0 0-5.42-5.42.48.48 0 0 0 0 1z"/><path class="cls-1" d="M24.62 1.2a6.72 6.72 0 0 1 6.72 6.72.48.48 0 1 0 1 0A7.67 7.67 0 0 0 24.62.25a.48.48 0 1 0 0 1z"/></g></g></svg>