<svg xmlns="http://www.w3.org/2000/svg" viewBox="0 0 30.5 41.35"><defs><style>.cls-1{fill:#33b8b8;stroke:#32b7b7;stroke-miterlimit:10;stroke-width:.5px}</style></defs><title>Asset 29</title><g id="Layer_2" data-name="Layer 2"><path class="cls-1" d="M7.39 16.75H.81a.56.56 0 0 0-.56.56v20.84a.56.56 0 0 0 .56.56h2.73v1.83a.56.56 0 1 0 1.12 0v-1.83h2.73a.56.56 0 0 0 .61-.56V17.31a.56.56 0 0 0-.61-.56zm-.56 1.12v5.05H1.37v-5.05zM4.66 37.59v-1.84a.56.56 0 1 0-1.12 0v1.83H1.37V24h5.46v13.59zm13.88-25.97H12a.56.56 0 0 0-.56.56v26a.56.56 0 0 0 .56.56h2.73v1.83a.56.56 0 1 0 1.12 0v-1.86h2.73a.56.56 0 0 0 .56-.56v-26a.56.56 0 0 0-.6-.53zM18 12.74v10.18h-5.48V12.74zm-2.19 24.85v-1.84a.56.56 0 1 0-1.12 0v1.83h-2.17V24H18v13.59zM29.69.25h-6.58a.56.56 0 0 0-.56.56v37.34a.56.56 0 0 0 .56.56h2.73v1.83a.56.56 0 1 0 1.12 0v-1.83h2.73a.56.56 0 0 0 .56-.56V.81a.56.56 0 0 0-.56-.56zm-.56 1.12v21.55h-5.46V1.37zM27 37.59v-1.84a.56.56 0 1 0-1.12 0v1.83h-2.21V24h5.46v13.59z" id="Featured_Blog_Posts" data-name="Featured Blog Posts"/></g></svg>