<svg id="Layer_1" xmlns="http://www.w3.org/2000/svg" viewBox="0 0 70.5 88.6"><style>.st0{fill:#1295d3}</style><path class="st0" d="M13.6 39.3c-.1 0-.1 0 0 0-1-1.4-2.5-2.5-4.2-2.9-.6-.2-1.3-.3-1.9-.3-3.4 0-6.3 2.3-7.2 5.5-1.1 4 1.3 8.1 5.3 9.1.6.2 1.3.3 1.9.3 3.4 0 6.3-2.3 7.2-5.5.5-1.9.3-3.9-.7-5.7-.2-.1-.3-.3-.4-.5zM1.6 42c.7-2.6 3.1-4.5 5.8-4.5.5 0 1.1.1 1.6.2 1 .3 2 .8 2.7 1.6L1.6 42c0 .1 0 .1 0 0zm11.7 3.2c-.7 2.6-3.1 4.5-5.8 4.5-.5 0-1.1-.1-1.6-.2-2.7-.7-4.5-3.2-4.5-5.8l11.2-3c.9 1.3 1.1 2.9.7 4.5zm-5.9 7.4c-3.9 0-7.1 3.1-7.3 6.9v21.6c0 .8.6 1.4 1.4 1.4h2.9v5.3c0 .4.3.7.7.7.4 0 .7-.3.7-.7v-5.3h3.7v5.3c0 .4.3.7.7.7.4 0 .7-.3.7-.7v-5.3h2.9c.3 0 .5-.2.6-.4.3-.3.4-.6.4-1V59.6c-.3-3.9-3.5-7-7.4-7zm6 28.6H1.5V60c0-3.3 2.7-5.9 5.9-5.9 3.3 0 5.9 2.7 5.9 5.9v21.2zm55.3-33.5c.4-.7.8-1.4 1-2.2.5-1.9.3-3.9-.7-5.7-.1-.2-.2-.4-.4-.6-1-1.4-2.5-2.4-4.2-2.9-.6-.2-1.3-.3-1.9-.3-3.4 0-6.3 2.3-7.2 5.5-.6 2.2-.1 4.4 1 6.1l-1.6 1.6c-.3.3-.3.7 0 1 .1.1.3.2.5.2s.4-.1.5-.2l1.5-1.5c.9.9 2 1.6 3.3 1.9.6.2 1.3.3 1.9.3 2 0 3.9-.8 5.3-2.2l1.6 1.6c.1.1.3.2.5.2s.4-.1.5-.2c.3-.3.3-.7 0-1l-1.6-1.6zM56.6 42c.7-2.6 3.1-4.5 5.8-4.5.5 0 1.1.1 1.6.2 1 .3 2 .8 2.7 1.6L56.6 42c0 .1 0 .1 0 0zm11.7 3.2c-.7 2.6-3.1 4.5-5.8 4.5-.5 0-1.1-.1-1.6-.2-2.7-.7-4.5-3.2-4.5-5.8l11.2-3c.9 1.3 1.1 2.9.7 4.5zm1.5 34.1V59.6c-.2-3.8-3.4-6.9-7.3-6.9-1.4 0-2.8.4-3.9 1.2.3.3.7.7.9 1.1.9-.5 1.9-.8 3-.8 3.3 0 5.9 2.7 5.9 5.9v19.6l.5 1.6H56.1l.4-1.6v-2.3c-.4.2-.9.4-1.4.5v1.5l-.6 2.4c-.1.2 0 .4.1.6.1.2.3.3.6.3h4V88c0 .4.3.7.7.7.4 0 .7-.3.7-.7v-5.3h3.7V88c0 .4.3.7.7.7.4 0 .7-.3.7-.7v-5.3h4.1c.2 0 .4-.1.6-.3.1-.2.2-.4.1-.6l-.7-2.5z"/><path class="st0" d="M59.6 70V59.4c0-3.8-3.1-6.9-6.9-6.9h-3.1v-3c0-.3-.1-.5-.4-.6-.2-.1-.5-.1-.7.1l-5 3.6H29c-3.8 0-6.9 3.1-6.9 6.9V70c0 3.8 3.1 6.9 6.9 6.9h23.6c3.9.1 7-3 7-6.9zm-6.9 5.6H29c-3 0-5.5-2.5-5.5-5.5V59.4c0-3 2.5-5.5 5.5-5.5h14.6c.1 0 .3 0 .4-.1l4.1-2.9v2.3c0 .4.3.7.7.7h3.8c3 0 5.5 2.5 5.5 5.5V70c.1 3.1-2.4 5.6-5.4 5.6z"/><path class="st0" d="M51.5 58.7H29.7c-.4 0-.7.3-.7.7 0 .4.3.7.7.7h21.9c.4 0 .7-.3.7-.7-.1-.4-.4-.7-.8-.7zm0 3.6H29.7c-.4 0-.7.3-.7.7 0 .4.3.7.7.7h21.9c.4 0 .7-.3.7-.7-.1-.4-.4-.7-.8-.7zm0 3.6H29.7c-.4 0-.7.3-.7.7 0 .4.3.7.7.7h21.9c.4 0 .7-.3.7-.7-.1-.4-.4-.7-.8-.7zm-7.3 3.5H29.7c-.4 0-.7.3-.7.7 0 .4.3.7.7.7h14.5c.4 0 .7-.3.7-.7 0-.4-.3-.7-.7-.7zm10.4-54c-.8 2.8.1 5.7 2.2 7.6l1.5 3.7c.1.3.4.4.7.4h5.8c.3 0 .5-.2.6-.4l1.7-3.8c1-1 1.8-2.2 2.2-3.6 1.1-4.1-1.3-8.3-5.4-9.4-.7-.2-1.3-.3-2-.3-3.3.1-6.4 2.5-7.3 5.8zM68 19c-.3 1.2-1 2.2-1.9 3l-.2.2-1.6 3.5h-1.7v-2.4c0-.4-.3-.7-.7-.7-.4 0-.7.3-.7.7v2.4h-1.8L58 22.3c0-.1-.1-.2-.2-.3-1.8-1.6-2.5-4-1.9-6.3.7-2.7 3.2-4.6 6-4.6.5 0 1.1.1 1.6.2 3.5 1 5.4 4.4 4.5 7.7zM62 4.5c.4 0 .7-.3.7-.7V.7c0-.4-.3-.7-.7-.7-.4 0-.7.3-.7.7v3.1c0 .4.3.7.7.7zM63.6 28h-3.1c-.4 0-.7.3-.7.7 0 .4.3.7.7.7h3.1c.4 0 .7-.3.7-.7 0-.4-.3-.7-.7-.7zm0 1.9h-3.1c-.4 0-.7.3-.7.7 0 .4.3.7.7.7h3.1c.4 0 .7-.3.7-.7 0-.4-.3-.7-.7-.7zM55.2 5.7c.1.2.4.4.6.4.1 0 .2 0 .4-.1.3-.2.5-.6.3-1l-1.6-2.7c-.2-.3-.6-.5-1-.3-.3.2-.5.6-.3 1l1.6 2.7zm-6.9 3.2l2.7 1.6c.1.1.2.1.4.1s.5-.1.6-.4c.2-.3.1-.8-.3-1L49 7.6c-.3-.2-.8-.1-1 .3-.2.3-.1.8.3 1zM67.8 6c.1.1.2.1.4.1s.5-.1.6-.4L70.4 3c.2-.3.1-.8-.3-1-.3-.2-.8-.1-1 .3L67.6 5c-.2.4-.1.8.2 1z"/></svg>