<svg xmlns="http://www.w3.org/2000/svg" viewBox="0 0 463.79 128.49"><defs><style>.cls-1{fill:#7f3f98}.cls-2,.cls-5,.cls-6{fill:none;stroke:#7f3f98}.cls-2,.cls-5{stroke-miterlimit:10}.cls-2{stroke-width:2px}.cls-3{fill:#fff}.cls-4{fill:#6a1e74}.cls-5,.cls-6{stroke-width:1.5px}.cls-6{stroke-linecap:round;stroke-linejoin:round}</style></defs><title>startup_submit_tech</title><g id="Layer_2" data-name="Layer 2"><g id="Layer_1-2" data-name="Layer 1"><path class="cls-1" d="M419.51 15.78h2.72v2.67a.68.68 0 0 0 1.36 0v-2.67h2.72a.67.67 0 1 0 0-1.34h-2.71v-2.67a.68.68 0 0 0-1.36 0v2.67h-2.72a.67.67 0 1 0 0 1.34zm-16.82 13.27h2.72v2.67a.68.68 0 0 0 1.36 0v-2.67h2.72a.67.67 0 1 0 0-1.34h-2.72V25a.68.68 0 0 0-1.36 0v2.67h-2.72a.67.67 0 1 0 0 1.34zM380.26 18H383v2.67a.68.68 0 0 0 1.36 0V18h2.72a.67.67 0 1 0 0-1.34h-2.72v-2.71a.68.68 0 0 0-1.36 0v2.67h-2.72a.67.67 0 1 0 0 1.34zm13.53-13.32h2.72v2.67a.68.68 0 0 0 1.36 0V4.68h2.72a.67.67 0 1 0 0-1.34h-2.72V.67a.68.68 0 0 0-1.36 0v2.67h-2.72a.67.67 0 1 0 0 1.34zm-.84 48.71h2.72v2.67a.68.68 0 0 0 1.36 0v-2.67h2.72a.67.67 0 1 0 0-1.34H397v-2.67a.68.68 0 0 0-1.36 0v2.67h-2.72a.67.67 0 1 0 0 1.34zM462.76 89a.82.82 0 0 0 .4-.11.81.81 0 0 0 .64-.78.82.82 0 0 0-.83-.82h-57.46a8.11 8.11 0 0 0-.49 16.22v1.72h-.51a9.08 9.08 0 0 1-9.16-9 .83.83 0 0 0-1.66 0 10.73 10.73 0 0 0 10.82 10.61h.49v3.49a.81.81 0 0 0 .46.73.85.85 0 0 0 .87-.07l4.1-2.93 4.1 2.93a.85.85 0 0 0 .87.07.82.82 0 0 0 .45-.73v-3.49H463a.82.82 0 1 0 0-1.63h-47.1v-1.71H463a.82.82 0 0 0 .83-.82.81.81 0 0 0-.64-.78.82.82 0 0 0-.4-.11 6.42 6.42 0 1 1 0-12.83zm-48.56 19.75l-3.27-2.33a.85.85 0 0 0-1 0l-3.27 2.33V94.34h7.52zm40.36-13.33a8 8 0 0 0 3.37 6.49h-42.07v-3.23h37.23a.82.82 0 1 0 0-1.63h-37.23v-3.53a.82.82 0 0 0-.83-.82h-9.18a.82.82 0 0 0-.83.82v8.32a6.48 6.48 0 0 1 .5-13h52.41a8 8 0 0 0-3.38 6.54zm-38.88-19.09h37.4a.82.82 0 1 0 0-1.63h-37.4a.82.82 0 1 0 0 1.63z"/><path class="cls-1" d="M462.76 66.6a.82.82 0 0 0 .4-.11.81.81 0 0 0 .64-.78.82.82 0 0 0-.83-.82h-57.46a8.12 8.12 0 1 0 0 16.25H463a.82.82 0 0 0 .83-.82.81.81 0 0 0-.64-.78.82.82 0 0 0-.4-.11 6.42 6.42 0 1 1 0-12.83zm-8.21 6.4a8 8 0 0 0 3.37 6.49h-52.41a6.49 6.49 0 1 1 0-13h52.41a8 8 0 0 0-3.37 6.51z"/><path class="cls-1" d="M463 82.83h-58.5a9.08 9.08 0 0 1-9.16-9 .83.83 0 0 0-1.66 0 10.73 10.73 0 0 0 10.82 10.63H463a.82.82 0 1 0 0-1.63zM66.56 60.27H47.37v-4a.83.83 0 0 0-1.66 0v4H43a4.3 4.3 0 0 0-4.34 4.25v45.26A4.3 4.3 0 0 0 43 114h23.56a4.3 4.3 0 0 0 4.34-4.25V64.52a4.3 4.3 0 0 0-4.34-4.25zm2.67 49.52a2.65 2.65 0 0 1-2.67 2.62H43a2.65 2.65 0 0 1-2.67-2.62V64.52A2.65 2.65 0 0 1 43 61.9h23.56a2.65 2.65 0 0 1 2.67 2.62z"/><path class="cls-1" d="M64.44 66.95H45.12a2.56 2.56 0 0 0-2.58 2.53v18.24a2.56 2.56 0 0 0 2.58 2.54h19.32A2.56 2.56 0 0 0 67 87.72V69.48a2.56 2.56 0 0 0-2.56-2.53zm.92 20.77a.91.91 0 0 1-.92.9H45.12a.91.91 0 0 1-.92-.9V69.48a.91.91 0 0 1 .92-.9h19.32a.91.91 0 0 1 .92.9zm-1.46 6.81h-3.23a.82.82 0 1 0 0 1.63h3.23a.82.82 0 1 0 0-1.63zm-7.5 0h-3.23a.82.82 0 1 0 0 1.63h3.23a.82.82 0 1 0 0-1.63zm-7.51 0h-3.23a.82.82 0 1 0 0 1.63h3.23a.82.82 0 1 0 0-1.63zm15.01 5.01h-3.23a.82.82 0 1 0 0 1.63h3.23a.82.82 0 1 0 0-1.63zm-7.5 0h-3.23a.82.82 0 1 0 0 1.63h3.23a.82.82 0 1 0 0-1.63zm-7.51 0h-3.23a.82.82 0 1 0 0 1.63h3.23a.82.82 0 1 0 0-1.63zm15.01 4.87h-3.23a.82.82 0 1 0 0 1.63h3.23a.82.82 0 1 0 0-1.63zm-7.5 0h-3.23a.82.82 0 1 0 0 1.63h3.23a.82.82 0 1 0 0-1.63zm-7.51 0h-3.23a.82.82 0 1 0 0 1.63h3.23a.82.82 0 1 0 0-1.63zm-8.76-53.75a7.75 7.75 0 0 0-7.82 7.67.83.83 0 0 1-1.66 0A9.4 9.4 0 0 1 40.13 49a.82.82 0 1 1 0 1.63z"/><path class="cls-1" d="M39.25 46.17A11.66 11.66 0 0 0 27.5 57.7a.83.83 0 0 1-1.66 0 13.31 13.31 0 0 1 13.41-13.16.82.82 0 1 1 0 1.63zm303.64 1.21h-28.21a5 5 0 0 0-5 4.93v54.2a5 5 0 0 0 5 4.93h28.21a5 5 0 0 0 5-4.93v-54.2a5 5 0 0 0-5-4.93zm3.37 59.13a3.34 3.34 0 0 1-3.37 3.3h-28.21a3.34 3.34 0 0 1-3.36-3.3v-54.2a3.34 3.34 0 0 1 3.36-3.3h28.21a3.34 3.34 0 0 1 3.37 3.3z"/><path class="cls-1" d="M328.79 98.89A4.13 4.13 0 1 0 333 103a4.18 4.18 0 0 0-4.21-4.11zm0 6.63a2.5 2.5 0 1 1 2.55-2.5 2.53 2.53 0 0 1-2.55 2.49zm11.56-50.82h-23.13a2.91 2.91 0 0 0-2.93 2.87v36.86a2.91 2.91 0 0 0 2.93 2.87h23.13a2.91 2.91 0 0 0 2.93-2.87V57.57a2.91 2.91 0 0 0-2.93-2.87zm1.27 39.74a1.26 1.26 0 0 1-1.27 1.24h-23.13a1.26 1.26 0 0 1-1.22-1.25V57.57a1.26 1.26 0 0 1 1.27-1.24h23.13a1.26 1.26 0 0 1 1.27 1.24zm-14.77-42.03h3.87a.82.82 0 1 0 0-1.63h-3.87a.82.82 0 1 0 0 1.63zm-29.2-14.91c-.54-1.16-1.18-2.52-1.93-4.13a1.78 1.78 0 0 0-1.65-1.06 1.71 1.71 0 0 0-1.61 1c-5.4 10.25-5.4 10.68-5.4 10.88l-.1 64a1 1 0 0 0 0 .15v.22a6.68 6.68 0 0 0 6.73 6.61 6.76 6.76 0 0 0 4.76-1.93 6.5 6.5 0 0 0 2-4.68v-.2a1.13 1.13 0 0 0 0-.17v-3.85a6.55 6.55 0 0 0 0-.75v-.08l.09-59.28c-.01-.23-.01-.53-2.89-6.73zm-3.92-3.65a.34.34 0 0 1 .32-.17.38.38 0 0 1 .36.23l1.36 2.9h-3.59zm-2.31 4.44a.75.75 0 0 1 .35-.09h4.37a.75.75 0 0 1 .32.08c1.07 2.31 2.08 4.53 2.49 5.51l-2.33 2.27-2.45-2.41a.72.72 0 0 0-1 0l-2.45 2.4-2.14-2.05c.42-.91 1.56-3.24 2.84-5.71zm7.58 70.15v.1a5.13 5.13 0 0 1-1.57 3.69 5.34 5.34 0 0 1-9.08-3.7v-1.03a6.79 6.79 0 0 0 10.64.14v.8zm0-4.24a5.33 5.33 0 0 1-10.59-.67v-.08l.09-57.63 1.74 1.71a.72.72 0 0 0 .5.2.71.71 0 0 0 .5-.2l2.46-2.4 2.45 2.41a.72.72 0 0 0 1 0l2-2z"/><path class="cls-1" d="M295.32 52.54a.7.7 0 0 0-.71.7v49a.71.71 0 0 0 1.21.49.68.68 0 0 0 .21-.49v-49a.7.7 0 0 0-.71-.7zm-2.8 0a.7.7 0 0 0-.71.69v49a.71.71 0 0 0 1.41 0v-49a.7.7 0 0 0-.7-.69zm79.41.72a11.25 11.25 0 0 0-11.35 11.13.83.83 0 0 0 1.66 0 9.69 9.69 0 0 1 19.37 0 .83.83 0 0 0 1.66 0 11.25 11.25 0 0 0-11.34-11.13z"/><path class="cls-1" d="M371.93 48.09a16.32 16.32 0 0 0-16.46 16.14.83.83 0 0 0 1.66 0 14.8 14.8 0 0 1 29.59 0 .83.83 0 0 0 1.66 0 16.32 16.32 0 0 0-16.45-16.14z"/><path class="cls-1" d="M373 70.4a6.21 6.21 0 1 0-2.25 0l-10.26 36.74a.81.81 0 0 0 .58 1 .85.85 0 0 0 .22 0 .83.83 0 0 0 .8-.6l2.91-10.4a.84.84 0 0 0 .39-.1l6.49-3.63 6.48 3.59a.83.83 0 0 0 .38.1l2.91 10.41a.83.83 0 0 0 .8.6.85.85 0 0 0 .22 0 .81.81 0 0 0 .58-1zm-5.62-6a4.56 4.56 0 1 1 4.56 4.47 4.52 4.52 0 0 1-4.57-4.48zm-1.8 30.6l1.25-4.46 3.37 1.88zm6.29-3.52L367.28 89l4.59-16.43L376.45 89zm1.68.94l3.36-1.88 1.24 4.46zM248.51 71.84v9.83h-10a.82.82 0 0 0-.83.82A11.68 11.68 0 1 0 249.34 71a.82.82 0 0 0-.83.84zm1.66 10.64v-9.79a9.84 9.84 0 1 1-10.81 10.61h10a.82.82 0 0 0 .81-.82zm-19.64 26.08h-15.69v-3.18h-1.66v3.18H197.5c-2.67 0-4.73 2.94-4.73 5.47a.82.82 0 0 0 .83.82h40.84a.82.82 0 0 0 .83-.82c-.01-2.53-2.08-5.47-4.74-5.47zm-36 4.66c.36-1.49 1.6-3 3-3h33c1.37 0 2.61 1.53 3 3zM171 74.57a.82.82 0 0 0-.83.82V81a.83.83 0 0 0 1.66 0v-5.61a.82.82 0 0 0-.83-.82zm7.62-4.21V81a.83.83 0 0 0 1.66 0V70.36a.83.83 0 0 0-1.66 0zm4.58 2.7V81a.83.83 0 0 0 1.66 0v-7.9a.83.83 0 0 0-1.66 0zm8.71 0V81a.83.83 0 0 0 1.66 0v-7.9a.83.83 0 0 0-1.66 0zm-4.28-3.18V81a.83.83 0 0 0 1.66 0V69.88a.83.83 0 0 0-1.66 0zM229 117.09h-29.9a.82.82 0 1 0 0 1.63H229a.82.82 0 1 0 0-1.63zm-24.51-51.33a2.54 2.54 0 0 0-2.56 2.51v23.58a2.54 2.54 0 0 0 2.56 2.51h19a2.54 2.54 0 0 0 2.56-2.51V68.27a2.54 2.54 0 0 0-2.56-2.51zm19.94 2.51v23.58a.89.89 0 0 1-.9.88h-19a.89.89 0 0 1-.9-.88V68.27a.89.89 0 0 1 .9-.88h19a.89.89 0 0 1 .9.88z"/><path class="cls-1" d="M212.71 80.71a5.08 5.08 0 0 0 1.3.17 5 5 0 0 0 4.81-3.62 4.78 4.78 0 0 0-.49-3.71 4.94 4.94 0 0 0-3-2.28 5.08 5.08 0 0 0-1.3-.17 5 5 0 0 0-4.81 3.62 4.89 4.89 0 0 0 3.49 5.99zm-1.91-5.57a3.32 3.32 0 0 1 3.2-2.42 3.39 3.39 0 0 1 .87.11 3.29 3.29 0 0 1 2 1.52 3.18 3.18 0 0 1 .33 2.48 3.32 3.32 0 0 1-3.2 2.42 3.4 3.4 0 0 1-.87-.11 3.26 3.26 0 0 1-2.33-4.01zm3.2 6.43a5.79 5.79 0 0 0-5.84 5.73.82.82 0 0 0 .83.82h10a.82.82 0 0 0 .83-.82 5.79 5.79 0 0 0-5.82-5.73zm-4.09 4.91a4.19 4.19 0 0 1 8.18 0zm36.2-8.1V67.74a.82.82 0 0 0-.83-.82 11.58 11.58 0 0 0-11.68 11.46.82.82 0 0 0 .83.82h10.85a.82.82 0 0 0 .83-.82zm-1.66-.82h-9.15a9.94 9.94 0 0 1 9.15-9z"/><path class="cls-1" d="M253.73 99.6v-5.29a12.89 12.89 0 0 1-1.66.48v4.81a3 3 0 0 1-3.07 3h-70a3 3 0 0 1-3.07-3V88.52a.74.74 0 0 0 0-.08V64.77a.74.74 0 0 0 0-.08v-5.44a3 3 0 0 1 3.07-3h70a3 3 0 0 1 3.07 3v10.92a12.88 12.88 0 0 1 1.66.48v-11.4a4.7 4.7 0 0 0-4.73-4.64h-70a4.7 4.7 0 0 0-4.73 4.64V99.6a4.69 4.69 0 0 0 4.73 4.64h70a4.69 4.69 0 0 0 4.73-4.64z"/><ellipse class="cls-2" cx="431.71" cy="47.97" rx="10.75" ry="10.55"/><path class="cls-1" d="M429.33 43.91h2.4c1.64 0 2.79.54 2.79 1.93a1.73 1.73 0 0 1-1.42 1.73c1.18.18 1.87.81 1.87 1.9 0 1.56-1.26 2.32-3.06 2.32h-2.59zm2.23 3.39c1.37 0 1.95-.48 1.95-1.37s-.65-1.22-1.9-1.22h-1.24v2.59zm.21 3.75c1.38 0 2.19-.5 2.19-1.57s-.77-1.48-2.18-1.48h-1.4v3z"/><path class="cls-2" d="M430.98 42.28v1.83m1.78-1.83v1.83m-1.71 7.73v1.83m1.78-1.83v1.83m-157.18 69.96V89.88"/><circle class="cls-3" cx="275.65" cy="123.38" r="4.51"/><path class="cls-1" d="M280.77 123.38a5.11 5.11 0 1 0-5.11 5.11 5.12 5.12 0 0 0 5.11-5.11zm-9 0a3.91 3.91 0 1 1 3.91 3.91 3.92 3.92 0 0 1-3.91-3.91z"/><circle class="cls-3" cx="275.65" cy="90.14" r="4.51"/><path class="cls-1" d="M280.77 90.14a5.11 5.11 0 1 1-5.12-5.14 5.12 5.12 0 0 1 5.11 5.11zm-9 0a3.91 3.91 0 1 0 3.91-3.91 3.92 3.92 0 0 0-3.91 3.91z"/><path class="cls-2" d="M252.16 114.92c1.44-3.89 5.13-7 13-8.39a12 12 0 0 0 10.52-12"/><circle class="cls-3" cx="252.27" cy="114.68" r="4.51" transform="rotate(-80.03 252.275 114.68)"/><path class="cls-1" d="M257.3 115.56a5.11 5.11 0 1 0-5.92 4.15 5.12 5.12 0 0 0 5.92-4.15zm-8.89-1.56a3.91 3.91 0 1 1 3.18 4.53 3.92 3.92 0 0 1-3.18-4.53z"/><path class="cls-4" d="M1.19 87.58A1.18 1.18 0 0 0 0 88.75v8a1.18 1.18 0 0 0 1.19 1.17 1.18 1.18 0 0 0 1.19-1.17v-8a1.18 1.18 0 0 0-1.19-1.17zm5.93-15.24a1.18 1.18 0 0 0-1.19 1.17v34a1.19 1.19 0 0 0 2.39 0v-34a1.18 1.18 0 0 0-1.2-1.17zm6.18 8.03a1.18 1.18 0 0 0-1.19 1.17v15.21a1.19 1.19 0 0 0 2.39 0V81.54a1.18 1.18 0 0 0-1.2-1.17zm6.57 3.87a1.18 1.18 0 0 0-1.19 1.17v11.34a1.19 1.19 0 0 0 2.39 0V85.41a1.18 1.18 0 0 0-1.2-1.17zm6.36-4.56A1.18 1.18 0 0 0 25 80.86v15.9a1.19 1.19 0 0 0 2.39 0v-15.9a1.18 1.18 0 0 0-1.16-1.18z"/><path class="cls-1" d="M97.37 60.53h2.46a.62.62 0 1 1 0 1.24h-2.46a.62.62 0 1 1 0-1.24zm5.71 0h2.46a.62.62 0 1 1 0 1.24h-2.46a.62.62 0 1 1 0-1.24zm5.7 0h2.46a.62.62 0 1 1 0 1.24h-2.46a.62.62 0 1 1 0-1.24zm-11.41 3.81h2.46a.62.62 0 1 1 0 1.24h-2.46a.62.62 0 1 1 0-1.24zm5.71 0h2.46a.62.62 0 1 1 0 1.24h-2.46a.62.62 0 1 1 0-1.24zm5.7 0h2.46a.62.62 0 1 1 0 1.24h-2.46a.62.62 0 1 1 0-1.24zM97.37 48.67h2.46a.62.62 0 1 1 0 1.24h-2.46a.62.62 0 1 1 0-1.24zm5.71 0h2.46a.62.62 0 1 1 0 1.24h-2.46a.62.62 0 1 1 0-1.24zm5.7 0h2.46a.62.62 0 1 1 0 1.24h-2.46a.62.62 0 1 1 0-1.24zm-11.41 3.81h2.46a.62.62 0 1 1 0 1.24h-2.46a.62.62 0 1 1 0-1.24zm5.71 0h2.46a.62.62 0 1 1 0 1.24h-2.46a.62.62 0 1 1 0-1.24zm5.7 0h2.46a.62.62 0 1 1 0 1.24h-2.46a.62.62 0 1 1 0-1.24zm-11.41 3.7h2.46a.62.62 0 1 1 0 1.24h-2.46a.62.62 0 1 1 0-1.24zm5.71 0h2.46a.62.62 0 1 1 0 1.24h-2.46a.62.62 0 1 1 0-1.24zm5.7 0h2.46a.62.62 0 1 1 0 1.24h-2.46a.62.62 0 1 1 0-1.24zm-39.3.94a2.1 2.1 0 0 0 4.09.61h15.35a.61.61 0 1 0 0-1.21H73.57a2.1 2.1 0 0 0-4.09.61zm1.23 0a.86.86 0 1 1 .86.85.86.86 0 0 1-.86-.85z"/><path class="cls-1" d="M88 57.73v10.72a6 6 0 0 0 6 5.93h15.48l4.36 3.08a.62.62 0 0 0 .36.11.63.63 0 0 0 .28-.07.6.6 0 0 0 .34-.54v-2.58a6 6 0 0 0 5.84-5.93v-23a6 6 0 0 0-6-5.93H94a6 6 0 0 0-6 5.93v12.28zm1.19-12.33A4.77 4.77 0 0 1 94 40.68h20.62a4.77 4.77 0 0 1 4.81 4.72v23a4.77 4.77 0 0 1-4.81 4.72h-.41a.61.61 0 0 0-.62.61v2L110 73.28a.63.63 0 0 0-.36-.11H94a4.77 4.77 0 0 1-4.81-4.72zM127 105.77l4.87-9.69a.94.94 0 0 0-.55-1.22l-9.42-4.56a1 1 0 0 0-1.32.32l-4.87 9.69a.94.94 0 0 0 .55 1.22l9.42 4.56a1 1 0 0 0 1.32-.32zm-1.08-.44l-9.08-4.39a.37.37 0 0 1-.22-.48l4.66-9.14a.39.39 0 0 1 .52-.13l9.08 4.39a.37.37 0 0 1 .22.48l-4.66 9.14a.39.39 0 0 1-.44.14z"/><path class="cls-5" d="M114.46 98.09l3.6-7.15c.16-.31-.13-.77-.65-1l-29-14.32c-.51-.25-1.06-.2-1.22.12l-3.6 7.15c-.16.31.13.77.65 1l29 14.32c.52.25 1.06.2 1.22-.12zm13.37-7.23c3.06 1.37 5.87 1.78 6.28.9s-1.74-2.7-4.8-4.07-5.87-1.78-6.28-.9 1.74 2.69 4.8 4.07zm32.92 29.27l3.6-7.15c.16-.31-.13-.77-.65-1l-29-14.32c-.51-.25-1.06-.2-1.22.12l-3.6 7.15c-.16.31.13.77.65 1l29 14.32c.47.24 1.06.19 1.22-.12z"/><path class="cls-6" d="M125.69 77.24s8.22-3.14 13.54 6.07M126 80.25a10 10 0 0 1 10.63 5.3m-10.27-2.09a7.38 7.38 0 0 1 8.07 4.08"/><path class="cls-1" d="M168.11 43.6h2.72v2.67a.68.68 0 0 0 1.36 0V43.6h2.72a.67.67 0 1 0 0-1.34h-2.71v-2.67a.68.68 0 0 0-1.36 0v2.67h-2.72a.67.67 0 1 0 0 1.34zm-16.82 13.27H154v2.67a.68.68 0 0 0 1.36 0v-2.67h2.72a.67.67 0 1 0 0-1.34h-2.72v-2.67a.68.68 0 0 0-1.36 0v2.67h-2.72a.67.67 0 1 0 0 1.34zm-22.44-11.09h2.72v2.67a.68.68 0 0 0 1.36 0v-2.67h2.72a.67.67 0 1 0 0-1.34h-2.72v-2.67a.68.68 0 0 0-1.36 0v2.67h-2.72a.67.67 0 1 0 0 1.34zm13.54-13.29h2.72v2.67a.68.68 0 0 0 1.36 0v-2.67h2.72a.67.67 0 1 0 0-1.34h-2.72v-2.66a.68.68 0 0 0-1.36 0v2.67h-2.72a.67.67 0 1 0 0 1.34zM131 65.56h2.72v2.67a.68.68 0 0 0 1.36 0v-2.67h2.72a.67.67 0 1 0 0-1.34h-2.72v-2.67a.68.68 0 0 0-1.36 0v2.67H131a.67.67 0 1 0 0 1.34z"/></g></g></svg>