<svg xmlns="http://www.w3.org/2000/svg" viewBox="0 0 490.45 83.07"><defs><style>.cls-1{fill:#231f20}.cls-2{fill:none;stroke:#6a1e74;stroke-miterlimit:10}.cls-3{fill:#6a1e74}</style></defs><title>startup_submit_steps</title><g id="Layer_2" data-name="Layer 2"><g id="Layer_1-2" data-name="Layer 1"><path class="cls-1" d="M51.84 54.91a3.87 3.87 0 0 1 2.73 1.2l-1.15 1.29a2.17 2.17 0 0 0-1.55-.69c-1.29 0-2.29 1.12-2.29 3s.89 3 2.23 3a2.26 2.26 0 0 0 1.75-.82l1.14 1.26a3.76 3.76 0 0 1-2.92 1.36c-2.39 0-4.34-1.62-4.34-4.72s2.02-4.88 4.4-4.88zm4.24.17h2.09v3.55h3.18v-3.55h2.08v9.21h-2.08v-3.84h-3.18v3.84h-2.09zm9.5 0h5.78v1.75h-3.69v1.85h3.14v1.74h-3.14v2.12h3.83v1.75h-5.92zm11.67-.17a3.87 3.87 0 0 1 2.75 1.2l-1.16 1.29a2.17 2.17 0 0 0-1.55-.69c-1.29 0-2.29 1.12-2.29 3s.89 3 2.23 3a2.26 2.26 0 0 0 1.77-.86l1.14 1.26a3.76 3.76 0 0 1-2.92 1.36c-2.39 0-4.34-1.62-4.34-4.72s2-4.84 4.37-4.84zm4.25.17h2.09v3.77l2.76-3.77h2.27l-2.78 3.67 3.31 5.54h-2.26l-2.23-3.89-1.07 1.41v2.47H81.5zM47.88 72.75h5.78v1.75H50v1.85h3.14v1.74H50v2.12h3.8V82h-5.92zm7.72 0h2.09v7.46h3.63V82H55.6zm7.29 0H65V82h-2.11zm8.34-.17a4 4 0 0 1 2.87 1.2L73 75.07a2.26 2.26 0 0 0-1.7-.69c-1.41 0-2.43 1.12-2.43 3s.86 3 2.6 3a1.62 1.62 0 0 0 1-.28v-1.63h-1.59v-1.7h3.38V81a4.87 4.87 0 0 1-3.09 1.12c-2.49 0-4.46-1.62-4.46-4.72a4.47 4.47 0 0 1 4.52-4.82zm4.89.17h2.09V82h-2.09zm4.25 0h3.15c1.92 0 3.41.52 3.41 2.29a2 2 0 0 1-1.55 2v.06c1.31.24 2 .93 2 2.16 0 1.88-1.58 2.71-3.59 2.71h-3.42zm3.05 3.72c1 0 1.47-.44 1.47-1.13s-.48-1-1.44-1h-1v2.1zm.2 3.89c1.13 0 1.72-.42 1.72-1.26s-.58-1.16-1.72-1.16h-1.16v2.42zm5.28-7.61H91V82h-2.1zm4.24 0h2.09v7.46h3.63V82h-5.72zm7.3 0h2.09V82h-2.09zm6.05 1.75h-2.54v-1.75h7.15v1.75h-2.53V82h-2.08z"/><path class="cls-1" d="M113.85 78.69l-2.77-5.93h2.22l.83 2.12c.24.69.48 1.33.75 2h.06c.25-.71.52-1.34.78-2l.82-2.12h2.18l-2.78 5.93V82h-2.08zm73.71-15.9l-1.77-3.32h-1.13v3.32h-2.09v-9.22h3.32c1.95 0 3.56.68 3.56 2.87a2.71 2.71 0 0 1-1.64 2.66l2.08 3.69zm-2.9-5h1.06c1.09 0 1.68-.47 1.68-1.37s-.59-1.22-1.68-1.22h-1.06zm6.61-4.22H197v1.75h-3.69v1.85h3.14v1.74h-3.14V61h3.83v1.75h-5.92zm12.05 7.03h-2.82l-.57 2.19h-2.12l2.9-9.21h2.49l2.9 9.21h-2.2zm-.42-1.6l-.23-.85c-.25-.92-.49-2-.75-3h-.06c-.21 1-.47 2-.72 3l-.23.85zm4.16-5.43h2.6c2.83 0 4.63 1.4 4.63 4.56s-1.81 4.65-4.51 4.65h-2.73zm2.49 7.53c1.55 0 2.61-.76 2.61-3s-1.06-2.88-2.61-2.88h-.4v5.88zm-21.99 19.36l-1.77-3.32h-1.13v3.32h-2.09v-9.22h3.32c1.95 0 3.56.68 3.56 2.87a2.71 2.71 0 0 1-1.64 2.66l2.08 3.69zm-2.9-5h1.06c1.09 0 1.68-.47 1.68-1.37s-.59-1.21-1.68-1.21h-1.06zm6.61-4.22H197V73h-3.69v1.85h3.14v1.74h-3.14v2.11h3.83v1.75h-5.92zm7.28 4.57c0-3 1.71-4.73 4.18-4.73s4.18 1.74 4.18 4.73-1.7 4.82-4.18 4.82-4.18-1.81-4.18-4.82zm6.23 0c0-1.84-.79-2.94-2-2.94s-2 1.1-2 2.94.81 3 2 3 2-1.15 2-3zm3.86-4.57h2.09v9.21h-2.09zm80.71-8.35l-1.77-3.32h-1.13v3.32h-2.09v-9.21h3.32c1.95 0 3.56.68 3.56 2.87a2.71 2.71 0 0 1-1.64 2.66l2.08 3.69zm-2.9-5h1.06c1.09 0 1.68-.47 1.68-1.37s-.59-1.21-1.68-1.21h-1.06zm6.6-4.21h5.78v1.75h-3.69v1.85h3.14V59h-3.14v2.12H299v1.75h-5.92zm12.06 7.02h-2.83l-.57 2.19h-2.11l2.9-9.21h2.5l2.9 9.21h-2.2zm-.42-1.62l-.23-.85c-.25-.92-.49-2-.75-3h-.06c-.21 1-.47 2-.72 3l-.23.85zm4.15-5.4h2.6c2.83 0 4.63 1.4 4.63 4.56s-1.81 4.65-4.51 4.65h-2.73zm2.49 7.53c1.55 0 2.61-.76 2.61-3s-1.06-2.88-2.61-2.88h-.4v5.85zm-26.97 10.14h5.82v1.75h-3.73v2.13h3.18V77h-3.18v3.57h-2.09zm11.18 7.02h-2.83l-.57 2.19H290l2.9-9.21h2.49l2.9 9.21h-2.2zm-.42-1.62l-.23-.85c-.25-.92-.49-2-.75-3h-.06c-.21 1-.47 2-.72 3l-.23.85zm12.38 6.03a3.87 3.87 0 0 1-1.62.3 4.17 4.17 0 0 1-4-2.44c-2-.41-3.24-2.12-3.24-4.72 0-3 1.7-4.73 4.18-4.73s4.18 1.73 4.18 4.72c0 2.47-1.14 4.14-2.92 4.65a2.36 2.36 0 0 0 2 .86 3 3 0 0 0 1-.17zm-4.66-3.84c1.26 0 2-1.17 2-3s-.79-2.94-2-2.94-2 1.1-2 2.94.74 2.99 1.99 2.99zm70.02-9.21a3.66 3.66 0 0 0 2.26 1c.86 0 1.29-.34 1.29-.89s-.52-.76-1.33-1.1l-1.19-.51a2.68 2.68 0 0 1-1.89-2.56c0-1.53 1.37-2.74 3.28-2.74a4.26 4.26 0 0 1 3 1.21l-1 1.31a3 3 0 0 0-1.92-.73c-.71 0-1.17.31-1.17.83s.61.76 1.41 1.09l1.17.48a2.54 2.54 0 0 1 1.82 2.5c0 1.53-1.27 2.85-3.46 2.85a5.11 5.11 0 0 1-3.42-1.33zM380 63.1h2.08v5.16c0 1.81.57 2.43 1.6 2.43s1.64-.62 1.64-2.43V63.1h2V68c0 3.09-1.26 4.44-3.65 4.44S380 71.14 380 68zm9.46 0h3.15c1.92 0 3.41.52 3.41 2.29a2 2 0 0 1-1.55 2v.06c1.31.24 2 .93 2 2.16 0 1.88-1.58 2.71-3.59 2.71h-3.42zm3.05 3.72c1 0 1.47-.44 1.47-1.13s-.48-1-1.44-1h-1v2.1zm.2 3.89c1.13 0 1.72-.42 1.72-1.26s-.58-1.16-1.72-1.16h-1.16v2.41zM398 63.1h2.2l1.54 4.14.55 1.61h.06l.55-1.61 1.5-4.14h2.2v9.21h-2v-3.37c0-.9.17-2.25.27-3.14h-.06l-.75 2.13-1.43 3.58h-.83l-1.41-3.58-.74-2.13h-.06c.1.89.27 2.23.27 3.14v3.38H398zm10.75 0h2.09v9.21h-2.09zm6.05 1.75h-2.54V63.1h7.15v1.75h-2.53v7.46h-2.08z"/><path class="cls-2" d="M132.77 66.43h19.17"/><path class="cls-3" d="M149.96 69.33l10.83-2.9-10.83-2.91v5.81z"/><path class="cls-2" d="M227.03 66.8h19.17"/><path class="cls-3" d="M244.21 69.71l10.85-2.91-10.85-2.9v5.81z"/><path class="cls-2" d="M329.22 66.8h19.17"/><path class="cls-3" d="M346.41 69.71l10.84-2.91-10.84-2.9v5.81zM450.87 30.4a5.28 5.28 0 0 0 3.72 6.46 5.27 5.27 0 0 0 5.94-7.72c-.08-.14-.16-.26-.26-.4a5.27 5.27 0 0 0-9.39 1.66zm9 2.41a4 4 0 0 1-7.86-.93l7.51-2a4 4 0 0 1 .3 2.93zm-3.87-5a4 4 0 0 1 2.66 1l-6.46 1.74a4 4 0 0 1 3.8-2.78z"/><path class="cls-3" d="M469.54 26.28c.66-3 .15-5.54-1.42-7.11S464 17.09 461 17.75a15.14 15.14 0 0 0-7.21 3.87L443.06 32.3l-11.38 4.12a1.82 1.82 0 0 0-.67 3l2.43 2.43-.89.89a2.42 2.42 0 0 0 0 3.42l8.56 8.56a2.4 2.4 0 0 0 1.71.71 2.4 2.4 0 0 0 1.71-.71l.89-.89 2.52 2.52a1.81 1.81 0 0 0 1.29.53 1.84 1.84 0 0 0 .4 0 1.81 1.81 0 0 0 1.32-1.16L455.17 44l10.5-10.56a15.13 15.13 0 0 0 3.87-7.16zm-8.22-7.09a10 10 0 0 1 2.12-.24 5 5 0 0 1 3.64 1.26c1.19 1.19 1.56 3.29 1 5.76a13.9 13.9 0 0 1-2.18 4.92l-9.52-9.52a13.91 13.91 0 0 1 4.94-2.18zm-29.26 19.2a.35.35 0 0 1 .13-.58l8.4-3-6.09 6.06zm11.44 15.3a.94.94 0 0 1-.67.28.94.94 0 0 1-.67-.28l-8.56-8.56a.94.94 0 0 1 0-1.34l.89-.89 9.89 9.89zm6.07 1.49a.34.34 0 0 1-.25.22.35.35 0 0 1-.32-.09l-2.52-2.52 6.24-6.27zm15.06-22.73l-19.2 19.3-9.89-9.89 19.3-19.2c.13-.13.27-.25.4-.37L465 32c-.12.18-.25.32-.37.45zM433.75 59.5a4.39 4.39 0 0 0 1.07-.77 4.44 4.44 0 1 0-6.28-6.28 4.38 4.38 0 0 0-.77 1.07v.08l-3.11 8.1a.74.74 0 0 0 1 1l8.1-3.11zm-7.16 1.18l2.5-6.51a2.85 2.85 0 0 1 .49-.68 3 3 0 0 1 4.19 4.19 2.85 2.85 0 0 1-.68.49z"/><path class="cls-3" d="M448.51 35.57a3.22 3.22 0 1 0 2.27.94 3.19 3.19 0 0 0-2.27-.94zm1.23 4.43a1.78 1.78 0 0 1-2.47 0 1.74 1.74 0 1 1 2.47 0zm-7.96-14.85a.74.74 0 0 0 1 0L451 17a.74.74 0 0 0-1-1l-8.16 8.16a.74.74 0 0 0-.06.99zm-5.66-20h2.94v2.94a.74.74 0 1 0 1.47 0V5.15h2.94a.74.74 0 1 0 0-1.47h-2.94V.74a.74.74 0 1 0-1.47 0v2.94h-2.94a.74.74 0 0 0 0 1.47zm30.83 0h2.94v2.94a.74.74 0 1 0 1.47 0V5.15h2.94a.74.74 0 0 0 0-1.47h-2.94V.74a.74.74 0 1 0-1.47 0v2.94h-2.94a.74.74 0 1 0 0 1.47zm15.41 18.26h2.94v2.94a.74.74 0 1 0 1.47 0v-2.94h2.94a.74.74 0 0 0 0-1.47h-2.94V19a.74.74 0 1 0-1.47 0v2.94h-2.94a.74.74 0 0 0 0 1.47zm-29.19 10.23a3.95 3.95 0 0 0 5.58 0 .74.74 0 0 0-1-1 2.48 2.48 0 0 1-3.5 0 .74.74 0 0 0-1 1zM43.13 36.5h2.94v2.94a.74.74 0 0 0 1.47 0V36.5h2.94a.74.74 0 0 0 0-1.47h-2.94v-2.94a.74.74 0 1 0-1.47 0V35h-2.94a.74.74 0 0 0 0 1.47zM25 51.11h2.94v2.94a.74.74 0 0 0 1.47 0v-2.94h2.94a.74.74 0 0 0 0-1.47h-2.97V46.7a.74.74 0 0 0-1.47 0v2.94H25a.74.74 0 1 0 0 1.47zM.74 38.9h2.94v2.94a.74.74 0 0 0 1.47 0V38.9h2.94a.74.74 0 0 0 0-1.47H5.15v-2.95a.74.74 0 0 0-1.47 0v2.94H.74a.74.74 0 0 0 0 1.47zm14.62-14.62h2.94v2.94a.74.74 0 0 0 1.47 0v-2.94h2.94a.74.74 0 0 0 0-1.47h-2.94v-2.95a.74.74 0 0 0-1.47 0v2.94h-2.94a.74.74 0 0 0 0 1.47zm-.92 53.62h2.94v2.94a.74.74 0 1 0 1.47 0V77.9h2.95a.74.74 0 1 0 0-1.47h-2.94v-2.94a.74.74 0 0 0-1.47 0v2.94h-2.95a.74.74 0 1 0 0 1.47z"/></g></g></svg>