<svg xmlns="http://www.w3.org/2000/svg" viewBox="0 0 96.34 76.58" id="svg13055"><defs id="defs12941"><style id="style12939">.cls-1{fill:#70c168}.cls-2{fill:none}.cls-3{fill:#55bb6e}.cls-4{fill:#fff}</style></defs><title id="title12943">Step_2</title><path class="cls-1" transform="rotate(-14.03)" id="rect12945" fill="#70c168" d="M31.243 70.693h25.81v3.86h-25.81z"/><path class="cls-1" transform="rotate(-75.96)" id="rect12947" fill="#70c168" d="M-45.227 20.012h3.86v25.81h-3.86z"/><path class="cls-1" transform="rotate(-75.96)" id="rect12949" fill="#70c168" d="M-54.691 22.378h3.86v25.81h-3.86z"/><path class="cls-2" d="M63.42 37.51l-16 4 .65 2.61h.43a20.06 20.06 0 0 0 14.92-6.61z" id="path12951" fill="none"/><path class="cls-2" d="M71.84 39.38l1.6-.4-.94-3.74-3.22.76c-.09.16-.2.32-.3.48z" id="path12953" fill="none"/><path class="cls-2" d="M48.39 25.73l20-5a19.81 19.81 0 0 0-1-3.72L47.46 22z" id="path12955" fill="none"/><path class="cls-2" d="M34.41 31.74l-4.91-1.23A20.05 20.05 0 0 0 31.74 35l1.74.44z" id="path12957" fill="none"/><path class="cls-2" d="M47.46 31.74l.94 3.74 19.1-4.77a19.94 19.94 0 0 0 1-4.23z" id="path12959" fill="none"/><path class="cls-2" d="M28.43 24.46l5.05 1.26.93-3.72-5.7-1.43a19.75 19.75 0 0 0-.3 3.44c0 .14.01.29.02.45z" id="path12961" fill="none"/><path class="cls-2" d="M39 41.73a20 20 0 0 0 3.86 1.58V17.56l21.89-5.46a20.28 20.28 0 0 0-3-3.24L41 14.07l-8.5-2.13a20.13 20.13 0 0 0-2.09 3.46L39 17.56z" id="path12963" fill="none"/><path class="cls-2" d="M48.39 55l-.94-3.74 16.36-4.09-2.73-2.73a23.91 23.91 0 0 1-18.2 2.87v24.81l35.17-8.79V61.4L67 50.35z" id="path12965" fill="none"/><path class="cls-2" id="polygon12967" fill="none" d="M72.09 45.1l-3.91.98 3.18 3.18 2.07-.52-.77-3.07z"/><path class="cls-2" d="M73.43 19.47l-1.28.32a23.9 23.9 0 0 1 .39 4.2c0 .5 0 1-.05 1.49l.94 3.74-1.57.39A23.83 23.83 0 0 1 69.28 36l3.22-.81.93 3.81-1.6.4 6.21 6.21V8.77l-9.29 2.32a24 24 0 0 1 2.41 5l1.33-.33z" id="path12969" fill="none"/><path class="cls-1" d="M73.43 19.47l-.94-3.74-1.33.33a23.76 23.76 0 0 1 1 3.73z" id="path12971" fill="#70c168"/><path class="cls-1" d="M73.43 29.23l-.94-3.74a23.88 23.88 0 0 1-.62 4.13z" id="path12973" fill="#70c168"/><path class="cls-2" d="M33.48 25.72l-5.05-1.26a20 20 0 0 0 1.08 6l4.91 1.23-.94 3.74-1.74-.43A20.28 20.28 0 0 0 39 41.73V17.56l-8.64-2.16a20.21 20.21 0 0 0-1.65 5.16l5.7 1.44z" id="path12975" fill="none"/><path class="cls-2" d="M61.78 8.86a20 20 0 0 0-29.33 3.08L41 14.07z" id="path12977" fill="none"/><path class="cls-2" d="M42.88 43.3a20.11 20.11 0 0 0 5.23.81l-.65-2.61 16-4a20.13 20.13 0 0 0 4.08-6.8l-19.15 4.79-.94-3.74 21-5.26a20.18 20.18 0 0 0 .23-2.49 20 20 0 0 0-.27-3.27l-20 5-.95-3.73 19.94-5a20.29 20.29 0 0 0-2.65-4.91l-21.87 5.47z" id="path12979" fill="none"/><path class="cls-2" d="M33.48 45.24L8.44 39l.94-3.74 22 5.51a24.06 24.06 0 0 1-4.75-7L8.44 29.22l.94-3.74 15.8 3.95a24 24 0 0 1-.63-5.43v-.5l-16.12-4 .94-3.74L25 19.62a23.87 23.87 0 0 1 1.58-5.18L3.86 8.77v54.56L39 72.12V46a24 24 0 0 1-5-3z" id="path12981" fill="none"/><path class="cls-1" d="M8.44 19.46l16.12 4a23.9 23.9 0 0 1 .4-3.88L9.38 15.72z" id="path12983" fill="#70c168"/><path class="cls-1" d="M9.38 25.48l-.94 3.74 18.21 4.55a23.76 23.76 0 0 1-1.48-4.35z" id="path12985" fill="#70c168"/><path class="cls-1" d="M8.44 39l25 6.26.56-2.2a24.17 24.17 0 0 1-2.62-2.32l-22-5.51z" id="path12987" fill="#70c168"/><path class="cls-1" d="M78.05 8.77V45.6l3.86 3.86V3.83L66.19 7.76a24.14 24.14 0 0 1 2.57 3.34z" id="path12989" fill="#70c168"/><path class="cls-1" d="M78.05 63.33l-35.17 8.79V47.3A23.79 23.79 0 0 1 39 46v26.12L3.86 63.33V8.77l22.68 5.67a24 24 0 0 1 1.89-3.5L0 3.83v62.51l41 10.24 41-10.24v-1.08l-3.95-3.86z" id="path12991" fill="#70c168"/><path class="cls-3" d="M61.08 44.44l-1.28-1.28 1-1-12.41 3.08-.28-1.13A20.05 20.05 0 0 1 31.74 35l-5.08-1.27a24.06 24.06 0 0 0 4.75 7l3 .75-.41 1.58a23.89 23.89 0 0 0 27.06 1.38z" id="path12993" fill="#70c168"/><path class="cls-3" d="M25 19.62l3.75.94A20.12 20.12 0 0 1 67.4 17l3.77-.94A24 24 0 0 0 25 19.62z" id="path12995" fill="#70c168"/><path class="cls-3" d="M72.54 24a23.9 23.9 0 0 0-.39-4.2l-3.74.94a20 20 0 0 1 .27 3.26 20.18 20.18 0 0 1-.17 2.49l4-1c.01-.49.03-1 .03-1.49z" id="path12997" fill="#70c168"/><path class="cls-3" d="M28.43 24.46l-3.86-1v.5a24 24 0 0 0 .62 5.43l4.33 1.08a20 20 0 0 1-1.09-6.01z" id="path12999" fill="#70c168"/><path class="cls-3" d="M67.71 35.25l.95.95.62-.16a23.83 23.83 0 0 0 2.59-6.43l-4.37 1.1a20.13 20.13 0 0 1-4.08 6.8l2.71-.68z" id="path13001" fill="#70c168"/><path class="cls-3" d="M72.15 19.79a23.76 23.76 0 0 0-1-3.73L67.4 17a19.81 19.81 0 0 1 1 3.72z" id="path13003" fill="#70c168"/><path class="cls-3" d="M72.48 25.49l-4 1a19.94 19.94 0 0 1-1 4.23l4.36-1.09a23.88 23.88 0 0 0 .64-4.14z" id="path13005" fill="#70c168"/><path class="cls-3" d="M63.42 37.51a20.06 20.06 0 0 1-14.88 6.62h-.43l.28 1.13 12.43-3.11 5.3-5.3z" id="path13007" fill="#70c168"/><path class="cls-3" d="M69 36.52c.1-.16.2-.31.3-.48l-.62.16z" id="path13009" fill="#55bb6e"/><path class="cls-3" d="M28.43 24.46v-.47a19.75 19.75 0 0 1 .3-3.44L25 19.62a23.9 23.9 0 0 0-.4 3.88z" id="path13011" fill="#70c168"/><path class="cls-3" d="M25.17 29.43a23.76 23.76 0 0 0 1.48 4.35L31.74 35a20.05 20.05 0 0 1-2.24-4.54z" id="path13013" fill="#70c168"/><path class="cls-3" d="M34.41 41.49l-3-.75A24.17 24.17 0 0 0 34 43.06z" id="path13015" fill="#55bb6e"/><path class="cls-2" id="polygon13017" fill="none" d="M67.71 40.71l-2.45 2.45 2.92 2.92 3.91-.98z"/><path class="cls-2" d="M89.53 67.42A1.73 1.73 0 1 0 92 65L81.91 54.91v4.89z" id="path13019" fill="none"/><path class="cls-2" id="polygon13021" fill="none" d="M78.05 51.05l-5.39-5.38.77 3.07-2.07.52 6.69 6.69z"/><path class="cls-1" id="polygon13023" fill="#70c168" d="M47.46 51.26L48.4 55 67 50.35l-3.19-3.18z"/><path class="cls-3" d="M65.48 41l6.36-1.59L69 36.52A24.1 24.1 0 0 1 65.48 41z" id="path13025" fill="#70c168"/><path class="cls-3" d="M94.7 62.25L81.91 49.46v5.46L92 65a1.732 1.732 0 1 1-2.45 2.45l-7.64-7.65v5.46l4.89 4.89a5.59 5.59 0 0 0 7.9-7.9z" id="path13027" fill="#70c168"/><path class="cls-3" id="polygon13029" fill="#70c168" d="M67 50.35L78.05 61.4v-5.45l-6.69-6.69z"/><path class="cls-3" d="M65.48 41a24.16 24.16 0 0 1-4.39 3.46l2.73 2.73 4.37-1.09-2.92-2.92 2.45-2.45 4.39 4.39.4-.1.17.67 5.39 5.39V45.6l-6.21-6.21z" id="path13031" fill="#70c168"/><path class="cls-3" id="polygon13033" fill="#70c168" d="M78.05 55.95v5.45l3.86 3.86V59.8z"/><path class="cls-3" id="polygon13035" fill="#70c168" d="M78.05 51.05l3.86 3.86v-5.45l-3.86-3.86z"/><path class="cls-3" d="M60.83 42.13l-1 1 1.28 1.28A24.16 24.16 0 0 0 65.48 41z" id="path13037" fill="#70c168"/><path class="cls-3" id="polygon13039" fill="#70c168" d="M68.66 36.2l-.95-.95-1.58 1.58z"/><path class="cls-3" d="M69 36.52l-.32-.32-2.52.63-5.3 5.3L65.48 41A24.1 24.1 0 0 0 69 36.52z" id="path13041" fill="#70c168"/><path class="cls-3" id="polygon13043" fill="#70c168" d="M63.81 47.17L67 50.35l4.36-1.09-3.18-3.18z"/><path class="cls-3" id="polygon13045" fill="#55bb6e" d="M72.66 45.67L72.5 45l-.41.1z"/><path class="cls-1" d="M48.32 39.12a15.18 15.18 0 0 1-14.67-11.43l3.74-1a11.31 11.31 0 0 0 13.75 8.21l1 3.74a15.28 15.28 0 0 1-3.82.48z" id="path13047" fill="#70c168"/><path class="cls-4" id="line13049" fill="#fff" d="M73.35 43.63l-5.17 5.17"/><path class="cls-3" transform="rotate(-45)" id="rect13051" fill="#70c168" d="M13.709 80.781h7.32v3.86h-7.32z"/></svg>