<svg id="Layer_1" data-name="Layer 1" xmlns="http://www.w3.org/2000/svg" viewBox="0 0 109.47 106.51"><defs><style>.cls-1{fill:none;stroke:#6c6;stroke-miterlimit:10;stroke-width:3.86px}</style></defs><title>Step 4</title><path class="cls-1" d="M1769.58 1477.88l36-36s11.76-10.34 11.76-30.3c-20 0-30.3 11.76-30.3 11.76l-36 36z" transform="translate(-1709.8 -1409.66)"/><circle class="cls-1" cx="1798.43" cy="1430.49" r="5.28" transform="rotate(-45 -758.07 2789.573)"/><path class="cls-1" d="M41.24 49.69l-14.08.9 25.11-25.12h13.17m-5.65 42.77l-.89 14.08 25.11-25.11V44.05m-8.72-9.87L39.8 69.67"/><path class="cls-1" d="M1753.74 1462s-10.74.82-13.53 10.45a13.74 13.74 0 0 0 10.26-2.14s-15.19 7.68-16.78 23.69c0 0 15.31 0 23-12.72 0 0-5.62 6.61-4.77 12.4 0 0 14.94-4.46 14.94-18.61" transform="translate(-1709.8 -1409.66)"/><path class="cls-1" d="M34.19 91.09l-14.06 14.06M16.07 89.4L1.36 104.1m2.11-19.75L19.6 68.23"/></svg>