<svg xmlns="http://www.w3.org/2000/svg" viewBox="0 0 88.44 91.44" id="svg10282"><defs id="defs10234"><style id="style10232">.cls-1{fill:#70c168}.cls-2{fill:none}.cls-3{fill:#55bb6e}</style></defs><title id="title10236">steps_1</title><g id="Layer_2" data-name="Layer 2"><path id="path10238" d="M46.11 49.5a16.28 16.28 0 1 1 16.28-16.28A16.3 16.3 0 0 1 46.11 49.5zm0-28.7a12.42 12.42 0 1 0 12.42 12.42 12.43 12.43 0 0 0-12.42-12.41z" class="cls-1" fill="#70c168"/><path id="path10240" d="M70.45 64.73a24.28 24.28 0 0 0-2.7-11.1h-.15a17 17 0 0 0-17 17v.08h19.85z" class="cls-2" fill="none"/><path id="path10242" d="M74.3 74.54H51.1a17 17 0 1 0 21.18-20.25 28.1 28.1 0 0 1 2 10.44z" class="cls-2" fill="none"/><path id="path10244" d="M21.77 70.68v-6a24.39 24.39 0 0 1 14.37-22.16L34.56 39a28.25 28.25 0 0 0-16.65 25.73v9.82h29.23a20.84 20.84 0 0 1-.38-3.86z" class="cls-1" fill="#70c168"/><path id="path10246" d="M70.08 49.92A28.19 28.19 0 0 0 57.66 39l-1.58 3.52a24.31 24.31 0 0 1 9.3 7.36 19.63 19.63 0 0 1 4.7 0z" class="cls-1" fill="#70c168"/><path id="path10248" d="M50.62 70.6a17 17 0 0 1 17-17h.14a24.45 24.45 0 0 0-2.37-3.74A20.87 20.87 0 0 0 46.76 70.6v.08h3.86v-.08z" class="cls-3" fill="#70c168"/><path id="path10250" d="M70.08 49.92a28.3 28.3 0 0 1 2.2 4.37A17 17 0 1 1 51.1 74.54h-4a20.84 20.84 0 1 0 22.98-24.62z" class="cls-3" fill="#70c168"/><path id="path10252" d="M50.62 70.68h-3.86a20.84 20.84 0 0 0 .38 3.86h4a16.92 16.92 0 0 1-.52-3.86z" class="cls-3" fill="#70c168"/><path id="path10254" d="M72.28 54.29a28.3 28.3 0 0 0-2.2-4.37 19.63 19.63 0 0 0-4.7 0 24.45 24.45 0 0 1 2.37 3.74 16.9 16.9 0 0 1 4.53.63z" class="cls-3" fill="#70c168"/><path id="polygon10256" class="cls-1" fill="#70c168" d="M60.16 68.78l5.09 4.69 11.28-11.29 2.73 2.73-13.9 13.9-7.82-7.19z"/><path id="rect10258" transform="rotate(-45)" class="cls-1" fill="#70c168" d="M-.211 16.616h3.86v11.28h-3.86z"/><path id="rect10260" transform="rotate(-45)" class="cls-1" fill="#70c168" d="M-3.921 20.316h11.28v3.86h-11.28z"/><path id="rect10262" transform="rotate(-45)" class="cls-1" fill="#70c168" d="M34.149 63.663h3.86v11.28h-3.86z"/><path id="rect10264" transform="rotate(-45)" class="cls-1" fill="#70c168" d="M30.439 67.359h11.28v3.86h-11.28z"/><path id="rect10266" transform="rotate(-45)" class="cls-1" fill="#70c168" d="M37.177 42.711h3.86v11.28h-3.86z"/><path id="rect10268" transform="rotate(-45)" class="cls-1" fill="#70c168" d="M33.467 46.421h11.28v3.86h-11.28z"/><path id="rect10270" transform="rotate(-45)" class="cls-1" fill="#70c168" d="M-41.057 41.043h3.86v11.28h-3.86z"/><path id="rect10272" transform="rotate(-45)" class="cls-1" fill="#70c168" d="M-44.753 44.753h11.28v3.86h-11.28z"/><path id="polygon10274" class="cls-1" fill="#70c168" d="M33.13 4.81l1.79 1.8L41.53 0l2.73 2.73-9.34 9.34-4.52-4.53z"/><path id="polygon10276" class="cls-1" fill="#70c168" d="M76.74 38.29l1.8 1.79 6.61-6.6 2.73 2.72-9.34 9.34-4.53-4.52z"/><path id="polygon10278" class="cls-1" fill="#70c168" d="M10.07 36.23l1.8 1.8 6.61-6.61 2.73 2.73-9.34 9.34-4.53-4.53z"/></g></svg>