<svg id="Layer_1" data-name="Layer 1" xmlns="http://www.w3.org/2000/svg" viewBox="0 0 76.28 57.77"><defs><style>.cls-1{fill:transparent}.cls-2{fill:#ffb100}</style></defs><title>youth_engagement</title><path class="cls-1" d="M0 0h76.28v57.77H0z"/><path class="cls-2" d="M2174.52 4796.65h-1.69a.44.44 0 0 0 0 .87h1.69a.44.44 0 0 0 0-.87zm-3.93 0h-1.69a.44.44 0 0 0 0 .87h1.69a.44.44 0 0 0 0-.87zm-3.93 0H2165a.44.44 0 0 0 0 .87h1.69a.44.44 0 0 0-.03-.87zm7.86 2.68h-1.69a.44.44 0 0 0 0 .87h1.69a.44.44 0 0 0 0-.87zm-3.93 0h-1.69a.44.44 0 0 0 0 .87h1.69a.44.44 0 1 0 0-.87zm-3.93 0H2165a.44.44 0 0 0 0 .87h1.69a.44.44 0 0 0-.03-.87zm7.86 2.6h-1.69a.44.44 0 0 0 0 .87h1.69a.44.44 0 0 0 0-.87zm-3.93 0h-1.69a.44.44 0 0 0 0 .87h1.69a.44.44 0 0 0 0-.87zm-3.93 0H2165a.44.44 0 0 0 0 .87h1.69a.44.44 0 0 0-.03-.87z" transform="translate(-2140.05 -4755.56)"/><path class="cls-2" d="M2177.38 4784.28h-.06v20.47a1.4 1.4 0 0 1-1.4 1.4h-12.34a1.4 1.4 0 0 1-1.4-1.4v-24.18a1.4 1.4 0 0 1 1.4-1.4h5.18v-.87h-2.89v-2.14a.44.44 0 1 0-.87 0v2.14h-1.42a2.27 2.27 0 0 0-2.27 2.27v24.18a2.27 2.27 0 0 0 2.27 2.27h12.34a2.27 2.27 0 0 0 2.27-2.27v-20.51h-.81z" transform="translate(-2140.05 -4755.56)"/><path class="cls-2" d="M2175.28 4793a.48.48 0 0 1-.48.48h-10.12a.48.48 0 0 1-.48-.48v-9.74a.48.48 0 0 1 .48-.48h5.4a4.71 4.71 0 0 1-.64-.87h-4.76a1.36 1.36 0 0 0-1.35 1.35v9.74a1.36 1.36 0 0 0 1.35 1.35h10.12a1.36 1.36 0 0 0 1.35-1.35v-7.8l-.87.63v7.17z" transform="translate(-2140.05 -4755.56)"/><path class="cls-2" d="M2174 4786a.44.44 0 0 1-.44-.44v-1.86a4.28 4.28 0 0 1-4.13-4.27v-6.53a4.28 4.28 0 0 1 4.27-4.27h14.57a4.28 4.28 0 0 1 4.27 4.27v6.53a4.28 4.28 0 0 1-4.27 4.27h-10.94l-3.08 2.22a.44.44 0 0 1-.25.08zm-.29-16.5a3.4 3.4 0 0 0-3.4 3.4v6.53a3.4 3.4 0 0 0 3.4 3.4h.29a.44.44 0 0 1 .44.44v1.45l2.51-1.8a.43.43 0 0 1 .25-.08h11.08a3.4 3.4 0 0 0 3.4-3.4v-6.53a3.4 3.4 0 0 0-3.4-3.4h-14.57z" transform="translate(-2140.05 -4755.56)"/><path class="cls-2" d="M2187.87 4773.33h-13.48a.44.44 0 1 1 0-.87h13.48a.44.44 0 0 1 0 .87zm0 2.21h-13.48a.44.44 0 1 1 0-.87h13.48a.44.44 0 0 1 0 .87zm0 2.21h-13.48a.44.44 0 1 1 0-.87h13.48a.44.44 0 0 1 0 .87zm-31.01 2.57l-.18-.27v-.08a4.55 4.55 0 0 0-2.56-1.79 4.59 4.59 0 1 0 3.24 5.63 4.56 4.56 0 0 0-.5-3.49zm-4-1.43a3.73 3.73 0 0 1 1 .13 3.69 3.69 0 0 1 1.67 1l-6.24 1.68a3.72 3.72 0 0 1 3.59-2.81zm3.59 4.69a3.72 3.72 0 0 1-7.31-1l6.93-1.87a3.69 3.69 0 0 1 .41 2.87zm.93 8.81a4.51 4.51 0 0 0-9 0 .43.43 0 0 0 0 .11v13.27a.44.44 0 0 0 0 .09.86.86 0 0 0 .85.77h1.77v2.84a.44.44 0 0 0 .87 0v-2.84h2.27v2.84a.44.44 0 0 0 .87 0v-2.84h1.76a.43.43 0 0 0 .39-.25.85.85 0 0 0 .25-.52.44.44 0 0 0 0-.09v-13.27a.43.43 0 0 0-.03-.11zm-4.5-3.34a3.65 3.65 0 0 1 3.64 3.64v13.07h-7.28v-13.07a3.65 3.65 0 0 1 3.65-3.64zm56.63-2.87l-1-1a4.58 4.58 0 0 0 .16-4.83l-.18-.27-.05-.08a4.55 4.55 0 0 0-2.56-1.79 4.59 4.59 0 0 0-5 7l-1 1a.44.44 0 0 0 .62.62l.92-.92a4.56 4.56 0 0 0 2 1.18 4.57 4.57 0 0 0 4.46-1.22l1 1a.44.44 0 0 0 .63-.69zm-4.85-7.28a3.73 3.73 0 0 1 1 .13 3.69 3.69 0 0 1 1.67 1l-6.24 1.68a3.72 3.72 0 0 1 3.57-2.82zm0 7.44a3.72 3.72 0 0 1-3.72-3.72l6.93-1.87a3.72 3.72 0 0 1-3.21 5.58zm-37.18-14.97a.44.44 0 0 1-.44-.44 5 5 0 0 1 5-5 .44.44 0 0 1 0 .87 4.1 4.1 0 0 0-4.1 4.1.44.44 0 0 1-.46.47z" transform="translate(-2140.05 -4755.56)"/><path class="cls-2" d="M2165 4771a.44.44 0 0 1-.44-.44 7 7 0 0 1 7-7 .44.44 0 0 1 0 .87 6.17 6.17 0 0 0-6.16 6.16.44.44 0 0 1-.4.41zm44.62 35.07l-.44-1.49v-12.08a.43.43 0 0 0 0-.11 4.51 4.51 0 0 0-6.93-3.5 4.62 4.62 0 0 1 .59.67 3.64 3.64 0 0 1 5.48 3.14v12.08l.3 1h-7.86l.25-1v-1.29a4.56 4.56 0 0 1-.87.3v.93l-.37 1.5a.44.44 0 0 0 .42.54h2.46v2.84a.44.44 0 0 0 .87 0v-2.84h2.27v2.84a.44.44 0 0 0 .87 0v-2.84h2.54a.44.44 0 0 0 .42-.69z" transform="translate(-2140.05 -4755.56)"/><path class="cls-2" d="M2198.63 4803.18h-14.57a4.28 4.28 0 0 1-4.27-4.27v-6.53a4.28 4.28 0 0 1 4.27-4.27h8.86l3.08-2.22a.44.44 0 0 1 .69.35v1.86h1.93a4.28 4.28 0 0 1 4.27 4.27v6.53a4.28 4.28 0 0 1-4.26 4.28zm-14.57-14.2a3.4 3.4 0 0 0-3.4 3.4v6.53a3.4 3.4 0 0 0 3.4 3.4h14.57a3.4 3.4 0 0 0 3.4-3.4v-6.53a3.4 3.4 0 0 0-3.4-3.4h-2.37a.44.44 0 0 1-.44-.44v-1.45l-2.51 1.8a.43.43 0 0 1-.25.08h-9z" transform="translate(-2140.05 -4755.56)"/><path class="cls-2" d="M2197.94 4792.79h-13.48a.44.44 0 0 1 0-.87h13.48a.44.44 0 1 1 0 .87zm0 2.21h-13.48a.44.44 0 0 1 0-.87h13.48a.44.44 0 1 1 0 .87zm0 2.21h-13.48a.44.44 0 0 1 0-.87h13.48a.44.44 0 1 1 0 .87zm-4.55 2.19h-8.94a.44.44 0 0 1 0-.87h8.94a.44.44 0 1 1 0 .87zm12.23-33.32a3.68 3.68 0 0 0-3.43 6.27l.73 1.78a.34.34 0 0 0 .31.21h2.8a.34.34 0 0 0 .31-.2l.83-1.81a3.68 3.68 0 0 0-1.55-6.25zm1.94 4.33a3 3 0 0 1-.9 1.45.34.34 0 0 0-.08.11l-.76 1.68h-.73v-1.86a.44.44 0 1 0-.87 0v1.86h-.75l-.68-1.64a.34.34 0 0 0-.09-.13 3 3 0 1 1 4.86-1.47zm-2.91-5.89a.34.34 0 0 0 .34-.34v-1.51a.34.34 0 1 0-.68 0v1.51a.34.34 0 0 0 .34.34zm.98 10.43h-1.93a.44.44 0 1 0 0 .87h1.93a.44.44 0 0 0 0-.87zm0 1.22h-1.93a.44.44 0 1 0 0 .87h1.93a.44.44 0 0 0 0-.87zm-3.93-10.9a.34.34 0 0 0 .29-.51l-.75-1.3a.34.34 0 1 0-.59.34l.75 1.3a.34.34 0 0 0 .3.17zm-2.02 1.49l-1.3-.75a.34.34 0 0 0-.34.59l1.3.75a.34.34 0 1 0 .34-.59zm8.87-3.43a.34.34 0 0 0-.46.12l-.75 1.3a.34.34 0 1 0 .59.34l.75-1.3a.34.34 0 0 0-.13-.46zm2.86 2.81a.34.34 0 0 0-.46-.12l-1.3.75a.34.34 0 0 0 .34.59l1.3-.75a.34.34 0 0 0 .12-.47z" transform="translate(-2140.05 -4755.56)"/></svg>