<?xml version="1.0" encoding="utf-8"?>
<!-- Generator: Adobe Illustrator 20.1.0, SVG Export Plug-In . SVG Version: 6.00 Build 0)  -->
<svg version="1.1" id="Layer_1" xmlns="http://www.w3.org/2000/svg" xmlns:xlink="http://www.w3.org/1999/xlink" x="0px" y="0px"
	 viewBox="0 0 31.3 31.3" style="enable-background:new 0 0 31.3 31.3;" xml:space="preserve">
<style type="text/css">
	.st0{fill:none;stroke:#51B9E9;stroke-miterlimit:10;}
	.st1{fill:#51B9E9;}
</style>
<circle class="st0" cx="15.7" cy="15.7" r="15.2"/>
<path class="st1" d="M19.6,7.3l-2.2,0c-2.4,0-4,1.6-4,4.1v1.9h-2.2c-0.2,0-0.3,0.2-0.3,0.3v2.8c0,0.2,0.2,0.3,0.3,0.3h2.2v7
	c0,0.2,0.2,0.3,0.3,0.3h2.9c0.2,0,0.3-0.2,0.3-0.3v-7h2.6c0.2,0,0.3-0.2,0.3-0.3l0-2.8c0-0.1,0-0.2-0.1-0.2
	c-0.1-0.1-0.2-0.1-0.2-0.1h-2.6v-1.6c0-0.8,0.2-1.2,1.2-1.2l1.5,0c0.2,0,0.3-0.2,0.3-0.3V7.6C19.9,7.4,19.8,7.3,19.6,7.3L19.6,7.3z
	 M19.6,7.3"/>
</svg>
