<?xml version="1.0" encoding="utf-8"?>
<!-- Generator: Adobe Illustrator 20.1.0, SVG Export Plug-In . SVG Version: 6.00 Build 0)  -->
<svg version="1.1" id="Layer_1" xmlns="http://www.w3.org/2000/svg" xmlns:xlink="http://www.w3.org/1999/xlink" x="0px" y="0px"
	 viewBox="0 0 31.3 31.3" style="enable-background:new 0 0 31.3 31.3;" xml:space="preserve">
<style type="text/css">
	.st0{fill:#51B9E9;}
	.st1{fill:none;stroke:#51B9E9;stroke-miterlimit:10;}
</style>
<path class="st0" d="M23.3,10.2c-0.6,0.4-1.3,0.7-2.1,0.8c-0.6-0.6-1.5-1-2.4-1c-1.8,0-3.3,1.5-3.3,3.3c0,0.3,0,0.5,0.1,0.8
	c-2.7-0.1-5.2-1.5-6.8-3.5c-0.3,0.5-0.4,1.1-0.4,1.7c0,1.1,0.6,2.2,1.5,2.7c-0.5,0-1.1-0.2-1.5-0.4c0,0,0,0,0,0
	c0,1.6,1.1,2.9,2.7,3.2c-0.3,0.1-0.6,0.1-0.9,0.1c-0.2,0-0.4,0-0.6-0.1c0.4,1.3,1.6,2.3,3.1,2.3c-1.1,0.9-2.6,1.4-4.1,1.4
	c-0.3,0-0.5,0-0.8,0c1.5,0.9,3.2,1.5,5.1,1.5c6.1,0,9.4-5,9.4-9.4c0-0.1,0-0.3,0-0.4c0.6-0.5,1.2-1,1.6-1.7
	c-0.6,0.3-1.2,0.4-1.9,0.5C22.5,11.6,23,11,23.3,10.2z"/>
<circle class="st1" cx="15.7" cy="15.7" r="15.2"/>
</svg>
