<svg id="Layer_1" data-name="Layer 1" xmlns="http://www.w3.org/2000/svg" viewBox="0 0 402.5 96.5"><defs><style>.cls-1{fill:#fff;}</style></defs><title>dashboard_intro</title><path class="cls-1" d="M392.47,64.68a0.65,0.65,0,0,0,.32-0.09,0.66,0.66,0,0,0,.52-0.64,0.67,0.67,0,0,0-.67-0.67H346.29a6.68,6.68,0,0,0-.4,13.34V78h-0.41a7.39,7.39,0,0,1-7.38-7.39,0.67,0.67,0,1,0-1.34,0,8.74,8.74,0,0,0,8.73,8.73h0.41v2.87a0.67,0.67,0,0,0,1.07.54l3.31-2.41,3.31,2.41a0.67,0.67,0,0,0,1.07-.54V79.37h38a0.67,0.67,0,0,0,0-1.34h-38V76.64h38a0.67,0.67,0,0,0,.67-0.67,0.66,0.66,0,0,0-.52-0.64,0.65,0.65,0,0,0-.32-0.09A5.28,5.28,0,0,1,392.47,64.68ZM353.3,80.92L350.66,79a0.67,0.67,0,0,0-.79,0l-2.64,1.92V69.1h6.06V80.92Zm32.55-11a6.61,6.61,0,0,0,2.72,5.34H354.64V72.68h30a0.67,0.67,0,1,0,0-1.34h-30v-2.9a0.67,0.67,0,0,0-.67-0.67h-7.41a0.67,0.67,0,0,0-.67.67v6.84a5.33,5.33,0,0,1,.4-10.65h42.28A6.61,6.61,0,0,0,385.86,70Z"/><path class="cls-1" d="M354.5,54.29h30.17a0.67,0.67,0,1,0,0-1.34H354.5A0.67,0.67,0,0,0,354.5,54.29Z"/><path class="cls-1" d="M392.47,46.3a0.65,0.65,0,0,0,.32-0.09,0.66,0.66,0,0,0,.52-0.64,0.67,0.67,0,0,0-.67-0.67H346.29a6.68,6.68,0,0,0,0,13.36h46.34a0.67,0.67,0,0,0,.67-0.67,0.66,0.66,0,0,0-.52-0.64,0.65,0.65,0,0,0-.32-0.09A5.28,5.28,0,0,1,392.47,46.3Zm-6.62,5.28a6.61,6.61,0,0,0,2.72,5.34H346.3a5.34,5.34,0,0,1,0-10.68h42.28A6.61,6.61,0,0,0,385.86,51.57Z"/><path class="cls-1" d="M392.64,59.64H345.48a7.39,7.39,0,0,1-7.38-7.39,0.67,0.67,0,1,0-1.34,0A8.74,8.74,0,0,0,345.48,61h47.16A0.67,0.67,0,0,0,392.64,59.64Z"/><path class="cls-1" d="M350.9,33H352V38a1.47,1.47,0,0,0,1.47,1.47H360V41a1.47,1.47,0,0,0,1.47,1.47h9.41A1.47,1.47,0,0,0,372.38,41v-1.5h7.06A1.47,1.47,0,0,0,380.91,38V32.89H382a0.62,0.62,0,0,0,.43-0.18,1.47,1.47,0,0,0,0-2.08l-6.24-6.24h0l-0.58-.58,0.94-.95a0.62,0.62,0,0,0-.87-0.87l-0.94.95L373.84,22a0.62,0.62,0,0,0-.87.87l0.95,0.95-0.17.17L369,28.68l-1.32-1.32h0l-0.58-.58,0.94-.95A0.62,0.62,0,0,0,367.2,25l-0.94.95L365.31,25a0.62,0.62,0,0,0-.87.87l0.95,0.95-0.17.17-1.48,1.48L359.29,24h0l-0.17-.17,0.94-.95A0.62,0.62,0,0,0,359.2,22l-0.94.95L357.31,22a0.62,0.62,0,0,0-.87.87l0.94,0.95-0.17.17-6.76,6.76a1.47,1.47,0,0,0,0,2.08A0.66,0.66,0,0,0,350.9,33Zm23.72-8.15a0.24,0.24,0,0,1,.17-0.07,0.24,0.24,0,0,1,.17.07l0.42,0.42h0l6.24,6.24a0.23,0.23,0,0,1,.07.16h-1.39a0.62,0.62,0,0,0-.61.62V38a0.24,0.24,0,0,1-.24.24h-7.06V35.86h1.14a0.62,0.62,0,0,0,.43-0.18,1.47,1.47,0,0,0,0-2.08l-4-4Zm-8.53,3a0.23,0.23,0,0,1,.17-0.07,0.24,0.24,0,0,1,.17.07l6.65,6.65a0.24,0.24,0,0,1,.07.15h-1.39a0.62,0.62,0,0,0-.61.62V41a0.24,0.24,0,0,1-.24.24H361.5a0.24,0.24,0,0,1-.24-0.24V35.33a0.62,0.62,0,0,0-.62-0.62h-1.38a0.24,0.24,0,0,1,.07-0.15ZM351.33,31.6l6.76-6.76h0a0.23,0.23,0,0,1,.33,0l0.42,0.42h0l4,4-4.41,4.41a1.47,1.47,0,0,0,0,2.08,0.61,0.61,0,0,0,.44.18H360v2.33h-6.53a0.24,0.24,0,0,1-.24-0.24V32.36a0.62,0.62,0,0,0-.62-0.62h-1.38A0.23,0.23,0,0,1,351.33,31.6Z"/><path class="cls-1" d="M364.7,35.88h3a0.62,0.62,0,0,0,0-1.24h-3A0.62,0.62,0,1,0,364.7,35.88Z"/><path class="cls-1" d="M72.89,41.09H57.41V37.8a0.67,0.67,0,0,0-1.34,0v3.29H53.89a3.5,3.5,0,0,0-3.5,3.5V81.81a3.5,3.5,0,0,0,3.5,3.5h19a3.5,3.5,0,0,0,3.5-3.5V44.59A3.5,3.5,0,0,0,72.89,41.09ZM75,81.81A2.16,2.16,0,0,1,72.89,84h-19a2.16,2.16,0,0,1-2.16-2.16V44.59a2.16,2.16,0,0,1,2.16-2.16h19A2.16,2.16,0,0,1,75,44.59V81.81Z"/><path class="cls-1" d="M71.18,46.58H55.6a2.09,2.09,0,0,0-2.08,2.08v15a2.09,2.09,0,0,0,2.08,2.08H71.18a2.09,2.09,0,0,0,2.08-2.08v-15A2.09,2.09,0,0,0,71.18,46.58Zm0.74,17.08a0.74,0.74,0,0,1-.74.74H55.6a0.74,0.74,0,0,1-.74-0.74v-15a0.74,0.74,0,0,1,.74-0.74H71.18a0.74,0.74,0,0,1,.74.74v15Z"/><path class="cls-1" d="M70.75,69.26H68.14a0.67,0.67,0,1,0,0,1.34h2.61A0.67,0.67,0,1,0,70.75,69.26Z"/><path class="cls-1" d="M64.69,69.26H62.09a0.67,0.67,0,1,0,0,1.34h2.61A0.67,0.67,0,1,0,64.69,69.26Z"/><path class="cls-1" d="M58.64,69.26H56a0.67,0.67,0,0,0,0,1.34h2.61A0.67,0.67,0,0,0,58.64,69.26Z"/><path class="cls-1" d="M70.75,73.38H68.14a0.67,0.67,0,0,0,0,1.34h2.61A0.67,0.67,0,0,0,70.75,73.38Z"/><path class="cls-1" d="M64.69,73.38H62.09a0.67,0.67,0,0,0,0,1.34h2.61A0.67,0.67,0,0,0,64.69,73.38Z"/><path class="cls-1" d="M58.64,73.38H56a0.67,0.67,0,0,0,0,1.34h2.61A0.67,0.67,0,0,0,58.64,73.38Z"/><path class="cls-1" d="M70.75,77.39H68.14a0.67,0.67,0,1,0,0,1.34h2.61A0.67,0.67,0,1,0,70.75,77.39Z"/><path class="cls-1" d="M64.69,77.39H62.09a0.67,0.67,0,1,0,0,1.34h2.61A0.67,0.67,0,1,0,64.69,77.39Z"/><path class="cls-1" d="M58.64,77.39H56a0.67,0.67,0,0,0,0,1.34h2.61A0.67,0.67,0,0,0,58.64,77.39Z"/><path class="cls-1" d="M42.42,16.47H18.11a7.21,7.21,0,0,0-7.21,7.2v10.9a7.21,7.21,0,0,0,7.21,7.2H36.34l5.12,3.68a0.8,0.8,0,0,0,1.27-.65v-3a7.21,7.21,0,0,0,6.89-7.2V23.67A7.21,7.21,0,0,0,42.42,16.47ZM48,34.57a5.6,5.6,0,0,1-5.59,5.59H41.93a0.81,0.81,0,0,0-.81.8v2.26l-4.06-2.92a0.8,0.8,0,0,0-.47-0.15H18.11a5.6,5.6,0,0,1-5.59-5.59V23.67a5.6,5.6,0,0,1,5.59-5.59H42.42A5.6,5.6,0,0,1,48,23.67v10.9Z"/><path class="cls-1" d="M40.94,23.58H20.19a0.67,0.67,0,0,0,0,1.34H40.94A0.67,0.67,0,0,0,40.94,23.58Z"/><path class="cls-1" d="M40.94,27H20.19a0.67,0.67,0,0,0,0,1.34H40.94A0.67,0.67,0,0,0,40.94,27Z"/><path class="cls-1" d="M40.94,30.38H20.19a0.67,0.67,0,0,0,0,1.34H40.94A0.67,0.67,0,0,0,40.94,30.38Z"/><path class="cls-1" d="M94.62,43.6v0a7,7,0,0,0-3.94-2.76,7.07,7.07,0,1,0,5,8.66,7,7,0,0,0-.7-5.36C94.86,43.95,94.74,43.77,94.62,43.6ZM83.31,46.16a5.72,5.72,0,0,1,9.59-2.54L83.3,46.22V46.16Zm11.06,3a5.72,5.72,0,0,1-11.25-1.49l10.67-2.87v0A5.69,5.69,0,0,1,94.37,49.14Z"/><path class="cls-1" d="M88.84,56.23a7,7,0,0,0-6.93,6.56,0.63,0.63,0,0,0,0,.1V83.31a1.32,1.32,0,0,0,1.32,1.32h2.71V89.7a0.67,0.67,0,0,0,1.34,0V84.63h3.49V89.7a0.67,0.67,0,0,0,1.34,0V84.63h2.7a0.67,0.67,0,0,0,.6-0.38,1.32,1.32,0,0,0,.4-0.94V62.88a0.63,0.63,0,0,0,0-.1A7,7,0,0,0,88.84,56.23Zm5.61,27.06H83.23V63.17a5.61,5.61,0,0,1,11.21,0V83.29Z"/><path class="cls-1" d="M44.61,14.92a6.31,6.31,0,0,1,6.31,6.31,0.67,0.67,0,1,0,1.34,0,7.66,7.66,0,0,0-7.65-7.65A0.67,0.67,0,0,0,44.61,14.92Z"/><path class="cls-1" d="M45.31,11.23a9.49,9.49,0,0,1,9.48,9.48,0.67,0.67,0,1,0,1.34,0A10.84,10.84,0,0,0,45.31,9.89,0.67,0.67,0,1,0,45.31,11.23Z"/><path class="cls-1" d="M146.91,51.56a7.05,7.05,0,0,0,.24-7.43c-0.1-.18-0.22-0.36-0.34-0.53h0a7,7,0,0,0-3.94-2.76,7.06,7.06,0,0,0-7.67,10.8l-1.51,1.51a0.67,0.67,0,1,0,.95.95L136,52.67a7,7,0,0,0,10-.06l1.48,1.48a0.67,0.67,0,1,0,.95-0.95Zm-11.41-5.4a5.72,5.72,0,0,1,9.59-2.54l-9.61,2.59V46.16Zm11.06,3a5.72,5.72,0,0,1-11.25-1.49L146,44.78v0A5.69,5.69,0,0,1,146.55,49.14Z"/><path class="cls-1" d="M148,81.48V63.17h0V62.88a0.63,0.63,0,0,0,0-.1,6.93,6.93,0,0,0-10.66-5.46,7.12,7.12,0,0,1,.9,1,5.6,5.6,0,0,1,8.44,4.83h0v18.4a0.91,0.91,0,0,1,0,.19l0.45,1.52H135l0.38-1.55a0.53,0.53,0,0,1,0-.16v-2a7,7,0,0,1-1.34.48v1.45l-0.57,2.3a0.67,0.67,0,0,0,.65.83h3.78V89.7a0.67,0.67,0,1,0,1.34,0V84.63h3.49V89.7a0.67,0.67,0,1,0,1.34,0V84.63H148a0.67,0.67,0,0,0,.64-0.86Z"/><path class="cls-1" d="M138.31,72.74V62.69a6.58,6.58,0,0,0-6.57-6.58h-3V53.24a0.67,0.67,0,0,0-1.06-.54L123,56.11H109.31a6.58,6.58,0,0,0-6.57,6.58V72.74a6.58,6.58,0,0,0,6.57,6.57h22.43A6.58,6.58,0,0,0,138.31,72.74ZM131.74,78H109.31a5.24,5.24,0,0,1-5.23-5.23V62.69a5.24,5.24,0,0,1,5.23-5.23h13.86a0.67,0.67,0,0,0,.39-0.13l3.86-2.77v2.23a0.67,0.67,0,0,0,.67.67h3.65A5.24,5.24,0,0,1,137,62.69V72.74A5.24,5.24,0,0,1,131.74,78Z"/><path class="cls-1" d="M130.67,62H109.91a0.67,0.67,0,1,0,0,1.34h20.75A0.67,0.67,0,1,0,130.67,62Z"/><path class="cls-1" d="M130.67,65.39H109.91a0.67,0.67,0,0,0,0,1.34h20.75A0.67,0.67,0,0,0,130.67,65.39Z"/><path class="cls-1" d="M130.67,68.78H109.91a0.67,0.67,0,0,0,0,1.34h20.75A0.67,0.67,0,0,0,130.67,68.78Z"/><path class="cls-1" d="M123.67,72.16H109.91a0.67,0.67,0,0,0,0,1.34h13.76A0.67,0.67,0,0,0,123.67,72.16Z"/><path class="cls-1" d="M133.61,20.9a7.2,7.2,0,0,0,2.12,7.25l1.44,3.5a0.67,0.67,0,0,0,.62.42h5.51a0.67,0.67,0,0,0,.61-0.39l1.63-3.58A7.25,7.25,0,1,0,133.61,20.9Zm12.7,3.42a5.87,5.87,0,0,1-1.77,2.87,0.67,0.67,0,0,0-.16.22l-1.51,3.31h-1.61v-2.3a0.67,0.67,0,0,0-1.34,0v2.3h-1.68l-1.33-3.23a0.67,0.67,0,0,0-.18-0.25A5.91,5.91,0,1,1,146.31,24.32Z"/><path class="cls-1" d="M140.59,10.6a0.67,0.67,0,0,0,.67-0.67V7a0.67,0.67,0,1,0-1.34,0v3A0.67,0.67,0,0,0,140.59,10.6Z"/><path class="cls-1" d="M142.09,32.8h-3a0.67,0.67,0,0,0,0,1.34h3A0.67,0.67,0,0,0,142.09,32.8Z"/><path class="cls-1" d="M142.09,34.68h-3a0.67,0.67,0,1,0,0,1.34h3A0.67,0.67,0,1,0,142.09,34.68Z"/><path class="cls-1" d="M134.19,11.74a0.67,0.67,0,1,0,1.16-.67L133.86,8.5a0.67,0.67,0,1,0-1.16.67Z"/><path class="cls-1" d="M127.55,14.7l2.57,1.48a0.66,0.66,0,0,0,.34.09A0.67,0.67,0,0,0,130.8,15l-2.57-1.48A0.67,0.67,0,0,0,127.55,14.7Z"/><path class="cls-1" d="M146.11,12a0.67,0.67,0,0,0,.92-0.25l1.48-2.57a0.67,0.67,0,1,0-1.16-.67l-1.48,2.57A0.67,0.67,0,0,0,146.11,12Z"/><path class="cls-1" d="M153,13.53L150.42,15a0.67,0.67,0,0,0,.34,1.25,0.66,0.66,0,0,0,.33-0.09l2.57-1.48A0.67,0.67,0,0,0,153,13.53Z"/><path class="cls-1" d="M40.16,51.65H37.78V49.12a2.37,2.37,0,0,0-2.36-2.36H15.16a0.52,0.52,0,0,0-.36.14l-0.07,0L9,52.58H9a0.67,0.67,0,0,0-.19.47h0V53.4h0v26a2.37,2.37,0,0,0,2.36,2.36h2.38v2.53A2.37,2.37,0,0,0,15.9,86.7H40.16a2.37,2.37,0,0,0,2.36-2.36V54A2.37,2.37,0,0,0,40.16,51.65ZM14.53,49v2.69a1,1,0,0,1-1,1H10.75Zm-0.79,8.44a0.67,0.67,0,0,0-.2.48h0v0.34h0V80.47H11.16a1,1,0,0,1-1-1V54.08h3.37a2.37,2.37,0,0,0,2.36-2.36V48.1H35.42a1,1,0,0,1,1,1v2.53H19.93a0.67,0.67,0,0,0-.24,0,0.66,0.66,0,0,0-.14.09l-0.07,0h0Zm5.54-3.55v2.69a1,1,0,0,1-1,1H15.5ZM41.19,84.34a1,1,0,0,1-1,1H15.9a1,1,0,0,1-1-1V59h3.37a2.37,2.37,0,0,0,2.36-2.36V53H40.16a1,1,0,0,1,1,1V84.34Z"/><path class="cls-1" d="M295.79,30.49H273A4.06,4.06,0,0,0,269,34.55V79.11A4.06,4.06,0,0,0,273,83.17h22.75a4.06,4.06,0,0,0,4.06-4.06V34.55A4.06,4.06,0,0,0,295.79,30.49Zm2.71,48.62a2.72,2.72,0,0,1-2.71,2.71H273a2.72,2.72,0,0,1-2.71-2.71V34.55A2.72,2.72,0,0,1,273,31.83h22.75a2.72,2.72,0,0,1,2.71,2.71V79.11Z"/><path class="cls-1" d="M284.41,72.84a3.4,3.4,0,1,0,3.4,3.4A3.4,3.4,0,0,0,284.41,72.84Zm0,5.45a2.05,2.05,0,1,1,2.05-2.05A2.06,2.06,0,0,1,284.41,78.29Z"/><path class="cls-1" d="M293.74,36.51H275.08a2.37,2.37,0,0,0-2.36,2.36V69.18a2.37,2.37,0,0,0,2.36,2.36h18.66a2.37,2.37,0,0,0,2.36-2.36V38.87A2.37,2.37,0,0,0,293.74,36.51Zm1,32.67a1,1,0,0,1-1,1H275.08a1,1,0,0,1-1-1V38.87a1,1,0,0,1,1-1h18.66a1,1,0,0,1,1,1V69.18Z"/><path class="cls-1" d="M282.85,34.63H286a0.67,0.67,0,1,0,0-1.34h-3.12A0.67,0.67,0,0,0,282.85,34.63Z"/><path class="cls-1" d="M259.29,22.37h0L257.73,19a1.44,1.44,0,0,0-1.33-.87,1.38,1.38,0,0,0-1.3.79c-4.35,8.43-4.35,8.78-4.35,8.95l-0.08,52.6a0.83,0.83,0,0,0,0,.13v0c0,0.06,0,.11,0,0.18a5.43,5.43,0,0,0,10.87,0c0-.05,0-0.1,0-0.17v0a1,1,0,0,0,0-.14V77.28a5.49,5.49,0,0,0,0-.62V76.59h0l0.07-48.75C261.62,27.72,261.61,27.46,259.29,22.37Zm-3.16-3a0.27,0.27,0,0,1,.26-0.14,0.31,0.31,0,0,1,.29.19l1.1,2.39h-2.89ZM254.27,23a0.59,0.59,0,0,1,.28-0.08h3.53a0.59,0.59,0,0,1,.25.06c0.86,1.9,1.68,3.72,2,4.53l-1.88,1.87-2-2a0.57,0.57,0,0,0-.81,0h0l-2,2L252,27.68C252.29,27,253.24,25.05,254.27,23Zm6.12,57.68s0,0,0,.08h0a4.29,4.29,0,0,1-8.58,0V79.93a5.41,5.41,0,0,0,8.58.11V80.7Zm0-3.49a4.29,4.29,0,0,1-8.55-.55V76.59h0l0.07-47.39,1.41,1.41a0.57,0.57,0,0,0,.4.17,0.57,0.57,0,0,0,.4-0.17l2-2,2,2a0.57,0.57,0,0,0,.81,0L260.47,29Z"/><path class="cls-1" d="M257.41,34.74a0.57,0.57,0,0,0-.57.57l0,40.31a0.57,0.57,0,0,0,.57.57,0.57,0.57,0,0,0,.57-0.57l0-40.31A0.57,0.57,0,0,0,257.41,34.74Z"/><path class="cls-1" d="M255.16,34.73a0.57,0.57,0,0,0-.57.57l0,40.31a0.57,0.57,0,0,0,1.14,0l0-40.31A0.57,0.57,0,0,0,255.16,34.73Z"/><path class="cls-1" d="M319.21,35.33a9.16,9.16,0,0,0-9.15,9.15,0.67,0.67,0,0,0,1.34,0,7.81,7.81,0,0,1,15.62,0,0.67,0.67,0,0,0,1.34,0A9.16,9.16,0,0,0,319.21,35.33Z"/><path class="cls-1" d="M319.21,31.08a13.29,13.29,0,0,0-13.27,13.27,0.67,0.67,0,1,0,1.34,0,11.93,11.93,0,0,1,23.86,0,0.67,0.67,0,0,0,1.34,0A13.29,13.29,0,0,0,319.21,31.08Z"/><path class="cls-1" d="M320.07,49.42a5,5,0,1,0-1.81,0L310,79.61a0.67,0.67,0,0,0,.47.82l0.18,0a0.67,0.67,0,0,0,.65-0.49l2.34-8.56a0.67,0.67,0,0,0,.31-0.09l5.23-3,5.23,3a0.66,0.66,0,0,0,.31.08L327,80a0.67,0.67,0,0,0,.65.49l0.18,0a0.67,0.67,0,0,0,.47-0.82Zm-4.53-4.94a3.67,3.67,0,1,1,3.67,3.67A3.68,3.68,0,0,1,315.54,44.48Zm-1.45,25.21,1-3.67,2.71,1.55Zm5.07-2.89-3.7-2.11,3.7-13.51,3.7,13.51Zm1.36,0.77L323.23,66l1,3.66Z"/><path class="cls-1" d="M240.65,69.73h-6.73a0.67,0.67,0,1,0,0,1.34h6.73a5.28,5.28,0,0,1,.06,10.55,7.15,7.15,0,0,0-7.1-6.36h-3.06c-2.84,0-4.54,1.35-4.54,3.61v0.06h-3.3a0.67,0.67,0,0,0,0,1.34H226v4.65h-3.3a0.67,0.67,0,0,0,0,1.34H226v0.05c0,3.22,3.3,3.22,4.54,3.22h3.06A7.15,7.15,0,0,0,240.73,83,6.62,6.62,0,0,0,240.65,69.73Zm-7,18.47h-3.09c-2.66,0-3.2-.72-3.2-1.88V78.87c0-1.51,1.07-2.27,3.2-2.27h3.06a5.76,5.76,0,0,1,2.78.71v10a0.65,0.65,0,0,0,0,.15A5.76,5.76,0,0,1,233.65,88.2Zm4.09-1.73V78.33A5.79,5.79,0,0,1,237.74,86.47Z"/><path class="cls-1" d="M219.65,50.6v8.08h-8.08a0.67,0.67,0,0,0-.67.67,9.42,9.42,0,1,0,9.42-9.42A0.67,0.67,0,0,0,219.65,50.6ZM221,59.35V51.3A8.08,8.08,0,1,1,212.27,60h8.05A0.67,0.67,0,0,0,221,59.35Z"/><path class="cls-1" d="M205.15,80.8H192.5V78.19h-1.34V80.8H178.51c-2.15,0-3.82,2.42-3.82,4.5a0.67,0.67,0,0,0,.67.67H208.3A0.67,0.67,0,0,0,209,85.3C209,83.22,207.3,80.8,205.15,80.8Zm-29,3.83c0.29-1.23,1.29-2.49,2.4-2.49h26.65c1.11,0,2.11,1.26,2.4,2.49H176.11Z"/><path class="cls-1" d="M157.15,52.85a0.67,0.67,0,0,0-.67.67V58.1a0.67,0.67,0,0,0,1.34,0V53.52A0.67,0.67,0,0,0,157.15,52.85Z"/><path class="cls-1" d="M163.28,49.39V58.1a0.67,0.67,0,0,0,1.34,0V49.39A0.67,0.67,0,0,0,163.28,49.39Z"/><path class="cls-1" d="M167,51.61v6.5a0.67,0.67,0,1,0,1.34,0v-6.5A0.67,0.67,0,1,0,167,51.61Z"/><path class="cls-1" d="M174,51.61v6.5a0.67,0.67,0,0,0,1.34,0v-6.5A0.67,0.67,0,0,0,174,51.61Z"/><path class="cls-1" d="M170.55,49V58.1a0.67,0.67,0,1,0,1.34,0V49A0.67,0.67,0,1,0,170.55,49Z"/><path class="cls-1" d="M203.89,87.81H179.77a0.67,0.67,0,1,0,0,1.34h24.11A0.67,0.67,0,0,0,203.89,87.81Z"/><path class="cls-1" d="M184.15,45.6a2.07,2.07,0,0,0-2.06,2.07V67.06a2.07,2.07,0,0,0,2.06,2.06h15.36a2.07,2.07,0,0,0,2.07-2.06V47.67a2.07,2.07,0,0,0-2.07-2.07H184.15Zm16.08,2.07V67.06a0.72,0.72,0,0,1-.72.72H184.15a0.72,0.72,0,0,1-.72-0.72V47.67a0.72,0.72,0,0,1,.72-0.72h15.36A0.72,0.72,0,0,1,200.23,47.67Z"/><path class="cls-1" d="M190.78,57.9A4,4,0,1,0,187.94,53,4,4,0,0,0,190.78,57.9Zm-1.54-4.58a2.68,2.68,0,1,1,1.89,3.29A2.68,2.68,0,0,1,189.24,53.31Z"/><path class="cls-1" d="M191.83,58.61a4.71,4.71,0,0,0-4.71,4.71,0.67,0.67,0,0,0,.67.67h8.08a0.67,0.67,0,0,0,.67-0.67A4.72,4.72,0,0,0,191.83,58.61Zm-3.3,4a3.37,3.37,0,0,1,6.6,0h-6.6Z"/><path class="cls-1" d="M217.72,56V47.23a0.67,0.67,0,0,0-.67-0.67A9.43,9.43,0,0,0,207.63,56a0.67,0.67,0,0,0,.67.67h8.75A0.67,0.67,0,0,0,217.72,56Zm-1.34-.67H209a8.09,8.09,0,0,1,7.38-7.38v7.38Z"/><path class="cls-1" d="M223.87,73.43V69.08a10.24,10.24,0,0,1-1.34.4v4A2.48,2.48,0,0,1,220,75.91H163.61a2.48,2.48,0,0,1-2.48-2.48V64.32a0.62,0.62,0,0,0,0-.07V44.79a0.62,0.62,0,0,0,0-.07V40.25h0a2.48,2.48,0,0,1,2.48-2.48H220a2.48,2.48,0,0,1,2.48,2.48v9a10.24,10.24,0,0,1,1.34.4V40.25A3.82,3.82,0,0,0,220,36.43H163.61a3.82,3.82,0,0,0-3.82,3.82h0V73.43a3.82,3.82,0,0,0,3.82,3.82H220A3.82,3.82,0,0,0,223.87,73.43Z"/></svg>