<svg id="Layer_1" data-name="Layer 1" xmlns="http://www.w3.org/2000/svg" viewBox="0 0 331.48 272.28">
    <defs>
        <style>.cls-1{fill:none;stroke:#0068EA;stroke-miterlimit:10;stroke-width:7.5px;}</style>
    </defs>
    <title>Icons for Submit1</title>
    <line class="cls-1" x1="233.08" y1="78.63" x2="312.36" y2="78.63"/>
    <line class="cls-1" x1="233.08" y1="98.13" x2="312.36" y2="98.13"/>
    <line class="cls-1" x1="233.08" y1="117.63" x2="312.36" y2="117.63"/>
    <polygon class="cls-1" points="327.73 60.63 217.72 60.63 217.72 135.63 236.22 135.63 236.22 153.38 253.97 135.63 327.73 135.63 327.73 60.63"/>
    <circle class="cls-1" cx="158.8" cy="202.26" r="66.27"/>
    <polyline class="cls-1" points="144.69 137.51 151.72 167.79 150.84 180.6 136.26 185.02 138.03 199.59 159.22 211.08 151.72 252.06 141.11 252.06 117.44 217.84 120.36 194.74 106.67 181.93 96.47 179.71"/>
    <polyline class="cls-1" points="217.52 171.55 186.61 166.47 175.27 180.6 182.19 204.9 191.84 211.52 191.84 237.58 202.66 251.93"/>
    <path class="cls-1" d="M221.92,597.31a28.35,28.35,0,1,0-37.81,0L193.56,614h18.9Z" transform="translate(-46.69 -524.38)"/>
    <line class="cls-1" x1="156.32" y1="61.24" x2="156.32" y2="89.6"/>
    <line class="cls-1" x1="165.78" y1="102.05" x2="146.87" y2="102.05"/>
    <line class="cls-1" x1="165.78" y1="114.5" x2="146.87" y2="114.5"/>
    <line class="cls-1" x1="156.32" y1="13.23" x2="156.32"/>
    <line class="cls-1" x1="123.39" y1="33.22" x2="112.61" y2="25.31"/>
    <line class="cls-1" x1="136.89" y1="18.73" x2="129.28" y2="7.74"/>
    <line class="cls-1" x1="175.79" y1="18.73" x2="183.4" y2="7.74"/>
    <line class="cls-1" x1="189.08" y1="32.89" x2="199.86" y2="24.99"/>
    <line class="cls-1" x1="16.25" y1="139.44" x2="66.25" y2="139.44"/>
    <line class="cls-1" x1="16.25" y1="158.19" x2="66.25" y2="158.19"/>
    <polygon class="cls-1" points="78.75 122.07 3.75 122.07 3.75 175.56 51.88 175.56 66.25 189.92 66.25 175.56 78.75 175.56 78.75 122.07"/>
</svg>