<?xml version="1.0" encoding="utf-8"?>
<!-- Generator: Adobe Illustrator 20.1.0, SVG Export Plug-In . SVG Version: 6.00 Build 0)  -->
<svg version="1.1" id="Layer_1" xmlns="http://www.w3.org/2000/svg" xmlns:xlink="http://www.w3.org/1999/xlink" x="0px" y="0px"
	 viewBox="0 0 132.3 84.2" style="enable-background:new 0 0 132.3 84.2;" xml:space="preserve">
<style type="text/css">
	.st0{fill:#0068EA;}
</style>
<g>
	<path class="st0" d="M81,35.3C81,35.3,81,35.3,81,35.3C81,35.3,81,35.3,81,35.3C81,35.3,80.9,35.3,81,35.3
		c-0.1-0.1-0.1-0.1-0.1-0.1c0,0-0.1,0-0.1,0c0,0,0,0-0.1,0c0,0-0.1,0-0.1,0c0,0,0,0,0,0c0,0-0.1,0-0.1,0c0,0,0,0-0.1,0l0,0
		c0,0,0,0,0,0c0,0,0,0-0.1,0c0,0-0.1,0-0.1,0c0,0,0,0-0.1,0c0,0-0.1,0-0.1,0c0,0,0,0-0.1,0c0,0,0,0-0.1,0c0,0,0,0-0.1,0.1
		c0,0,0,0,0,0c0,0,0,0,0,0c0,0,0,0,0,0l-2.5,3c-3.3-2.7-7.5-4.3-12-4.3c-3.8,0-7.3,1.1-10.3,3c-0.2,0.1-0.4,0.2-0.6,0.4
		c-2.3,1.6-4.2,3.7-5.6,6.1c-0.5,0.8-0.9,1.5-1,2.1c-1,2.3-1.5,4.8-1.5,7.4c0,5.8,2.6,11,6.7,14.5l-2.4,2.9
		c-0.3,0.3-0.2,0.8,0.1,1.1c0.1,0.1,0.2,0.1,0.3,0.2c0,0.1,0.1,0.1,0.2,0.2c3,2.3,6.5,3.8,10.2,4.4c1.4,0.2,2.8,0.4,4.1,0.4
		c1.7,0,3.3-0.2,4.9-0.5v6.1h-8.5c-0.4,0-0.8,0.4-0.8,0.8c0,0.4,0.4,0.8,0.8,0.8h18.6c0.4,0,0.8-0.4,0.8-0.8c0-0.4-0.4-0.8-0.8-0.8
		H72v-6.5c3.1-0.9,6.1-2.5,8.6-4.6c4.3-3.6,7.2-8.6,8.2-14.1C90.3,49.2,87.3,40.8,81,35.3z M50.1,44.6c0.8-1.1,2.1-2.7,4.4-4.9
		c0.4-0.4,0.6-0.6,0.8-0.7c0.1-0.1,0.3-0.2,0.4-0.3c0.1,0,0.2-0.1,0.3-0.1c0.1-0.1,0.3-0.1,0.6-0.3c1.3,1.1,5.2,6.6,5.6,7.6
		c0,0.2-0.1,0.4-0.3,0.6l-2.3,1.9c-0.1,0.1-0.2,0.3-0.3,0.4c0,0-0.1,0.3-0.1,0.5c0,0,0,0.1,0,0.1l-0.7,3.9c0,0.1,0,0.2,0,0.2l0,0.1
		c0,0.3,0.2,0.7,0.5,0.8c2.9,1,5.7,2.3,6,2.9c0,0.2-0.1,0.7-0.2,0.8l-3.2,7.9c0,0,0,0.1,0,0.1c-0.1,0.4-0.4,0.6-0.8,0.6
		s-0.7-0.3-0.8-0.6c0,0,0-0.1,0-0.1l-2.4-8l0-0.1c0,0,0-0.1,0-0.1c0,0,0-0.1,0-0.1L57,54.2c0-0.1-0.1-0.3-0.2-0.4l-3-3.8
		c0-0.1-0.1-0.1-0.2-0.2c-1.7-1.3-3.8-3-4.4-3.7C49.6,45.6,49.8,45.1,50.1,44.6z M70.4,74.9c-2.8,0.6-5.8,0.7-8.8,0.2
		c-3.4-0.6-6.5-1.9-9.3-4l1.9-2.3c3.1,2.2,7,3.6,11.1,3.6c1.8,0,3.5-0.2,5.1-0.7V74.9z M65.3,70.8c-9.6,0-17.5-7.8-17.5-17.5
		c0-1.9,0.3-3.8,0.9-5.5c0.7,0.7,1.9,1.7,4,3.3l2.8,3.6l0.6,3.4c0,0.1,0,0.2,0,0.2l0,0.1c0,0.1,0,0.1,0,0.1l2.4,8.1
		c0.2,1.1,1.2,1.9,2.3,1.9c1.1,0,2.1-0.8,2.3-1.9l3.1-7.9c0-0.1,0.3-0.9,0.3-1.4c0-1.3-2.2-2.7-6.5-4.2l0.6-3.4
		c0-0.1,0.1-0.2,0.1-0.3l2.1-1.7c0.6-0.5,0.9-1.1,0.9-1.9c0-0.8-3.6-6.3-5.8-8.4c2.2-1,4.7-1.6,7.4-1.6c9.6,0,17.5,7.8,17.5,17.5
		S74.9,70.8,65.3,70.8z M87.2,57.1C85.8,65.6,79.6,72,72,74.4v-3.3c7.3-2.7,12.4-9.7,12.4-17.9c0-5.4-2.3-10.3-5.9-13.8l2-2.4
		C86,42.2,88.5,49.8,87.2,57.1z"/>
	<path class="st0" d="M81.4,51.9c0-1.5-1.7-2.5-1.8-2.6l-7.3-3.7c-0.1,0-0.1-0.1-0.2-0.1c-0.5-0.1-1-0.2-1.5-0.2
		c-2.8,0-5.1,2.3-5.1,5.1c0,1,0.3,1.9,0.8,2.8l0,0c0.2,0.4,0.5,0.7,0.8,1l3.1,3.6l0.4,4.1c0,1.5,1.2,2.7,2.7,2.7
		c1.1,0,2-0.7,2.3-1.3l5-9.3C80.8,53.7,81.4,52.7,81.4,51.9z M79.3,53.2l-5,9.2c0,0-0.4,0.6-1,0.6c-0.6,0-1.1-0.5-1.1-1.1
		c0,0,0-0.1,0-0.1l-0.5-4.4c0-0.2-0.1-0.3-0.2-0.4l-4-4.6c-0.3-0.6-0.5-1.2-0.5-1.9c0-1.9,1.6-3.5,3.5-3.5c0.3,0,0.7,0,1,0.1
		l7.3,3.7c0.3,0.2,1,0.7,1,1.1C79.8,52.1,79.6,52.7,79.3,53.2z"/>
	<path class="st0" d="M124.9,21.5H100c-4.1,0-7.4,3.3-7.4,7.4v11.2c0,4,3.1,7.2,7.1,7.4v3.1c0,0.3,0.2,0.6,0.4,0.7
		c0.1,0.1,0.2,0.1,0.4,0.1c0.2,0,0.3-0.1,0.5-0.2l5.3-3.8h18.7c4.1,0,7.4-3.3,7.4-7.4V28.9C132.3,24.8,129,21.5,124.9,21.5z
		 M130.7,40.1c0,3.2-2.6,5.8-5.8,5.8h-19c-0.2,0-0.3,0.1-0.5,0.2l-4.2,3v-2.4c0-0.4-0.4-0.8-0.8-0.8H100c-3.2,0-5.8-2.6-5.8-5.8
		V28.9c0-3.2,2.6-5.8,5.8-5.8h24.9c3.2,0,5.8,2.6,5.8,5.8V40.1z"/>
	<path class="st0" d="M124.2,28.1h-23.1c-0.4,0-0.8,0.4-0.8,0.8c0,0.4,0.4,0.8,0.8,0.8h23.1c0.4,0,0.8-0.4,0.8-0.8
		C125,28.5,124.7,28.1,124.2,28.1z"/>
	<path class="st0" d="M124.2,31.9h-23.1c-0.4,0-0.8,0.4-0.8,0.8c0,0.4,0.4,0.8,0.8,0.8h23.1c0.4,0,0.8-0.4,0.8-0.8
		C125,32.3,124.7,31.9,124.2,31.9z"/>
	<path class="st0" d="M124.2,35.7h-23.1c-0.4,0-0.8,0.4-0.8,0.8c0,0.4,0.4,0.8,0.8,0.8h23.1c0.4,0,0.8-0.4,0.8-0.8
		C125,36,124.7,35.7,124.2,35.7z"/>
	<path class="st0" d="M32.3,33.3H7.4c-4.1,0-7.4,3.3-7.4,7.4v11.2c0,4.1,3.3,7.4,7.4,7.4h18.7l5.3,3.8c0.1,0.1,0.3,0.2,0.5,0.2
		c0.1,0,0.3,0,0.4-0.1c0.3-0.1,0.4-0.4,0.4-0.7v-3.1c3.9-0.2,7.1-3.4,7.1-7.4V40.7C39.7,36.6,36.4,33.3,32.3,33.3z M38.1,51.8
		c0,3.2-2.6,5.8-5.8,5.8h-0.5c-0.4,0-0.8,0.4-0.8,0.8v2.4l-4.2-3c-0.1-0.1-0.3-0.2-0.5-0.2h-19c-3.2,0-5.8-2.6-5.8-5.8V40.7
		c0-3.2,2.6-5.8,5.8-5.8h24.9c3.2,0,5.8,2.6,5.8,5.8V51.8z"/>
	<path class="st0" d="M31.1,39.2H8c-0.4,0-0.8,0.4-0.8,0.8c0,0.4,0.4,0.8,0.8,0.8h23.1c0.4,0,0.8-0.4,0.8-0.8
		C31.9,39.6,31.6,39.2,31.1,39.2z"/>
	<path class="st0" d="M31.1,43H8c-0.4,0-0.8,0.4-0.8,0.8c0,0.4,0.4,0.8,0.8,0.8h23.1c0.4,0,0.8-0.4,0.8-0.8
		C31.9,43.4,31.6,43,31.1,43z"/>
	<path class="st0" d="M31.1,46.8H8c-0.4,0-0.8,0.4-0.8,0.8c0,0.4,0.4,0.8,0.8,0.8h23.1c0.4,0,0.8-0.4,0.8-0.8
		C31.9,47.1,31.6,46.8,31.1,46.8z"/>
	<path class="st0" d="M60.2,14.5c-0.7,2.6,0.1,5.4,2.1,7.2l1.4,3.5c0.1,0.2,0.3,0.4,0.6,0.4h5.5c0.3,0,0.5-0.2,0.6-0.4l1.6-3.6
		c1-0.9,1.7-2.1,2.1-3.4c1-3.8-1.2-7.8-5.1-8.8C65.2,8.4,61.3,10.7,60.2,14.5z M68.7,10.7c3.1,0.8,5,4.1,4.1,7.2
		c-0.3,1.1-0.9,2.1-1.8,2.9C71.1,20.9,71,20.9,71,21l-1.5,3.3h-1.6V22c0-0.4-0.3-0.7-0.7-0.7c-0.4,0-0.7,0.3-0.7,0.7v2.3h-1.7
		l-1.3-3.2c0-0.1-0.1-0.2-0.2-0.2c-1.7-1.5-2.4-3.8-1.8-6C62.4,11.8,65.6,9.9,68.7,10.7z"/>
	<path class="st0" d="M67.2,4.3c0.4,0,0.7-0.3,0.7-0.7v-3c0-0.4-0.3-0.7-0.7-0.7c-0.4,0-0.7,0.3-0.7,0.7v3C66.5,4,66.8,4.3,67.2,4.3
		z"/>
	<path class="st0" d="M68.7,26.4h-3c-0.4,0-0.7,0.3-0.7,0.7c0,0.4,0.3,0.7,0.7,0.7h3c0.4,0,0.7-0.3,0.7-0.7
		C69.4,26.7,69.1,26.4,68.7,26.4z"/>
	<path class="st0" d="M68.7,28.3h-3c-0.4,0-0.7,0.3-0.7,0.7c0,0.4,0.3,0.7,0.7,0.7h3c0.4,0,0.7-0.3,0.7-0.7
		C69.4,28.6,69.1,28.3,68.7,28.3z"/>
	<path class="st0" d="M60.8,5.4c0.1,0.2,0.3,0.3,0.6,0.3c0.1,0,0.2,0,0.3-0.1C62,5.5,62.2,5.1,62,4.8l-1.5-2.6
		c-0.2-0.3-0.6-0.4-0.9-0.2c-0.3,0.2-0.4,0.6-0.2,0.9L60.8,5.4z"/>
	<path class="st0" d="M54.2,8.4l2.6,1.5c0.1,0.1,0.2,0.1,0.3,0.1c0.2,0,0.5-0.1,0.6-0.3c0.2-0.3,0.1-0.7-0.2-0.9l-2.6-1.5
		C54.6,7,54.2,7.1,54,7.5C53.8,7.8,53.9,8.2,54.2,8.4z"/>
	<path class="st0" d="M72.7,5.7c0.1,0.1,0.2,0.1,0.3,0.1c0.2,0,0.5-0.1,0.6-0.3l1.5-2.6c0.2-0.3,0.1-0.7-0.2-0.9
		c-0.3-0.2-0.7-0.1-0.9,0.2l-1.5,2.6C72.3,5.1,72.4,5.5,72.7,5.7z"/>
	<path class="st0" d="M77.3,9.9c0.1,0,0.2,0,0.3-0.1l2.6-1.5c0.3-0.2,0.4-0.6,0.2-0.9c-0.2-0.3-0.6-0.4-0.9-0.2L77,8.7
		c-0.3,0.2-0.4,0.6-0.2,0.9C76.8,9.8,77.1,9.9,77.3,9.9z"/>
</g>
</svg>
