<?xml version="1.0" encoding="utf-8"?>
<!-- Generator: Adobe Illustrator 20.1.0, SVG Export Plug-In . SVG Version: 6.00 Build 0)  -->
<svg version="1.1" id="Layer_1" xmlns="http://www.w3.org/2000/svg" xmlns:xlink="http://www.w3.org/1999/xlink" x="0px" y="0px"
	 viewBox="0 0 116.986 74.465" style="enable-background:new 0 0 116.986 74.465;" xml:space="preserve">
<style type="text/css">
	.st0{fill:none;stroke:#00A8ED;stroke-miterlimit:10;}
	.st1{fill:#00A8ED;}
	.st2{fill:none;}
	.st3{fill:#333333;}
	.st4{fill:#FFFFFF;}
	.st5{fill:#5D5D5D;}
	.st6{fill:#0096D7;}
	.st7{fill:#33CCCC;}
	.st8{fill:#58595B;}
	.st9{fill:#0095D6;}
	.st10{fill:#33B8B8;}
	.st11{fill:none;stroke:#0099FF;stroke-width:4;stroke-linecap:round;stroke-linejoin:round;}
	.st12{fill:#0099FF;}
	.st13{fill:none;stroke:#33CCCC;stroke-miterlimit:10;}
	.st14{fill:none;stroke:#33CCCC;stroke-width:2;stroke-linecap:round;stroke-linejoin:round;}
</style>
<symbol  id="facebook" viewBox="-16.735 -16.735 33.471 33.471">
	<circle class="st0" cx="0" cy="0" r="16.235"/>
	<g id="Icon_2_">
		<path class="st1" d="M4.74,10.102c0,0-1.941,0-3.229,0c-1.916,0-4.048-0.806-4.048-3.584c0.009-0.968,0-1.895,0-2.938h-2.217
			V0.053h2.285v-10.155h4.2V0.12h2.772l0.251,3.47H1.659c0,0,0.007,1.544,0,1.992c0,1.098,1.142,1.035,1.211,1.035
			c0.544,0,1.6-0.002,1.872,0v3.485H4.74z"/>
	</g>
</symbol>
<g>
	<path class="st7" d="M71.633,31.242c-0.002-0.002-0.004-0.002-0.006-0.004c-0.002-0.002-0.004-0.004-0.006-0.006
		c-0.018-0.015-0.037-0.025-0.056-0.038c-0.018-0.012-0.035-0.026-0.053-0.036c-0.024-0.014-0.05-0.023-0.076-0.034
		c-0.016-0.007-0.032-0.015-0.049-0.021c-0.03-0.01-0.061-0.015-0.091-0.021c-0.014-0.003-0.028-0.007-0.043-0.009
		c-0.025-0.003-0.05-0.002-0.076-0.003c-0.02,0-0.04-0.003-0.059-0.002c0,0-0.006,0.001-0.009,0.002l-0.004,0
		c-0.019,0.002-0.035,0.007-0.051,0.01c-0.028,0.005-0.056,0.008-0.083,0.016c-0.019,0.006-0.037,0.014-0.056,0.022
		c-0.024,0.009-0.048,0.017-0.071,0.029c-0.021,0.011-0.039,0.024-0.059,0.037c-0.019,0.012-0.039,0.023-0.057,0.037
		c-0.02,0.016-0.037,0.035-0.056,0.053c-0.013,0.013-0.028,0.024-0.041,0.039c-0.001,0.002-0.002,0.004-0.004,0.006
		c-0.002,0.002-0.004,0.004-0.006,0.006l-2.236,2.691c-2.906-2.362-6.608-3.781-10.636-3.781c-3.364,0-6.498,0.992-9.134,2.694
		c-0.174,0.089-0.348,0.202-0.573,0.387c-2.019,1.423-3.712,3.276-4.947,5.425c-0.451,0.686-0.76,1.302-0.918,1.842
		c-0.849,2.014-1.32,4.225-1.32,6.544c0,5.143,2.314,9.754,5.951,12.855l-2.158,2.597c-0.25,0.301-0.209,0.75,0.092,1
		c0.086,0.071,0.189,0.111,0.297,0.136c0.042,0.063,0.093,0.122,0.157,0.17c2.67,2.022,5.707,3.344,9.028,3.93
		c1.209,0.213,2.44,0.321,3.658,0.321c1.468,0,2.925-0.16,4.349-0.464v5.373h-7.546c-0.391,0-0.71,0.319-0.71,0.71
		c0,0.391,0.319,0.71,0.71,0.71h16.493c0.392,0,0.71-0.319,0.71-0.71c0-0.391-0.319-0.71-0.71-0.71h-7.526v-5.731
		c2.777-0.8,5.389-2.167,7.648-4.042c3.823-3.173,6.403-7.613,7.265-12.499C79.839,43.541,77.183,36.058,71.633,31.242z
		 M44.324,39.452c0.671-1.005,1.846-2.416,3.898-4.37c0.314-0.31,0.527-0.509,0.69-0.644c0.128-0.09,0.258-0.177,0.389-0.263
		c0.072-0.035,0.144-0.065,0.228-0.099c0.126-0.051,0.296-0.119,0.516-0.223c1.123,0.959,4.627,5.864,4.92,6.753
		c-0.015,0.19-0.111,0.365-0.273,0.495l-2.029,1.665c-0.12,0.098-0.206,0.236-0.242,0.39c0,0.003-0.064,0.281-0.109,0.412
		c-0.012,0.036-0.022,0.072-0.028,0.109l-0.611,3.491c-0.012,0.068-0.013,0.136-0.006,0.204l0.011,0.081
		c0,0.306,0.195,0.576,0.485,0.673c2.576,0.862,5.034,2.068,5.298,2.598c-0.014,0.197-0.113,0.58-0.163,0.741l-2.789,7.005
		c-0.017,0.042-0.03,0.086-0.039,0.131c-0.061,0.327-0.347,0.564-0.68,0.564s-0.619-0.238-0.681-0.564
		c-0.004-0.025-0.01-0.049-0.018-0.073l-2.138-7.119l-0.008-0.057c-0.003-0.022-0.007-0.045-0.007-0.068
		c0-0.038-0.003-0.076-0.009-0.114l-0.531-3.27c-0.019-0.116-0.067-0.226-0.138-0.319l-2.617-3.402
		c-0.041-0.054-0.089-0.1-0.141-0.139c-1.509-1.112-3.37-2.641-3.862-3.258C43.849,40.327,44.076,39.883,44.324,39.452z
		 M62.231,66.221c-2.477,0.569-5.105,0.663-7.761,0.196c-3.02-0.533-5.785-1.723-8.229-3.53l1.686-2.029
		c2.77,1.987,6.16,3.162,9.822,3.162c1.552,0,3.053-0.215,4.482-0.608V66.221z M57.75,62.599c-8.531,0-15.472-6.941-15.472-15.472
		c0-1.708,0.282-3.351,0.796-4.888c0.634,0.636,1.698,1.547,3.509,2.886l2.447,3.181l0.494,3.042
		c0.003,0.074,0.012,0.147,0.022,0.218l0.008,0.066c0.005,0.045,0.013,0.089,0.026,0.131l2.146,7.14
		c0.202,0.976,1.072,1.684,2.068,1.684c0.982,0,1.849-0.695,2.058-1.643l2.785-7c0.041-0.13,0.248-0.802,0.248-1.261
		c0-1.143-1.929-2.395-5.732-3.72l0.522-2.988c0.024-0.077,0.05-0.173,0.073-0.26l1.838-1.509c0.511-0.406,0.804-1.008,0.804-1.651
		c0-0.7-3.174-5.564-5.15-7.458c1.981-0.923,4.186-1.442,6.512-1.442c8.531,0,15.472,6.941,15.472,15.472
		S66.281,62.599,57.75,62.599z M77.166,50.525c-1.317,7.465-6.728,13.197-13.514,15.306v-2.879
		c6.412-2.399,10.991-8.587,10.991-15.826c0-4.777-1.996-9.093-5.194-12.169l1.787-2.15C76.041,37.307,78.312,44.023,77.166,50.525z
		"/>
	<path class="st7" d="M72.034,45.887c0-1.322-1.466-2.175-1.635-2.27l-6.474-3.282c-0.044-0.025-0.092-0.046-0.142-0.061
		c-0.428-0.131-0.874-0.197-1.326-0.197c-2.497,0-4.528,2.031-4.528,4.528c0,0.867,0.248,1.713,0.718,2.445l0.012,0.019
		c0.21,0.324,0.461,0.621,0.741,0.875l2.707,3.17l0.373,3.607c0.02,1.308,1.1,2.372,2.408,2.372c0.984,0,1.732-0.638,2.076-1.188
		l4.409-8.194C71.483,47.531,72.034,46.589,72.034,45.887z M70.14,47.007l-4.398,8.178c-0.013,0.02-0.335,0.49-0.855,0.49
		c-0.545,0-0.989-0.444-0.989-0.989c0-0.024-0.001-0.048-0.004-0.073l-0.399-3.864c-0.015-0.144-0.073-0.278-0.166-0.388
		l-3.508-4.108c-0.31-0.495-0.473-1.065-0.473-1.647c0-1.714,1.394-3.108,3.108-3.108c0.291,0,0.579,0.04,0.846,0.115l6.428,3.258
		c0.308,0.173,0.883,0.648,0.883,1.017C70.614,46.066,70.394,46.587,70.14,47.007z"/>
	<path class="st7" d="M110.465,19.048H88.417c-3.595,0-6.52,2.925-6.52,6.521v9.887c0,3.503,2.777,6.37,6.244,6.515v2.767
		c0,0.269,0.15,0.515,0.389,0.637c0.103,0.053,0.215,0.079,0.327,0.079c0.147,0,0.294-0.045,0.418-0.135l4.65-3.343h16.541
		c3.595,0,6.521-2.925,6.521-6.521v-9.887C116.986,21.974,114.061,19.048,110.465,19.048z M115.554,35.456
		c0,2.806-2.283,5.089-5.089,5.089H93.694c-0.15,0-0.296,0.047-0.418,0.135l-3.703,2.662V41.26c0-0.396-0.321-0.716-0.716-0.716
		h-0.44c-2.806,0-5.088-2.283-5.088-5.089v-9.887c0-2.806,2.282-5.089,5.088-5.089h22.049c2.806,0,5.089,2.283,5.089,5.089V35.456z"
		/>
	<path class="st7" d="M109.876,24.862H89.472c-0.396,0-0.716,0.321-0.716,0.716c0,0.396,0.321,0.716,0.716,0.716h20.404
		c0.396,0,0.716-0.321,0.716-0.716C110.592,25.183,110.272,24.862,109.876,24.862z"/>
	<path class="st7" d="M109.876,28.204H89.472c-0.396,0-0.716,0.321-0.716,0.716c0,0.396,0.321,0.716,0.716,0.716h20.404
		c0.396,0,0.716-0.321,0.716-0.716C110.592,28.524,110.272,28.204,109.876,28.204z"/>
	<path class="st7" d="M109.876,31.546H89.472c-0.396,0-0.716,0.321-0.716,0.716c0,0.396,0.321,0.716,0.716,0.716h20.404
		c0.396,0,0.716-0.321,0.716-0.716C110.592,31.866,110.272,31.546,109.876,31.546z"/>
	<path class="st7" d="M28.569,29.442H6.52c-3.595,0-6.52,2.925-6.52,6.521v9.887c0,3.595,2.925,6.521,6.52,6.521h16.541l4.65,3.342
		c0.124,0.089,0.271,0.135,0.418,0.135c0.112,0,0.224-0.026,0.327-0.079c0.239-0.123,0.389-0.369,0.389-0.637v-2.767
		c3.468-0.145,6.244-3.012,6.244-6.515v-9.887C35.09,32.368,32.165,29.442,28.569,29.442z M33.658,45.85
		c0,2.806-2.283,5.089-5.089,5.089h-0.44c-0.395,0-0.716,0.321-0.716,0.716v2.08l-3.703-2.662c-0.122-0.088-0.268-0.135-0.418-0.135
		H6.52c-2.806,0-5.088-2.283-5.088-5.089v-9.887c0-2.806,2.282-5.089,5.088-5.089h22.049c2.806,0,5.089,2.283,5.089,5.089V45.85z"/>
	<path class="st7" d="M27.514,34.683H7.11c-0.395,0-0.716,0.321-0.716,0.716c0,0.396,0.321,0.716,0.716,0.716h20.404
		c0.396,0,0.716-0.321,0.716-0.716C28.23,35.003,27.91,34.683,27.514,34.683z"/>
	<path class="st7" d="M27.514,38.025H7.11c-0.395,0-0.716,0.321-0.716,0.716c0,0.395,0.321,0.716,0.716,0.716h20.404
		c0.396,0,0.716-0.321,0.716-0.716C28.23,38.345,27.91,38.025,27.514,38.025z"/>
	<path class="st7" d="M27.514,41.367H7.11c-0.395,0-0.716,0.321-0.716,0.716c0,0.396,0.321,0.716,0.716,0.716h20.404
		c0.396,0,0.716-0.321,0.716-0.716C28.23,41.687,27.91,41.367,27.514,41.367z"/>
	<path class="st7" d="M53.278,12.862c-0.627,2.33,0.087,4.761,1.865,6.378l1.272,3.081c0.091,0.221,0.306,0.365,0.546,0.365h4.852
		c0.231,0,0.441-0.135,0.537-0.346l1.432-3.147c0.876-0.813,1.503-1.852,1.815-3.013c0.915-3.396-1.104-6.904-4.5-7.82
		C57.7,7.447,54.193,9.465,53.278,12.862z M60.79,9.501c2.768,0.746,4.413,3.605,3.667,6.372c-0.264,0.98-0.801,1.853-1.555,2.524
		c-0.061,0.055-0.11,0.122-0.145,0.197l-1.325,2.912h-1.42v-2.022c0-0.326-0.264-0.59-0.59-0.59c-0.326,0-0.59,0.264-0.59,0.59
		v2.022h-1.476l-1.173-2.841c-0.035-0.084-0.089-0.16-0.158-0.22c-1.512-1.317-2.128-3.339-1.607-5.275
		C55.164,10.401,58.023,8.754,60.79,9.501z"/>
	<path class="st7" d="M59.422,3.794c0.326,0,0.59-0.264,0.59-0.59V0.59c0-0.326-0.264-0.59-0.59-0.59c-0.326,0-0.59,0.264-0.59,0.59
		v2.613C58.832,3.529,59.096,3.794,59.422,3.794z"/>
	<path class="st7" d="M60.745,23.34h-2.613c-0.326,0-0.59,0.264-0.59,0.59s0.264,0.59,0.59,0.59h2.613c0.326,0,0.59-0.264,0.59-0.59
		S61.071,23.34,60.745,23.34z"/>
	<path class="st7" d="M60.745,24.993h-2.613c-0.326,0-0.59,0.264-0.59,0.59s0.264,0.59,0.59,0.59h2.613
		c0.326,0,0.59-0.264,0.59-0.59S61.071,24.993,60.745,24.993z"/>
	<path class="st7" d="M53.785,4.8c0.109,0.189,0.308,0.295,0.512,0.295c0.1,0,0.202-0.025,0.295-0.079
		c0.283-0.163,0.379-0.524,0.216-0.807l-1.307-2.262c-0.163-0.283-0.525-0.379-0.807-0.216c-0.283,0.163-0.379,0.524-0.216,0.807
		L53.785,4.8z"/>
	<path class="st7" d="M47.949,7.401l2.263,1.306c0.093,0.054,0.194,0.079,0.295,0.079c0.204,0,0.402-0.106,0.512-0.295
		c0.163-0.283,0.066-0.644-0.216-0.807L48.54,6.379c-0.282-0.163-0.644-0.066-0.807,0.216C47.57,6.877,47.667,7.238,47.949,7.401z"
		/>
	<path class="st7" d="M64.285,5.016c0.093,0.054,0.195,0.079,0.295,0.079c0.204,0,0.403-0.106,0.512-0.295l1.306-2.262
		c0.163-0.282,0.066-0.644-0.216-0.807c-0.282-0.163-0.644-0.066-0.807,0.216L64.069,4.21C63.906,4.492,64.003,4.853,64.285,5.016z"
		/>
	<path class="st7" d="M68.368,8.787c0.101,0,0.202-0.025,0.295-0.079l2.263-1.306c0.282-0.163,0.379-0.524,0.216-0.807
		c-0.163-0.283-0.525-0.379-0.807-0.216l-2.263,1.306c-0.282,0.163-0.379,0.524-0.216,0.807C67.966,8.681,68.165,8.787,68.368,8.787
		z"/>
</g>
</svg>
