<svg xmlns="http://www.w3.org/2000/svg" viewBox="0 0 37.3 43.14"><defs><style>.cls-1{fill:#33b8b8;}</style></defs><title>Asset 2</title><g id="Layer_2" data-name="Layer 2"><g id="Featured_Blog_Posts" data-name="Featured Blog Posts"><path class="cls-1" d="M24.91,32c6.92-.5,12.38-5.76,12.38-12.17V14.55c0-2.12,0-7.76-6.06-7.76h-.1V1.15a1.27,1.27,0,0,0-2.53,0V6.79H19.85V1.15a1.27,1.27,0,0,0-2.53,0V6.79H17.2c-4.25,0-6.79,2.9-6.79,7.76v5.23c0,6.29,5.25,11.47,12,12.14-.06,4.93-4.49,8.92-9.93,8.92s-9.93-4-9.93-9V20.3a1.21,1.21,0,0,0-1.26-1.15A1.21,1.21,0,0,0,0,20.3V31.82c0,6.24,5.59,11.32,12.46,11.32S24.83,38.13,24.91,32Zm8.19-7.41H14.27a9.16,9.16,0,0,1-1.34-4.75V14.55c0-3.63,1.44-5.47,4.27-5.47h14c2.18,0,3.54.91,3.54,5.47v5.14a1,1,0,0,0,0,.15,9.16,9.16,0,0,1-1.37,4.75A1.33,1.33,0,0,0,33.11,24.54Zm-16.92,2.3H31.52a11.69,11.69,0,0,1-15.34,0Z"/></g></g></svg>