<svg xmlns="http://www.w3.org/2000/svg" viewBox="0 0 30 38.18"><defs><style>.cls-1{fill:#32b7b7;}</style></defs><title>Asset 23</title><g id="Layer_2" data-name="Layer 2"><g id="Featured_Blog_Posts" data-name="Featured Blog Posts"><path class="cls-1" d="M25.13,6H25V1a1,1,0,0,0-2,0V6H16V1a1,1,0,0,0-2,0V6h-.1c-3.42,0-5.47,2.57-5.47,6.87v4.63A10.83,10.83,0,0,0,18,28.26a8,8,0,0,1-16-.1,1,1,0,1,0-2,0,10,10,0,0,0,20,.12A10.82,10.82,0,0,0,30,17.52V12.89C30,11,30,6,25.13,6ZM19.18,26.29A8.75,8.75,0,0,1,13,23.75H25.35A8.75,8.75,0,0,1,19.18,26.29ZM28,17.43a1,1,0,0,0,0,.13,8.72,8.72,0,0,1-1.1,4.19,1,1,0,0,0-.24,0H11.48a8.72,8.72,0,0,1-1.08-4.21V12.88C10.41,9.67,11.56,8,13.84,8H25.12C26.88,8,28,8.86,28,12.89Z"/></g></g></svg>