<svg id="Layer_1" data-name="Layer 1" xmlns="http://www.w3.org/2000/svg" viewBox="0 0 76.28 57.77">
  <defs>
    <style>
      .cls-1 {
        fill: #fff;
      }

      .cls-2 {
        fill: #66c766;
      }
    </style>
  </defs>
  <title>infrastructure</title>
  <rect class="cls-1" width="76.28" height="57.77"/>
  <g>
    <path class="cls-2" d="M2862.46,4770.71l-4.7-4.7h0l-0.44-.44,0.71-.71a0.47,0.47,0,1,0-.66-0.66l-0.71.71-0.71-.71a0.47,0.47,0,0,0-.66.66l0.71,0.71-0.13.13-3.41,3.41,0.66,0.66,3.41-3.41a0.18,0.18,0,0,1,.25,0l5,5a0.18,0.18,0,0,1,.05.12h-1a0.47,0.47,0,0,0-.46.47v4.34a0.18,0.18,0,0,1-.18.18h-5.83v0.93h5.83a1.11,1.11,0,0,0,1.11-1.11v-3.88h0.86a0.46,0.46,0,0,0,.33-0.14A1.11,1.11,0,0,0,2862.46,4770.71Z" transform="translate(-2791.65 -4755.56)"/>
    <path class="cls-2" d="M2846,4776.47h-6a0.18,0.18,0,0,1-.18-0.18V4772a0.47,0.47,0,0,0-.47-0.47h-1a0.18,0.18,0,0,1,.05-0.11l5.09-5.09h0a0.18,0.18,0,0,1,.25,0l3.52,3.52,0.66-.66-3.2-3.2h0l-0.44-.44,0.71-.71a0.47,0.47,0,0,0-.66-0.66l-0.71.71-0.71-.71a0.47,0.47,0,1,0-.66.66l0.71,0.71-0.13.13h0l-5.09,5.09a1.11,1.11,0,0,0,0,1.57,0.46,0.46,0,0,0,.33.14h0.85v3.81a1.11,1.11,0,0,0,1.11,1.11h6v-0.93Z" transform="translate(-2791.65 -4755.56)"/>
    <path class="cls-2" d="M2851.28,4773.69H2849a0.47,0.47,0,1,1,0-.93h2.26A0.47,0.47,0,0,1,2851.28,4773.69Z" transform="translate(-2791.65 -4755.56)"/>
    <g>
      <path class="cls-2" d="M2859.72,4804.47c-5.35-2.76-5.57-2.76-5.68-2.76l-27.83-.05H2826a3.45,3.45,0,0,0,0,6.9h2.22l0.39,0h0v0l25.38,0c0.08,0,.24,0,3.48-1.47h0l2.15-1a0.91,0.91,0,0,0,.55-0.84A0.87,0.87,0,0,0,2859.72,4804.47Zm-31.45,3.36a2.72,2.72,0,0,1,.34-5.42h0v0l24.52,0-0.89.89a0.36,0.36,0,0,0,0,.51l1.25,1.26-1.26,1.25a0.36,0.36,0,0,0-.11.26h0a0.36,0.36,0,0,0,.11.26l1,1Zm24.77-1.23,1.26-1.25a0.36,0.36,0,0,0,.08-0.12,0.37,0.37,0,0,0,0-.14h0a0.36,0.36,0,0,0-.11-0.26h0l-0.72-.73-0.53-.53,1.09-1.09c0.46,0.2,1.67.8,3,1.45a0.38,0.38,0,0,1,0,.18v2.24a0.38,0.38,0,0,1,0,.16c-1.2.55-2.36,1.06-2.88,1.27Zm-27.88-1.47a3.44,3.44,0,0,0,1.3,2.7H2826a2.72,2.72,0,0,1,0-5.45h0.54A3.44,3.44,0,0,0,2825.16,4805.13Zm34.22,0.34-1.51.7v-1.84l1.54,0.79a0.17,0.17,0,0,1,.09.16A0.19,0.19,0,0,1,2859.38,4805.48Z" transform="translate(-2791.65 -4755.56)"/>
      <path class="cls-2" d="M2849.17,4805.92l-19.9,0a0.36,0.36,0,0,0-.36.36,0.36,0.36,0,0,0,.36.36l19.9,0A0.36,0.36,0,1,0,2849.17,4805.92Z" transform="translate(-2791.65 -4755.56)"/>
      <path class="cls-2" d="M2849.17,4803.81l-19.9,0a0.36,0.36,0,0,0,0,.72l19.9,0A0.36,0.36,0,1,0,2849.17,4803.81Z" transform="translate(-2791.65 -4755.56)"/>
    </g>
    <path class="cls-2" d="M2852.25,4782.68h0v-1.95a0.4,0.4,0,0,0-.79,0v1.95h-2.75v-1.95a0.4,0.4,0,0,0-.79,0v1.95h0c-1.33,0-2.13,1-2.13,2.68v1.81a4.22,4.22,0,0,0,4,4.2v0.75a2.28,2.28,0,0,1-2.28,2.28h-2.92a0.43,0.43,0,0,0,0,.85h3.2a0.42,0.42,0,0,0,.17,0,3.13,3.13,0,0,0,2.67-3.09v-0.78a4.22,4.22,0,0,0,3.62-4.17h0v-1.79C2854.15,4784.63,2854.15,4782.68,2852.25,4782.68Zm-2.31,7.91a3.41,3.41,0,0,1-2.4-1h4.81A3.41,3.41,0,0,1,2849.94,4790.59Zm3.42-3.46a0.43,0.43,0,0,0,0,.05,3.4,3.4,0,0,1-.43,1.64h-6a3.4,3.4,0,0,1-.42-1.64v-1.81c0-1.25.45-1.89,1.34-1.89h4.4c0.69,0,1.11.32,1.11,1.89v1.77Z" transform="translate(-2791.65 -4755.56)"/>
    <g>
      <path class="cls-2" d="M2839.91,4785.49h-16.37a0.43,0.43,0,0,0,0,.85h13.62v4.45a0.43,0.43,0,0,0,.43.43h4.22v3.13h-1a0.43,0.43,0,1,0,0,.85h1v0.85h-18.53l-0.11,0-0.11,0a2.76,2.76,0,0,1-2.75-2.75v-12.08h-0.85v12.3h0a3.61,3.61,0,0,0,3.59,3.38l0.11,0,0.11,0H2825a2.13,2.13,0,0,0,4.25,0h7.57a2.13,2.13,0,0,0,4.25,0h1.11a0.43,0.43,0,0,0,.43-0.43v-8.24A2.75,2.75,0,0,0,2839.91,4785.49Zm-1.9,4.88v-4h1.9a1.9,1.9,0,0,1,1.9,1.9v2.13H2838Zm-10.84,7.75a1.28,1.28,0,0,1-1.27-1.21h2.54A1.28,1.28,0,0,1,2827.17,4798.11Zm11.83,0a1.28,1.28,0,0,1-1.27-1.21h2.54A1.28,1.28,0,0,1,2839,4798.11Z" transform="translate(-2791.65 -4755.56)"/>
      <path class="cls-2" d="M2823.54,4788.9h6.76a0.43,0.43,0,0,0,0-.85h-6.76A0.43,0.43,0,0,0,2823.54,4788.9Z" transform="translate(-2791.65 -4755.56)"/>
      <path class="cls-2" d="M2823.54,4791.45h6.76a0.43,0.43,0,0,0,0-.85h-6.76A0.43,0.43,0,0,0,2823.54,4791.45Z" transform="translate(-2791.65 -4755.56)"/>
    </g>
    <path class="cls-2" d="M2834.92,4770.75a0.43,0.43,0,0,1-.43.43h-1.88a0.43,0.43,0,0,1,0-.85h1.88A0.43,0.43,0,0,1,2834.92,4770.75Z" transform="translate(-2791.65 -4755.56)"/>
    <path class="cls-2" d="M2835.86,4774.45a0.42,0.42,0,0,1-.21.37l-1.63.94a0.43,0.43,0,0,1-.43-0.74l1.63-.94A0.43,0.43,0,0,1,2835.86,4774.45Z" transform="translate(-2791.65 -4755.56)"/>
    <path class="cls-2" d="M2835.86,4767a0.43,0.43,0,0,1-.64.37l-1.63-.94a0.43,0.43,0,0,1,.43-0.74l1.63,0.94A0.43,0.43,0,0,1,2835.86,4767Z" transform="translate(-2791.65 -4755.56)"/>
    <g>
      <path class="cls-2" d="M2811.88,4785.33a3.47,3.47,0,1,0-1.26,0l-6.2,22.66a0.47,0.47,0,0,0,.33.57l0.12,0a0.47,0.47,0,0,0,.45-0.34l2.09-7.64a0.46,0.46,0,0,0,.21-0.06l3.63-2.07,3.63,2.07a0.46,0.46,0,0,0,.21.06l2.09,7.62a0.47,0.47,0,0,0,.45.34l0.12,0a0.47,0.47,0,0,0,.33-0.57Zm1.93,10.59-2.56,1.46-2.56-1.46,2.56-9.37Zm-5.08-14a2.55,2.55,0,1,1,2.55,2.55A2.55,2.55,0,0,1,2808.74,4781.9Zm-1,17.48,0.69-2.54,1.88,1.07Zm4.45-1.47,1.88-1.07,0.69,2.54Z" transform="translate(-2791.65 -4755.56)"/>
      <path class="cls-2" d="M2805.86,4781.9a5.43,5.43,0,0,1,10.86,0,0.43,0.43,0,1,0,.85,0,6.28,6.28,0,0,0-12.56,0A0.43,0.43,0,1,0,2805.86,4781.9Z" transform="translate(-2791.65 -4755.56)"/>
      <path class="cls-2" d="M2811.29,4772.9a9,9,0,0,0-9,9,0.43,0.43,0,0,0,.85,0,8.15,8.15,0,1,1,16.31,0,0.43,0.43,0,0,0,.85,0A9,9,0,0,0,2811.29,4772.9Z" transform="translate(-2791.65 -4755.56)"/>
      <path class="cls-2" d="M2829.36,4770.32h-18.07a11.6,11.6,0,0,0-11.58,11.58,0.43,0.43,0,0,0,.85,0,10.75,10.75,0,0,1,10.73-10.73h18.07A0.43,0.43,0,1,0,2829.36,4770.32Z" transform="translate(-2791.65 -4755.56)"/>
    </g>
    <path class="cls-2" d="M2856,4772l-4.7-4.7h0l-0.44-.44,0.71-.71a0.47,0.47,0,1,0-.66-0.66l-0.71.71-0.71-.71a0.47,0.47,0,1,0-.66.66l0.71,0.71-0.13.13-5.09,5.09a1.11,1.11,0,0,0,0,1.57,0.46,0.46,0,0,0,.33.14h0.85v3.81a1.11,1.11,0,0,0,1.11,1.11h7.09a1.11,1.11,0,0,0,1.11-1.11v-3.88h0.86a0.47,0.47,0,0,0,.33-0.14A1.11,1.11,0,0,0,2856,4772Zm-1.65.78a0.47,0.47,0,0,0-.46.47v4.34a0.18,0.18,0,0,1-.18.18h-7.09a0.18,0.18,0,0,1-.18-0.18v-4.28a0.47,0.47,0,0,0-.47-0.47h-1a0.18,0.18,0,0,1,.05-0.11l5.09-5.09a0.18,0.18,0,0,1,.25,0l5,5a0.18,0.18,0,0,1,.05.12h-1Z" transform="translate(-2791.65 -4755.56)"/>
  </g>
</svg>
