<svg id="Layer_1" data-name="Layer 1" xmlns="http://www.w3.org/2000/svg" viewBox="0 0 91.31 79.48"><defs><style>.cls-1{fill:none;stroke:#6c6;stroke-miterlimit:10;stroke-width:3.86px;}</style></defs><title>Step3</title><polyline class="cls-1" points="1.23 36.81 8.67 30.64 14.85 38.07"/><polyline class="cls-1" points="90.05 42.55 82.7 48.83 76.42 41.48"/><path class="cls-1" d="M1801.23,1311.69A37.8,37.8,0,0,1,1746,1270" transform="translate(-1737.18 -1238.97)"/><path class="cls-1" d="M1764.89,1245.39a37.8,37.8,0,0,1,54.63,42.06" transform="translate(-1737.18 -1238.97)"/><circle class="cls-1" cx="1759.51" cy="1250.49" r="6.9" transform="translate(-2131.6 -130.48) rotate(-31.63)"/><circle class="cls-1" cx="1807.34" cy="1307.28" r="6.9" transform="translate(-2154.28 -96.96) rotate(-31.63)"/><path class="cls-1" d="M1790.23,1285.86a11.06,11.06,0,1,0-14.75,0l3.69,6.51h7.38Z" transform="translate(-1737.18 -1238.97)"/><line class="cls-1" x1="45.67" y1="42.33" x2="45.67" y2="53.39"/><line class="cls-1" x1="49.36" y1="59.08" x2="41.98" y2="59.08"/><line class="cls-1" x1="49.36" y1="64.77" x2="41.98" y2="64.77"/><line class="cls-1" x1="45.67" y1="23.6" x2="45.67" y2="18.43"/><line class="cls-1" x1="32.82" y1="31.4" x2="28.61" y2="28.31"/><line class="cls-1" x1="38.09" y1="25.74" x2="35.12" y2="21.45"/><line class="cls-1" x1="53.27" y1="25.74" x2="56.24" y2="21.45"/><line class="cls-1" x1="58.45" y1="31.27" x2="62.66" y2="28.18"/></svg>