<svg id="Layer_1" data-name="Layer 1" xmlns="http://www.w3.org/2000/svg" viewBox="0 0 76.28 57.77">
  <defs>
    <style>
      .cls-1 {
        fill: #fff;
      }

      .cls-2 {
        fill: #33b4b4;
      }
    </style>
  </defs>
  <title>knowledge_products</title>
  <g>
    <rect class="cls-1" width="76.28" height="57.77"/>
    <g>
      <g>
        <path class="cls-2" d="M3146.15,4786.33l1.48,3.59a0.58,0.58,0,0,0,.53.36h5.62a0.58,0.58,0,0,0,.52-0.34l1.67-3.67a7.29,7.29,0,1,0-12-7.24A7.33,7.33,0,0,0,3146.15,4786.33Zm-1-7a6.13,6.13,0,1,1,10,6.17,0.58,0.58,0,0,0-.14.19l-1.56,3.44h-1.75v-2.45a0.58,0.58,0,1,0-1.15,0v2.45h-2l-1.39-3.36a0.58,0.58,0,0,0-.15-0.21A6.09,6.09,0,0,1,3145.11,4779.33Z" transform="translate(-3113.65 -4759.23)"/>
        <path class="cls-2" d="M3151.09,4768.39a0.58,0.58,0,0,0,.58-0.58v-3a0.58,0.58,0,0,0-1.15,0v3A0.58,0.58,0,0,0,3151.09,4768.39Z" transform="translate(-3113.65 -4759.23)"/>
        <path class="cls-2" d="M3152.62,4791.26h-3a0.58,0.58,0,1,0,0,1.15h3A0.58,0.58,0,0,0,3152.62,4791.26Z" transform="translate(-3113.65 -4759.23)"/>
        <path class="cls-2" d="M3152.62,4793.17h-3a0.58,0.58,0,0,0,0,1.15h3A0.58,0.58,0,0,0,3152.62,4793.17Z" transform="translate(-3113.65 -4759.23)"/>
        <path class="cls-2" d="M3144.65,4769.61a0.58,0.58,0,1,0,1-.58l-1.51-2.62a0.58,0.58,0,1,0-1,.58Z" transform="translate(-3113.65 -4759.23)"/>
        <path class="cls-2" d="M3137.85,4772.58l2.62,1.51a0.58,0.58,0,1,0,.58-1l-2.62-1.51A0.58,0.58,0,1,0,3137.85,4772.58Z" transform="translate(-3113.65 -4759.23)"/>
        <path class="cls-2" d="M3156.7,4769.82a0.58,0.58,0,0,0,.79-0.21L3159,4767a0.58,0.58,0,1,0-1-.58l-1.51,2.62A0.58,0.58,0,0,0,3156.7,4769.82Z" transform="translate(-3113.65 -4759.23)"/>
        <path class="cls-2" d="M3161.38,4774.17a0.57,0.57,0,0,0,.29-0.08l2.62-1.51a0.58,0.58,0,1,0-.58-1l-2.62,1.51A0.58,0.58,0,0,0,3161.38,4774.17Z" transform="translate(-3113.65 -4759.23)"/>
      </g>
      <g>
        <path class="cls-2" d="M3133.56,4803.58a1.29,1.29,0,0,0-.78,1.19h0a1.23,1.23,0,0,0,.71,1.15c6.23,3.2,7.74,3.87,8.17,4h0a0.5,0.5,0,0,0,.17,0h22.48a5,5,0,0,0,0-10h-22.48C3141.72,4799.93,3141.41,4799.93,3133.56,4803.58ZM3143,4809l1.42-1.42a0.47,0.47,0,0,0,0-.67l-1.89-1.89,0.25-.25,1.64-1.64a0.47,0.47,0,0,0,.14-0.34h0a0.47,0.47,0,0,0-.14-0.34h0l-1.61-1.61h17.73a4.07,4.07,0,0,1,0,8.15H3143Zm-5.69-2.23a0.61,0.61,0,0,1-.09-0.31v-3.3a0.61,0.61,0,0,1,.08-0.28c1.81-.83,3.55-1.6,4.29-1.91l1.82,1.82-1.89,1.89a0.47,0.47,0,0,0,0,.67l1.89,1.89-1.68,1.68C3141.07,4808.68,3139.23,4807.77,3137.3,4806.8Zm-3.4-1.73a0.31,0.31,0,0,1-.17-0.3,0.36,0.36,0,0,1,.21-0.33l2.31-1.07v2.9Zm30.33-4.18h0.1a4.07,4.07,0,1,1,0,8.15h-0.91a5,5,0,0,0,0-8.15h0.81Z" transform="translate(-3113.65 -4759.23)"/>
        <path class="cls-2" d="M3159.37,4803.8a0.47,0.47,0,0,0-.47-0.47h-10.07a0.47,0.47,0,1,0,0,.95h10.07A0.47,0.47,0,0,0,3159.37,4803.8Z" transform="translate(-3113.65 -4759.23)"/>
        <path class="cls-2" d="M3159.37,4805.9a0.47,0.47,0,0,0-.47-0.47h-10.07a0.47,0.47,0,1,0,0,.95h10.07A0.47,0.47,0,0,0,3159.37,4805.9Z" transform="translate(-3113.65 -4759.23)"/>
      </g>
    </g>
  </g>
</svg>
