<svg xmlns="http://www.w3.org/2000/svg" viewBox="0 0 81.32 77.21"><defs><style>.cls-1{fill:#3764d1;}</style></defs><title>Asset 7</title><g id="Layer_2" data-name="Layer 2"><g id="Layer_1-2" data-name="Layer 1"><path class="cls-1" d="M52.23,30.58h-29c-.52,0-.94.58-.94,1.29s.42,1.29.94,1.29h29c.52,0,.94-.58.94-1.29S52.75,30.58,52.23,30.58Z"/><path class="cls-1" d="M52.23,37.12h-29c-.52,0-.94.58-.94,1.29s.42,1.29.94,1.29h29c.52,0,.94-.58.94-1.29S52.75,37.12,52.23,37.12Z"/><path class="cls-1" d="M52.23,43.66h-29c-.52,0-.94.58-.94,1.29s.42,1.29.94,1.29h29c.52,0,.94-.58.94-1.29S52.75,43.66,52.23,43.66Z"/><path class="cls-1" d="M60.33,9.41H55.75V4.55A4.55,4.55,0,0,0,51.2,0H12.32l-.09,0a1.27,1.27,0,0,0-.4.08,1.27,1.27,0,0,0-.29.19,1.23,1.23,0,0,0-.13.08L.39,11.19h0a1.29,1.29,0,0,0-.37.9H0v.67H0V62.86a4.55,4.55,0,0,0,4.54,4.55H9.13v4.86a4.55,4.55,0,0,0,4.54,4.55H60.33a4.55,4.55,0,0,0,4.54-4.55V14A4.55,4.55,0,0,0,60.33,9.41ZM11,4.36V9.53a2,2,0,0,1-2,2H3.76ZM9.51,20.6a1.28,1.28,0,0,0-.38.92h0v.66h0V64.83H4.55a2,2,0,0,1-2-2V14.08H9.07a4.55,4.55,0,0,0,4.54-4.54v-7H51.2a2,2,0,0,1,2,2V9.41H21.42a1.28,1.28,0,0,0-.45.09,1.27,1.27,0,0,0-.28.18,1.22,1.22,0,0,0-.14.09h0Zm10.65-6.83v5.17a2,2,0,0,1-2,2H12.88Zm42.13,58.5a2,2,0,0,1-2,2H13.67a2,2,0,0,1-2-2V23.49H18.2a4.55,4.55,0,0,0,4.54-4.55V12H60.33a2,2,0,0,1,2,2Z"/><path class="cls-1" d="M78.69,14.6h0l-1.76-3.33a1.65,1.65,0,0,0-1.5-.86,1.59,1.59,0,0,0-1.47.78C69,19.45,69,19.79,69,20L69,71.54a.71.71,0,0,0,0,.12v0c0,.06,0,.11,0,.18,0,2.93,2.75,5.32,6.13,5.33a6.6,6.6,0,0,0,4.34-1.56,5,5,0,0,0,1.81-3.77s0-.1,0-.16v0a.81.81,0,0,0,0-.13V68.45a4.69,4.69,0,0,0,0-.6v-.07h0L81.32,20C81.32,19.85,81.32,19.6,78.69,14.6Zm-3.58-2.29a.24.24,0,0,1,.21-.1.26.26,0,0,1,.24.13l.9,1.71H74.09Zm-1.84,2.93a.67.67,0,0,1,.29-.07h3.65a.67.67,0,0,1,.26.06c.89,1.75,1.73,3.44,2.07,4.18l-1.94,1.73-2-1.83a.65.65,0,0,0-.83,0h0l-2,1.82-1.78-1.59C71.23,18.88,72.21,17.11,73.27,15.24Zm6.43,56.52s0,0,0,.07h0a3.7,3.7,0,0,1-1.35,2.81,4.91,4.91,0,0,1-3.23,1.16c-2.52,0-4.57-1.78-4.57-4V71a6.33,6.33,0,0,0,9.15.11v.61Zm-.23-4.26A4.26,4.26,0,0,1,75.17,71,4.22,4.22,0,0,1,70.82,67v-.06h0L70.86,22l1.42,1.33a.6.6,0,0,0,.41.16.59.59,0,0,0,.41-.16l2-1.87,2,1.87a.6.6,0,0,0,.82,0l1.63-1.52Z"/><path class="cls-1" d="M76.57,26.73a.61.61,0,0,0-.65.56l0,39.53a.61.61,0,0,0,.65.56.69.69,0,0,0,.46-.16.52.52,0,0,0,.19-.39l0-39.53A.61.61,0,0,0,76.57,26.73Z"/><path class="cls-1" d="M74,26.73a.61.61,0,0,0-.65.56l0,39.53a.65.65,0,0,0,1.29,0l0-39.53A.61.61,0,0,0,74,26.73Z"/></g></g></svg>