<svg xmlns="http://www.w3.org/2000/svg" viewBox="0 0 617.15 121.44"><defs><style>.cls-1,.cls-2,.cls-4{fill:none;stroke:#6c6;stroke-miterlimit:10;}.cls-1,.cls-4{stroke-width:3.86px;}.cls-2{stroke-width:3px;}.cls-3{fill:#6c6;}.cls-4{fill-rule:evenodd;}.cls-5{fill:#7348b3;}</style></defs><title>Asset 6</title><g id="Layer_2" data-name="Layer 2"><g id="Layer_1-2" data-name="Layer 1"><path class="cls-1" d="M227.86,78.23l36-36s11.76-10.34,11.76-30.3c-20,0-30.3,11.76-30.3,11.76l-36,36Z"/><circle class="cls-1" cx="256.71" cy="30.84" r="5.28" transform="translate(53.38 190.55) rotate(-45)"/><polyline class="cls-1" points="209.32 59.69 195.24 60.59 220.35 35.47 233.51 35.47"/><polyline class="cls-1" points="227.87 78.24 226.97 92.32 252.08 67.21 252.08 54.05"/><line class="cls-1" x1="243.37" y1="44.18" x2="207.87" y2="79.67"/><path class="cls-1" d="M212,62.39s-10.74.82-13.53,10.45a13.74,13.74,0,0,0,10.26-2.14S193.56,78.39,192,94.4c0,0,15.31,0,23-12.72,0,0-5.62,6.61-4.77,12.4,0,0,14.94-4.46,14.94-18.61"/><line class="cls-1" x1="202.27" y1="101.09" x2="188.21" y2="115.15"/><line class="cls-1" x1="184.15" y1="99.4" x2="169.44" y2="114.1"/><line class="cls-1" x1="171.55" y1="94.35" x2="187.67" y2="78.23"/><line class="cls-2" x1="123.75" y1="52.35" x2="171.19" y2="52.35"/><polygon class="cls-3" points="161.25 64.62 159.2 62.42 170.04 52.35 159.2 42.28 161.25 40.08 174.44 52.35 161.25 64.62"/><line class="cls-2" x1="297.69" y1="53.52" x2="345.13" y2="53.52"/><polygon class="cls-3" points="335.19 65.79 333.14 63.59 343.98 53.52 333.14 43.45 335.19 41.25 348.38 53.52 335.19 65.79"/><line class="cls-2" x1="479.63" y1="54.69" x2="527.07" y2="54.69"/><polygon class="cls-3" points="517.13 66.96 515.08 64.76 525.91 54.7 515.08 44.62 517.13 42.42 530.32 54.7 517.13 66.96"/><polyline class="cls-1" points="370.87 46.81 378.3 40.63 384.48 48.07"/><polyline class="cls-1" points="459.69 52.55 452.34 58.83 446.06 51.48"/><path class="cls-1" d="M433.69,82.72A37.8,37.8,0,0,1,378.43,41"/><path class="cls-1" d="M397.35,16.42A37.8,37.8,0,0,1,452,58.48"/><circle class="cls-1" cx="391.96" cy="21.53" r="6.9" transform="translate(46.94 208.75) rotate(-31.63)"/><circle class="cls-1" cx="439.8" cy="78.32" r="6.9" transform="translate(24.26 242.27) rotate(-31.63)"/><path class="cls-1" d="M422.68,56.89a11.06,11.06,0,1,0-14.75,0l3.69,6.51H419Z"/><line class="cls-1" x1="415.3" y1="52.33" x2="415.3" y2="63.39"/><line class="cls-1" x1="418.99" y1="69.08" x2="411.62" y2="69.08"/><line class="cls-1" x1="418.99" y1="74.77" x2="411.62" y2="74.77"/><line class="cls-1" x1="415.3" y1="33.6" x2="415.3" y2="28.43"/><line class="cls-1" x1="402.45" y1="41.4" x2="398.25" y2="38.31"/><line class="cls-1" x1="407.72" y1="35.74" x2="404.75" y2="31.45"/><line class="cls-1" x1="422.9" y1="35.74" x2="425.87" y2="31.45"/><line class="cls-1" x1="428.09" y1="41.27" x2="432.29" y2="38.18"/><rect class="cls-1" x="563.9" y="31.96" width="27.99" height="18.66" transform="translate(1155.79 82.58) rotate(180)"/><line class="cls-1" x1="587.23" y1="41.12" x2="568.57" y2="41.12"/><rect class="cls-1" x="596.56" y="1.93" width="18.66" height="12.88" transform="translate(1211.78 16.73) rotate(180)"/><rect class="cls-1" x="568.57" y="1.93" width="18.66" height="12.88" transform="translate(1155.79 16.73) rotate(180)"/><rect class="cls-1" x="540.58" y="1.93" width="18.66" height="12.88" transform="translate(1099.81 16.73) rotate(180)"/><line class="cls-1" x1="577.9" y1="31.96" x2="577.9" y2="14.81"/><line class="cls-1" x1="577.9" y1="59.2" x2="577.9" y2="51.04"/><polyline class="cls-1" points="605.89 14.8 605.89 23.75 549.91 23.75 549.91 14.8"/><line class="cls-1" x1="610.55" y1="8.37" x2="601.22" y2="8.37"/><line class="cls-1" x1="582.56" y1="8.37" x2="573.23" y2="8.37"/><line class="cls-1" x1="554.57" y1="8.37" x2="545.24" y2="8.37"/><circle class="cls-1" cx="577.68" cy="76.61" r="18.91"/><polyline class="cls-4" points="567.93 78.21 574.38 84.15 586.97 71.55"/><circle class="cls-1" cx="59.9" cy="36.23" r="14.35"/><path class="cls-4" d="M82.13,53.74a26.37,26.37,0,0,0-11.47-10"/><path class="cls-4" d="M49.14,43.76a26.27,26.27,0,0,0-15.51,24v7.89h29"/><path class="cls-4" d="M62.58,75.61a19.13,19.13,0,0,1-.1-2,18.9,18.9,0,1,1,.1,2"/><polyline class="cls-4" points="71.64 75.21 78.09 81.15 90.69 68.55"/><line class="cls-1" x1="26.75" y1="13.53" x2="34.72" y2="21.51"/><line class="cls-1" x1="34.72" y1="13.53" x2="26.75" y2="21.51"/><line class="cls-1" x1="84.31" y1="22.51" x2="92.28" y2="30.48"/><line class="cls-1" x1="92.28" y1="22.51" x2="84.31" y2="30.48"/><line class="cls-1" x1="71.64" y1="5.56" x2="79.61" y2="13.53"/><line class="cls-1" x1="79.61" y1="5.56" x2="71.64" y2="13.53"/><line class="cls-1" x1="15.15" y1="59.69" x2="23.13" y2="67.66"/><line class="cls-1" x1="23.13" y1="59.69" x2="15.15" y2="67.66"/><polyline class="cls-4" points="56.69 4.37 48.71 12.34 45.55 9.18"/><polyline class="cls-4" points="100.3 37.84 92.33 45.82 89.17 42.66"/><polyline class="cls-4" points="33.63 35.79 25.66 43.76 22.5 40.6"/><path class="cls-5" d="M5.6,109.27a4.94,4.94,0,0,1,3.48,1.53l-1.46,1.64a2.8,2.8,0,0,0-2-.88c-1.64,0-2.92,1.42-2.92,3.78s1.12,3.82,2.84,3.82a2.91,2.91,0,0,0,2.23-1l1.46,1.6a4.79,4.79,0,0,1-3.73,1.73c-3,0-5.53-2.07-5.53-6S2.58,109.27,5.6,109.27Z"/><path class="cls-5" d="M11,109.49h2.65V114h4.05v-4.52H20.4v11.74H17.73v-4.9H13.68v4.9H11Z"/><path class="cls-5" d="M23.17,109.49h7.35v2.23h-4.7v2.36h4v2.21h-4V119h4.88v2.23H23.17Z"/><path class="cls-5" d="M38.07,109.27a4.94,4.94,0,0,1,3.48,1.53l-1.46,1.64a2.8,2.8,0,0,0-2-.88c-1.64,0-2.92,1.42-2.92,3.78s1.12,3.82,2.84,3.82a2.91,2.91,0,0,0,2.23-1l1.46,1.6A4.79,4.79,0,0,1,38,121.44c-3,0-5.53-2.07-5.53-6S35,109.27,38.07,109.27Z"/><path class="cls-5" d="M43.51,109.49h2.65v4.81h.07l3.49-4.81h2.92l-3.55,4.68,4.2,7.06h-2.9l-2.86-5-1.37,1.8v3.15H43.51Z"/><path class="cls-5" d="M63.34,109.27a4.94,4.94,0,0,1,3.48,1.53l-1.46,1.64a2.8,2.8,0,0,0-2-.88c-1.64,0-2.92,1.42-2.92,3.78s1.12,3.82,2.84,3.82a2.91,2.91,0,0,0,2.23-1l1.46,1.6a4.79,4.79,0,0,1-3.73,1.73c-3,0-5.53-2.07-5.53-6S60.32,109.27,63.34,109.27Z"/><path class="cls-5" d="M75.13,121.23,72.88,117H71.42v4.23H68.78V109.49H73c2.49,0,4.52.86,4.52,3.66a3.43,3.43,0,0,1-2.09,3.39l2.66,4.7Zm-3.71-6.34h1.37c1.39,0,2.14-.59,2.14-1.75s-.76-1.55-2.14-1.55H71.42Z"/><path class="cls-5" d="M79.87,109.49h2.65v11.74H79.87Z"/><path class="cls-5" d="M87.57,111.72H84.35v-2.23h9.11v2.23H90.23v9.51H87.57Z"/><path class="cls-5" d="M95.29,109.49h7.35v2.23h-4.7v2.36h4v2.21h-4V119h4.88v2.23H95.29Z"/><path class="cls-5" d="M111.51,121.23,109.26,117H107.8v4.23h-2.65V109.49h4.23c2.48,0,4.52.86,4.52,3.66a3.43,3.43,0,0,1-2.09,3.39l2.66,4.7Zm-3.71-6.34h1.37c1.39,0,2.14-.59,2.14-1.75s-.76-1.55-2.14-1.55H107.8Z"/><path class="cls-5" d="M116.24,109.49h2.65v11.74h-2.65Z"/><path class="cls-5" d="M127.17,118.44h-3.58l-.72,2.79h-2.7l3.67-11.74H127l3.67,11.74h-2.81Zm-.54-2.07-.27-1.08c-.32-1.17-.65-2.56-1-3.78h-.07c-.29,1.24-.59,2.61-.92,3.78l-.29,1.08Z"/><path class="cls-5" d="M542.36,109.49h3.31c3.58,0,5.89,1.78,5.89,5.82s-2.3,5.92-5.74,5.92h-3.46Zm3.15,9.6c2,0,3.33-1,3.33-3.78s-1.33-3.67-3.33-3.67H545v7.45Z"/><path class="cls-5" d="M553.79,109.49h7.35v2.23h-4.7v2.36h4v2.21h-4V119h4.88v2.23h-7.53Z"/><path class="cls-5" d="M568.7,109.27a4.94,4.94,0,0,1,3.48,1.53l-1.46,1.64a2.8,2.8,0,0,0-2-.88c-1.64,0-2.92,1.42-2.92,3.78s1.12,3.82,2.84,3.82a2.91,2.91,0,0,0,2.23-1l1.46,1.6a4.79,4.79,0,0,1-3.73,1.73c-3,0-5.53-2.07-5.53-6S565.67,109.27,568.7,109.27Z"/><path class="cls-5" d="M574.13,109.49h2.65v11.74h-2.65Z"/><path class="cls-5" d="M580.3,117.93a4.76,4.76,0,0,0,2.9,1.22c1.1,0,1.64-.43,1.64-1.13s-.67-1-1.69-1.4l-1.53-.65a3.42,3.42,0,0,1-2.36-3.21c0-1.94,1.73-3.49,4.18-3.49a5.43,5.43,0,0,1,3.78,1.55l-1.35,1.67a3.8,3.8,0,0,0-2.43-.94c-.92,0-1.49.4-1.49,1.06s.77,1,1.78,1.39l1.51.61a3.24,3.24,0,0,1,2.32,3.19c0,1.94-1.62,3.64-4.43,3.64a6.43,6.43,0,0,1-4.34-1.69Z"/><path class="cls-5" d="M589.56,109.49h2.65v11.74h-2.65Z"/><path class="cls-5" d="M594.42,115.3c0-3.83,2.16-6,5.33-6s5.33,2.21,5.33,6-2.16,6.14-5.33,6.14S594.42,119.14,594.42,115.3Zm7.94,0c0-2.34-1-3.75-2.61-3.75s-2.61,1.4-2.61,3.75,1,3.85,2.61,3.85S602.36,117.66,602.36,115.3Z"/><path class="cls-5" d="M607.29,109.49H610l3.06,5.83,1.15,2.59h.07c-.11-1.24-.32-2.9-.32-4.29v-4.14h2.52v11.74h-2.72l-3.06-5.85-1.15-2.56h-.07c.11,1.3.32,2.86.32,4.25v4.16h-2.52Z"/><path class="cls-5" d="M340,109.49h2.65v11.74H340Z"/><path class="cls-5" d="M347.73,111.72h-3.22v-2.23h9.11v2.23h-3.22v9.51h-2.67Z"/><path class="cls-5" d="M355.45,109.49h7.35v2.23h-4.7v2.36h4v2.21h-4V119H363v2.23h-7.53Z"/><path class="cls-5" d="M371.67,121.23,369.42,117H368v4.23h-2.65V109.49h4.23c2.49,0,4.52.86,4.52,3.65a3.43,3.43,0,0,1-2.09,3.39l2.66,4.7ZM368,114.89h1.37c1.39,0,2.14-.59,2.14-1.75s-.76-1.55-2.14-1.55H368Z"/><path class="cls-5" d="M381.73,118.44h-3.58l-.72,2.79h-2.7l3.67-11.74h3.19l3.67,11.74h-2.81Zm-.54-2.07-.27-1.08c-.32-1.17-.65-2.56-1-3.78h-.07c-.29,1.24-.59,2.61-.92,3.78l-.29,1.08Z"/><path class="cls-5" d="M388.1,111.72h-3.22v-2.23H394v2.23h-3.22v9.51H388.1Z"/><path class="cls-5" d="M395.83,109.49h7.35v2.23h-4.7v2.36h4v2.21h-4V119h4.88v2.23h-7.53Z"/><path class="cls-5" d="M419.1,121.44a10.32,10.32,0,0,1-3-1.19,6,6,0,0,1-3.69,1.19c-2.56,0-3.91-1.55-3.91-3.35a3.83,3.83,0,0,1,2.14-3.31,5.39,5.39,0,0,1-.72-2.43,3,3,0,0,1,3.19-3.08,2.6,2.6,0,0,1,2.88,2.66c0,1.53-1.22,2.5-2.45,3.33a14.17,14.17,0,0,0,2.36,2.14,7.85,7.85,0,0,0,1.35-2.81h2.41a12.92,12.92,0,0,1-2,4,7,7,0,0,0,2,.74Zm-6.36-2a2.89,2.89,0,0,0,1.49-.47,15.67,15.67,0,0,1-2.45-2.43,1.93,1.93,0,0,0-.79,1.4A1.55,1.55,0,0,0,412.75,119.43Zm-.27-5.69c.85-.5,1.49-1,1.49-1.8,0-.56-.25-.92-.81-.92s-1.06.5-1.06,1.31A3.35,3.35,0,0,0,412.48,113.74Z"/><path class="cls-5" d="M425.18,109.49h2.65v11.74h-2.65Z"/><path class="cls-5" d="M430.6,109.49h2.81l2,5.28.7,2.05h.07l.7-2.05,1.91-5.28h2.79v11.74h-2.47v-4.3c0-1.15.22-2.86.34-4h-.07l-1,2.72-1.8,4.56h-1.06l-1.8-4.56-.94-2.72h-.07c.13,1.13.32,2.84.32,4v4.3H430.6Z"/><path class="cls-5" d="M444.32,109.49h4.29c2.54,0,4.59.94,4.59,3.78s-2.11,4-4.59,4H447v4h-2.65Zm4.12,5.65c1.46,0,2.16-.65,2.16-1.87s-.76-1.67-2.16-1.67H447v3.55Z"/><path class="cls-5" d="M461.58,121.23,459.33,117h-1.46v4.23h-2.65V109.49h4.23c2.48,0,4.52.86,4.52,3.65a3.43,3.43,0,0,1-2.09,3.39l2.66,4.7Zm-3.71-6.34h1.37c1.39,0,2.14-.59,2.14-1.75s-.76-1.55-2.14-1.55h-1.37Z"/><path class="cls-5" d="M465.76,115.3c0-3.83,2.16-6,5.33-6s5.33,2.21,5.33,6-2.16,6.14-5.33,6.14S465.76,119.14,465.76,115.3Zm7.94,0c0-2.34-1-3.75-2.61-3.75s-2.61,1.4-2.61,3.75,1,3.85,2.61,3.85S473.7,117.66,473.7,115.3Z"/><path class="cls-5" d="M476.93,109.49h2.81l1.4,5.47c.36,1.28.59,2.47,1,3.76h.07c.34-1.3.59-2.48.94-3.76l1.39-5.47h2.7l-3.53,11.74h-3.19Z"/><path class="cls-5" d="M488.45,109.49h7.35v2.23h-4.7v2.36h4v2.21h-4V119H496v2.23h-7.53Z"/><path class="cls-5" d="M231.3,117.93a4.76,4.76,0,0,0,2.9,1.22c1.1,0,1.64-.43,1.64-1.13s-.67-1-1.69-1.4l-1.53-.65a3.42,3.42,0,0,1-2.36-3.21c0-1.94,1.73-3.49,4.18-3.49a5.43,5.43,0,0,1,3.78,1.55l-1.35,1.67a3.8,3.8,0,0,0-2.43-.94c-.92,0-1.49.4-1.49,1.06s.77,1,1.78,1.39l1.51.61a3.24,3.24,0,0,1,2.32,3.19c0,1.94-1.62,3.64-4.43,3.64a6.43,6.43,0,0,1-4.34-1.69Z"/><path class="cls-5" d="M240.48,109.49h2.67v6.57c0,2.3.72,3.1,2,3.1s2.07-.79,2.07-3.1v-6.57h2.56v6.3c0,3.94-1.6,5.65-4.63,5.65s-4.7-1.71-4.7-5.65Z"/><path class="cls-5" d="M252.52,109.49h4c2.43,0,4.32.67,4.32,2.92a2.56,2.56,0,0,1-2,2.54V115c1.67.31,2.54,1.19,2.54,2.75,0,2.39-2,3.46-4.55,3.46h-4.36Zm3.89,4.74c1.3,0,1.85-.56,1.85-1.44s-.59-1.24-1.84-1.24h-1.26v2.68Zm.25,5c1.44,0,2.18-.54,2.18-1.6s-.72-1.48-2.18-1.48h-1.49v3.08Z"/><path class="cls-5" d="M263.41,109.49h2.81l2,5.28.7,2.05H269l.7-2.05,1.91-5.28h2.79v11.74h-2.47v-4.3c0-1.15.22-2.86.34-4h-.07l-1,2.72-1.8,4.56h-1.06l-1.8-4.56-.94-2.72h-.07c.13,1.13.32,2.84.32,4v4.3h-2.43Z"/><path class="cls-5" d="M277.13,109.49h2.65v11.74h-2.65Z"/><path class="cls-5" d="M284.83,111.72h-3.22v-2.23h9.11v2.23h-3.22v9.51h-2.67Z"/></g></g></svg>