<?xml version="1.0" encoding="UTF-8" standalone="no"?>
<svg
   xmlns:dc="http://purl.org/dc/elements/1.1/"
   xmlns:cc="http://creativecommons.org/ns#"
   xmlns:rdf="http://www.w3.org/1999/02/22-rdf-syntax-ns#"
   xmlns:svg="http://www.w3.org/2000/svg"
   xmlns="http://www.w3.org/2000/svg"
   xmlns:sodipodi="http://sodipodi.sourceforge.net/DTD/sodipodi-0.dtd"
   xmlns:inkscape="http://www.inkscape.org/namespaces/inkscape"
   viewBox="0 0 96.34 76.58"
   version="1.1"
   id="svg13055"
   sodipodi:docname="Step_2.svg"
   inkscape:version="0.92.1 15371">
  <metadata
     id="metadata13059">
    <rdf:RDF>
      <cc:Work
         rdf:about="">
        <dc:format>image/svg+xml</dc:format>
        <dc:type
           rdf:resource="http://purl.org/dc/dcmitype/StillImage" />
      </cc:Work>
    </rdf:RDF>
  </metadata>
  <sodipodi:namedview
     pagecolor="#ffffff"
     bordercolor="#666666"
     borderopacity="1"
     objecttolerance="10"
     gridtolerance="10"
     guidetolerance="10"
     inkscape:pageopacity="0"
     inkscape:pageshadow="2"
     inkscape:window-width="1855"
     inkscape:window-height="1056"
     id="namedview13057"
     showgrid="false"
     inkscape:zoom="8.5727709"
     inkscape:cx="17.943112"
     inkscape:cy="48.998961"
     inkscape:window-x="1431"
     inkscape:window-y="24"
     inkscape:window-maximized="1"
     inkscape:current-layer="svg13055" />
  <defs
     id="defs12941">
    <style
       id="style12939">.cls-1{fill:#70c168;}.cls-2{fill:none;}.cls-3{fill:#55bb6e;}.cls-4{fill:#fff;}</style>
  </defs>
  <title
     id="title12943">Step_2</title>
  <rect
     class="cls-1"
     x="31.24301"
     y="70.693138"
     width="25.809999"
     height="3.8599999"
     transform="rotate(-14.03)"
     id="rect12945"
     style="fill:#70c168" />
  <rect
     class="cls-1"
     x="-45.226601"
     y="20.012461"
     width="3.8599999"
     height="25.809999"
     transform="rotate(-75.96)"
     id="rect12947"
     style="fill:#70c168" />
  <rect
     class="cls-1"
     x="-54.690826"
     y="22.377871"
     width="3.8599999"
     height="25.809999"
     transform="rotate(-75.96)"
     id="rect12949"
     style="fill:#70c168" />
  <path
     class="cls-2"
     d="m 63.42,37.51 -16,4 0.65,2.61 h 0.43 a 20.06,20.06 0 0 0 14.92,-6.61 z"
     id="path12951"
     inkscape:connector-curvature="0"
     style="fill:none" />
  <path
     class="cls-2"
     d="m 71.84,39.38 1.6,-0.4 L 72.5,35.24 69.28,36 c -0.09,0.16 -0.2,0.32 -0.3,0.48 z"
     id="path12953"
     inkscape:connector-curvature="0"
     style="fill:none" />
  <path
     class="cls-2"
     d="m 48.39,25.73 20,-5 a 19.81,19.81 0 0 0 -1,-3.72 L 47.46,22 Z"
     id="path12955"
     inkscape:connector-curvature="0"
     style="fill:none" />
  <path
     class="cls-2"
     d="M 34.41,31.74 29.5,30.51 A 20.05,20.05 0 0 0 31.74,35 l 1.74,0.44 z"
     id="path12957"
     inkscape:connector-curvature="0"
     style="fill:none" />
  <path
     class="cls-2"
     d="m 47.46,31.74 0.94,3.74 19.1,-4.77 a 19.94,19.94 0 0 0 1,-4.23 z"
     id="path12959"
     inkscape:connector-curvature="0"
     style="fill:none" />
  <path
     class="cls-2"
     d="m 28.43,24.46 5.05,1.26 0.93,-3.72 -5.7,-1.43 a 19.75,19.75 0 0 0 -0.3,3.44 c 0,0.14 0.01,0.29 0.02,0.45 z"
     id="path12961"
     inkscape:connector-curvature="0"
     style="fill:none" />
  <path
     class="cls-2"
     d="m 39,41.73 a 20,20 0 0 0 3.86,1.58 V 17.56 L 64.75,12.1 a 20.28,20.28 0 0 0 -3,-3.24 L 41,14.07 32.5,11.94 A 20.13,20.13 0 0 0 30.41,15.4 L 39,17.56 Z"
     id="path12963"
     inkscape:connector-curvature="0"
     style="fill:none" />
  <path
     class="cls-2"
     d="m 48.39,55 -0.94,-3.74 16.36,-4.09 -2.73,-2.73 a 23.91,23.91 0 0 1 -18.2,2.87 V 72.12 L 78.05,63.33 V 61.4 L 67,50.35 Z"
     id="path12965"
     inkscape:connector-curvature="0"
     style="fill:none" />
  <polygon
     class="cls-2"
     points="72.09,45.1 68.18,46.08 71.36,49.26 73.43,48.74 72.66,45.67 "
     id="polygon12967"
     style="fill:none" />
  <path
     class="cls-2"
     d="m 73.43,19.47 -1.28,0.32 a 23.9,23.9 0 0 1 0.39,4.2 c 0,0.5 0,1 -0.05,1.49 v 0 l 0.94,3.74 -1.57,0.39 A 23.83,23.83 0 0 1 69.28,36 l 3.22,-0.81 0.93,3.81 -1.6,0.4 6.21,6.21 V 8.77 l -9.29,2.32 a 24,24 0 0 1 2.41,5 l 1.33,-0.33 z"
     id="path12969"
     inkscape:connector-curvature="0"
     style="fill:none" />
  <path
     class="cls-1"
     d="m 73.43,19.47 -0.94,-3.74 -1.33,0.33 a 23.76,23.76 0 0 1 1,3.73 z"
     id="path12971"
     inkscape:connector-curvature="0"
     style="fill:#70c168" />
  <path
     class="cls-1"
     d="m 73.43,29.23 -0.94,-3.74 v 0 a 23.88,23.88 0 0 1 -0.62,4.13 z"
     id="path12973"
     inkscape:connector-curvature="0"
     style="fill:#70c168" />
  <path
     class="cls-2"
     d="m 33.48,25.72 -5.05,-1.26 a 20,20 0 0 0 1.08,6 l 4.91,1.23 -0.94,3.74 L 31.74,35 A 20.28,20.28 0 0 0 39,41.73 V 17.56 L 30.36,15.4 a 20.21,20.21 0 0 0 -1.65,5.16 l 5.7,1.44 z"
     id="path12975"
     inkscape:connector-curvature="0"
     style="fill:none" />
  <path
     class="cls-2"
     d="M 61.78,8.86 A 20,20 0 0 0 32.45,11.94 L 41,14.07 Z"
     id="path12977"
     inkscape:connector-curvature="0"
     style="fill:none" />
  <path
     class="cls-2"
     d="m 42.88,43.3 a 20.11,20.11 0 0 0 5.23,0.81 l -0.65,-2.61 16,-4 a 20.13,20.13 0 0 0 4.08,-6.8 l -19.15,4.79 -0.94,-3.74 21,-5.26 A 20.18,20.18 0 0 0 68.68,24 20,20 0 0 0 68.41,20.73 l -20,5 L 47.46,22 67.4,17 a 20.29,20.29 0 0 0 -2.65,-4.91 l -21.87,5.47 z"
     id="path12979"
     inkscape:connector-curvature="0"
     style="fill:none" />
  <path
     class="cls-2"
     d="M 33.48,45.24 8.44,39 l 0.94,-3.74 22,5.51 a 24.06,24.06 0 0 1 -4.75,-7 L 8.44,29.22 9.38,25.48 25.18,29.43 A 24,24 0 0 1 24.55,24 c 0,-0.17 0,-0.33 0,-0.5 L 8.43,19.5 9.37,15.76 25,19.62 a 23.87,23.87 0 0 1 1.58,-5.18 L 3.86,8.77 V 63.33 L 39,72.12 V 46 a 24,24 0 0 1 -5,-3 z"
     id="path12981"
     inkscape:connector-curvature="0"
     style="fill:none" />
  <path
     class="cls-1"
     d="m 8.44,19.46 16.12,4 a 23.9,23.9 0 0 1 0.4,-3.88 L 9.38,15.72 Z"
     id="path12983"
     inkscape:connector-curvature="0"
     style="fill:#70c168" />
  <path
     class="cls-1"
     d="m 9.38,25.48 -0.94,3.74 18.21,4.55 a 23.76,23.76 0 0 1 -1.48,-4.35 z"
     id="path12985"
     inkscape:connector-curvature="0"
     style="fill:#70c168" />
  <path
     class="cls-1"
     d="m 8.44,39 25,6.26 0.56,-2.2 a 24.17,24.17 0 0 1 -2.62,-2.32 l -22,-5.51 z"
     id="path12987"
     inkscape:connector-curvature="0"
     style="fill:#70c168" />
  <path
     class="cls-1"
     d="M 78.05,8.77 V 45.6 l 3.86,3.86 V 3.83 L 66.19,7.76 a 24.14,24.14 0 0 1 2.57,3.34 z"
     id="path12989"
     inkscape:connector-curvature="0"
     style="fill:#70c168" />
  <path
     class="cls-1"
     d="M 78.05,63.33 42.88,72.12 V 47.3 A 23.79,23.79 0 0 1 39,46 V 72.12 L 3.86,63.33 V 8.77 l 22.68,5.67 a 24,24 0 0 1 1.89,-3.5 L 0,3.83 V 66.34 L 41,76.58 82,66.34 V 65.26 L 78.05,61.4 Z"
     id="path12991"
     inkscape:connector-curvature="0"
     style="fill:#70c168" />
  <path
     class="cls-3"
     d="m 61.08,44.44 -1.28,-1.28 1,-1 -12.41,3.08 -0.28,-1.13 A 20.05,20.05 0 0 1 31.74,35 l -5.08,-1.27 a 24.06,24.06 0 0 0 4.75,7 l 3,0.75 -0.41,1.58 a 23.89,23.89 0 0 0 27.06,1.38 z"
     id="path12993"
     inkscape:connector-curvature="0"
     style="fill:#70c168;fill-opacity:1" />
  <path
     class="cls-3"
     d="m 25,19.62 3.75,0.94 A 20.12,20.12 0 0 1 67.4,17 l 3.77,-0.94 A 24,24 0 0 0 25,19.62 Z"
     id="path12995"
     inkscape:connector-curvature="0"
     style="fill:#70c168;fill-opacity:1" />
  <path
     class="cls-3"
     d="m 72.54,24 a 23.9,23.9 0 0 0 -0.39,-4.2 l -3.74,0.94 a 20,20 0 0 1 0.27,3.26 20.18,20.18 0 0 1 -0.17,2.49 l 4,-1 c 0.01,-0.49 0.03,-1 0.03,-1.49 z"
     id="path12997"
     inkscape:connector-curvature="0"
     style="fill:#70c168;fill-opacity:1" />
  <path
     class="cls-3"
     d="m 28.43,24.46 -3.86,-1 c 0,0.17 0,0.33 0,0.5 a 24,24 0 0 0 0.62,5.43 l 4.33,1.08 a 20,20 0 0 1 -1.09,-6.01 z"
     id="path12999"
     inkscape:connector-curvature="0"
     style="fill:#70c168;fill-opacity:1" />
  <path
     class="cls-3"
     d="m 67.71,35.25 0.95,0.95 0.62,-0.16 a 23.83,23.83 0 0 0 2.59,-6.43 l -4.37,1.1 a 20.13,20.13 0 0 1 -4.08,6.8 l 2.71,-0.68 z"
     id="path13001"
     inkscape:connector-curvature="0"
     style="fill:#70c168;fill-opacity:1" />
  <path
     class="cls-3"
     d="m 72.15,19.79 a 23.76,23.76 0 0 0 -1,-3.73 L 67.4,17 a 19.81,19.81 0 0 1 1,3.72 z"
     id="path13003"
     inkscape:connector-curvature="0"
     style="fill:#70c168;fill-opacity:1" />
  <path
     class="cls-3"
     d="m 72.48,25.49 -4,1 a 19.94,19.94 0 0 1 -1,4.23 l 4.36,-1.09 a 23.88,23.88 0 0 0 0.64,-4.14 z"
     id="path13005"
     inkscape:connector-curvature="0"
     style="fill:#70c168;fill-opacity:1" />
  <path
     class="cls-3"
     d="m 63.42,37.51 a 20.06,20.06 0 0 1 -14.88,6.62 h -0.43 l 0.28,1.13 12.43,-3.11 5.3,-5.3 z"
     id="path13007"
     inkscape:connector-curvature="0"
     style="fill:#70c168;fill-opacity:1" />
  <path
     class="cls-3"
     d="m 69,36.52 c 0.1,-0.16 0.2,-0.31 0.3,-0.48 l -0.62,0.16 z"
     id="path13009"
     inkscape:connector-curvature="0"
     style="fill:#55bb6e" />
  <path
     class="cls-3"
     d="m 28.43,24.46 c 0,-0.16 0,-0.31 0,-0.47 a 19.75,19.75 0 0 1 0.3,-3.44 L 25,19.62 a 23.9,23.9 0 0 0 -0.4,3.88 z"
     id="path13011"
     inkscape:connector-curvature="0"
     style="fill:#70c168;fill-opacity:1" />
  <path
     class="cls-3"
     d="m 25.17,29.43 a 23.76,23.76 0 0 0 1.48,4.35 L 31.74,35 A 20.05,20.05 0 0 1 29.5,30.46 Z"
     id="path13013"
     inkscape:connector-curvature="0"
     style="fill:#70c168;fill-opacity:1" />
  <path
     class="cls-3"
     d="m 34.41,41.49 -3,-0.75 A 24.17,24.17 0 0 0 34,43.06 Z"
     id="path13015"
     inkscape:connector-curvature="0"
     style="fill:#55bb6e" />
  <polygon
     class="cls-2"
     points="67.71,40.71 65.26,43.16 68.18,46.08 72.09,45.1 "
     id="polygon13017"
     style="fill:none" />
  <path
     class="cls-2"
     d="M 89.53,67.42 A 1.73,1.73 0 1 0 92,65 L 81.91,54.91 v 4.89 z"
     id="path13019"
     inkscape:connector-curvature="0"
     style="fill:none" />
  <polygon
     class="cls-2"
     points="78.05,51.05 72.66,45.67 73.43,48.74 71.36,49.26 78.05,55.95 "
     id="polygon13021"
     style="fill:none" />
  <polygon
     class="cls-1"
     points="47.46,51.26 48.4,55 67,50.35 63.81,47.17 "
     id="polygon13023"
     style="fill:#70c168" />
  <path
     class="cls-3"
     d="M 65.48,41 71.84,39.41 69,36.52 A 24.1,24.1 0 0 1 65.48,41 Z"
     id="path13025"
     inkscape:connector-curvature="0"
     style="fill:#70c168;fill-opacity:1" />
  <path
     class="cls-3"
     d="M 94.7,62.25 81.91,49.46 v 5.46 L 92,65 a 1.7324116,1.7324116 0 1 1 -2.45,2.45 L 81.91,59.8 v 5.46 l 4.89,4.89 a 5.59,5.59 0 0 0 7.9,-7.9 z"
     id="path13027"
     inkscape:connector-curvature="0"
     style="fill:#70c168;fill-opacity:1" />
  <polygon
     class="cls-3"
     points="67,50.35 78.05,61.4 78.05,55.95 71.36,49.26 "
     id="polygon13029"
     style="fill:#70c168;fill-opacity:1" />
  <path
     class="cls-3"
     d="m 65.48,41 a 24.16,24.16 0 0 1 -4.39,3.46 l 2.73,2.73 4.37,-1.09 -2.92,-2.92 2.45,-2.45 4.39,4.39 0.4,-0.1 0.17,0.67 5.39,5.39 V 45.6 l -6.21,-6.21 z"
     id="path13031"
     inkscape:connector-curvature="0"
     style="fill:#70c168;fill-opacity:1" />
  <polygon
     class="cls-3"
     points="78.05,55.95 78.05,61.4 81.91,65.26 81.91,59.8 "
     id="polygon13033"
     style="fill:#70c168;fill-opacity:1" />
  <polygon
     class="cls-3"
     points="78.05,51.05 81.91,54.91 81.91,49.46 78.05,45.6 "
     id="polygon13035"
     style="fill:#70c168;fill-opacity:1" />
  <path
     class="cls-3"
     d="m 60.83,42.13 -1,1 1.28,1.28 A 24.16,24.16 0 0 0 65.48,41 Z"
     id="path13037"
     inkscape:connector-curvature="0"
     style="fill:#70c168;fill-opacity:1" />
  <polygon
     class="cls-3"
     points="68.66,36.2 67.71,35.25 66.13,36.83 "
     id="polygon13039"
     style="fill:#70c168;fill-opacity:1" />
  <path
     class="cls-3"
     d="m 69,36.52 -0.32,-0.32 -2.52,0.63 -5.3,5.3 L 65.48,41 A 24.1,24.1 0 0 0 69,36.52 Z"
     id="path13041"
     inkscape:connector-curvature="0"
     style="fill:#70c168;fill-opacity:1" />
  <polygon
     class="cls-3"
     points="63.81,47.17 67,50.35 71.36,49.26 68.18,46.08 "
     id="polygon13043"
     style="fill:#70c168;fill-opacity:1" />
  <polygon
     class="cls-3"
     points="72.66,45.67 72.5,45 72.09,45.1 "
     id="polygon13045"
     style="fill:#55bb6e" />
  <path
     class="cls-1"
     d="M 48.32,39.12 A 15.18,15.18 0 0 1 33.65,27.69 l 3.74,-1 a 11.31,11.31 0 0 0 13.75,8.21 l 1,3.74 a 15.28,15.28 0 0 1 -3.82,0.48 z"
     id="path13047"
     inkscape:connector-curvature="0"
     style="fill:#70c168" />
  <line
     class="cls-4"
     x1="73.349998"
     y1="43.630001"
     x2="68.18"
     y2="48.799999"
     id="line13049"
     style="fill:#ffffff" />
  <rect
     class="cls-3"
     x="13.709296"
     y="80.780853"
     width="7.3200002"
     height="3.8599999"
     transform="rotate(-45)"
     id="rect13051"
     style="fill:#70c168;fill-opacity:1" />
</svg>
