<svg xmlns="http://www.w3.org/2000/svg" viewBox="0 0 30 52.44"><defs><style>.cls-1{fill:#32b7b7;}</style></defs><title>Asset 26</title><g id="Layer_2" data-name="Layer 2"><g id="Featured_Blog_Posts" data-name="Featured Blog Posts"><path class="cls-1" d="M15,0A15,15,0,1,0,25.52,25.67l0,0,0,0A15,15,0,0,0,15,0ZM27.3,13.68h-11V2.7A12.39,12.39,0,0,1,27.3,13.68Zm-2.7,9.11-6.43-6.48H27.3A12.31,12.31,0,0,1,24.6,22.79ZM2.63,15A12.39,12.39,0,0,1,13.68,2.7V15s0,.05,0,.08a1.15,1.15,0,0,0,.33.79l0,.05h0l8.66,8.71A12.36,12.36,0,0,1,2.63,15Z"/><path class="cls-1" d="M26.44,36.92H3.56a1.32,1.32,0,0,0,0,2.63H26.44a1.32,1.32,0,0,0,0-2.63Z"/><path class="cls-1" d="M26.44,43.23H3.56a1.32,1.32,0,0,0,0,2.63H26.44a1.32,1.32,0,0,0,0-2.63Z"/><path class="cls-1" d="M26.44,49.8H3.56a1.32,1.32,0,1,0,0,2.63H26.44a1.32,1.32,0,0,0,0-2.63Z"/></g></g></svg>