<svg id="Layer_1" data-name="Layer 1" xmlns="http://www.w3.org/2000/svg" viewBox="0 0 76.28 57.77">
  <defs>
    <style>
      .cls-1 {
        fill: #fff;
      }

      .cls-2 {
        fill: #f36;
      }
    </style>
  </defs>
  <title>real_time_information</title>
  <rect class="cls-1" width="76.28" height="57.77"/>
  <g>
    <path class="cls-2" d="M2524.31,4774.38h-2a0.44,0.44,0,1,1,0-.88h2A0.44,0.44,0,1,1,2524.31,4774.38Z" transform="translate(-2465.12 -4755.56)"/>
    <path class="cls-2" d="M2529.38,4775.62h-7.53a3.13,3.13,0,0,1,.77.88h6.76a0.67,0.67,0,0,1,.67.67V4797a0.67,0.67,0,0,1-.67.67h-6.33v0.88h6.33a1.55,1.55,0,0,0,1.54-1.54v-19.8A1.55,1.55,0,0,0,2529.38,4775.62Z" transform="translate(-2465.12 -4755.56)"/>
    <g>
      <path class="cls-2" d="M2521.08,4801.46a2.05,2.05,0,0,0,.92-1.68A2.22,2.22,0,0,0,2521.08,4801.46Z" transform="translate(-2465.12 -4755.56)"/>
      <path class="cls-2" d="M2523.29,4799.36h-0.24v0.37a3.11,3.11,0,0,1,0,.52,1.34,1.34,0,1,1-1,1.77,3.11,3.11,0,0,1-.74.5A2.22,2.22,0,1,0,2523.29,4799.36Z" transform="translate(-2465.12 -4755.56)"/>
    </g>
    <path class="cls-2" d="M2530.72,4771.68h-14.87a2.65,2.65,0,0,0-2.65,2.65v0.5h0.88v-0.5a1.78,1.78,0,0,1,1.77-1.77h14.87a1.78,1.78,0,0,1,1.77,1.77v29.12a1.78,1.78,0,0,1-1.77,1.77h-14.87a1.78,1.78,0,0,1-1.77-1.77v-0.73h-0.88v0.73a2.65,2.65,0,0,0,2.65,2.65h14.87a2.65,2.65,0,0,0,2.65-2.65v-29.12A2.65,2.65,0,0,0,2530.72,4771.68Z" transform="translate(-2465.12 -4755.56)"/>
    <path class="cls-2" d="M2478.85,4790.16a0.44,0.44,0,0,1-.44-0.44v-3a0.44,0.44,0,0,1,.88,0v3A0.44,0.44,0,0,1,2478.85,4790.16Z" transform="translate(-2465.12 -4755.56)"/>
    <path class="cls-2" d="M2480.58,4793.57V4781a0.44,0.44,0,1,1,.88,0v12.72a0.44,0.44,0,0,1-.88,0v-0.17" transform="translate(-2465.12 -4755.56)"/>
    <path class="cls-2" d="M2483.29,4790.16a0.44,0.44,0,0,1-.44-0.44V4784a0.44,0.44,0,1,1,.88,0v5.69A0.44,0.44,0,0,1,2483.29,4790.16Z" transform="translate(-2465.12 -4755.56)"/>
    <path class="cls-2" d="M2485.71,4790.16a0.44,0.44,0,0,1-.44-0.44v-4.25a0.44,0.44,0,0,1,.88,0v4.25A0.44,0.44,0,0,1,2485.71,4790.16Z" transform="translate(-2465.12 -4755.56)"/>
    <path class="cls-2" d="M2490.3,4790.16a0.44,0.44,0,0,1-.44-0.44v-4.25a0.44,0.44,0,0,1,.88,0v4.25A0.44,0.44,0,0,1,2490.3,4790.16Z" transform="translate(-2465.12 -4755.56)"/>
    <path class="cls-2" d="M2488,4790.16a0.44,0.44,0,0,1-.44-0.44v-6a0.44,0.44,0,0,1,.88,0v6A0.44,0.44,0,0,1,2488,4790.16Z" transform="translate(-2465.12 -4755.56)"/>
    <g>
      <path class="cls-2" d="M2506.53,4781.56h-10a1.35,1.35,0,0,0-1.35,1.35v12.67a1.35,1.35,0,0,0,1.35,1.35h10a1.35,1.35,0,0,0,1.35-1.35v-12.67A1.35,1.35,0,0,0,2506.53,4781.56Zm0.47,14a0.47,0.47,0,0,1-.47.47h-10a0.47,0.47,0,0,1-.47-0.47v-12.67a0.47,0.47,0,0,1,.47-0.47h10a0.47,0.47,0,0,1,.47.47v12.67Z" transform="translate(-2465.12 -4755.56)"/>
      <path class="cls-2" d="M2500.82,4789.59a2.63,2.63,0,0,0,3-3.85,2.61,2.61,0,0,0-1.59-1.23A2.63,2.63,0,1,0,2500.82,4789.59Zm-1-3a1.75,1.75,0,1,1,1.24,2.15A1.75,1.75,0,0,1,2499.82,4786.6Z" transform="translate(-2465.12 -4755.56)"/>
      <path class="cls-2" d="M2501.51,4790.05a3.08,3.08,0,0,0-3.08,3.08,0.44,0.44,0,0,0,.44.44h5.28a0.44,0.44,0,0,0,.44-0.44A3.08,3.08,0,0,0,2501.51,4790.05Zm-2.16,2.64a2.2,2.2,0,0,1,4.31,0h-4.31Z" transform="translate(-2465.12 -4755.56)"/>
    </g>
    <path class="cls-2" d="M2518,4788.78h-5.72a0.44,0.44,0,0,1-.44-0.44,6.16,6.16,0,0,1,6.16-6.16,0.44,0.44,0,0,1,.44.44v5.72A0.44,0.44,0,0,1,2518,4788.78Zm-5.26-.88h4.82v-4.82A5.29,5.29,0,0,0,2512.72,4787.9Z" transform="translate(-2465.12 -4755.56)"/>
    <path class="cls-2" d="M2521.56,4797.16v2.58a1.62,1.62,0,0,1-1.62,1.62h-36.88a1.62,1.62,0,0,1-1.62-1.62v-21.68h0a1.62,1.62,0,0,1,1.62-1.62h36.88a1.62,1.62,0,0,1,1.62,1.62v5.87a6.72,6.72,0,0,1,.88.25v-6.12a2.5,2.5,0,0,0-2.49-2.5h-28v-2.4a1.55,1.55,0,0,0-1.54-1.54h-1.56V4770a1.55,1.55,0,0,0-1.54-1.54H2474l0,0,0,0,0,0,0,0-3.75,3.68a0.44,0.44,0,0,0-.13.31h0v0.23h0v17a1.55,1.55,0,0,0,1.54,1.54H2473V4793a1.55,1.55,0,0,0,1.54,1.54h6v5.22a2.5,2.5,0,0,0,2.49,2.5h18v2.32h-8.27c-1.4,0-2.49,1.58-2.49,2.94a0.44,0.44,0,0,0,.44.44h21.52a0.44,0.44,0,0,0,.44-0.44c0-1.36-1.09-2.94-2.49-2.94h-8.27v-2.32h18a2.5,2.5,0,0,0,2.49-2.5v-2.83A6.71,6.71,0,0,1,2521.56,4797.16Zm-47.87-27.25v1.76a0.67,0.67,0,0,1-.67.67h-1.8Zm-0.52,5.52a0.44,0.44,0,0,0-.13.31h0v14.71h-1.56a0.67,0.67,0,0,1-.67-0.67v-16.57h2.2a1.55,1.55,0,0,0,1.54-1.54v-2.36h12.77a0.67,0.67,0,0,1,.67.67v1.65h-10.89l-0.05,0,0,0,0,0,0,0,0,0Zm3.62-2.32v1.76a0.67,0.67,0,0,1-.67.67h-1.8Zm3.78,5h0v15.58h-6a0.67,0.67,0,0,1-.67-0.67v-16.57h2.2a1.55,1.55,0,0,0,1.54-1.54v-2.36h12.77a0.67,0.67,0,0,1,.67.67v2.4h-8A2.5,2.5,0,0,0,2480.57,4778.06Zm29.64,27.37a2,2,0,0,1,1.57,1.62h-20.54a2,2,0,0,1,1.56-1.62h17.41Z" transform="translate(-2465.12 -4755.56)"/>
    <path class="cls-2" d="M2520.13,4796.7a6.16,6.16,0,0,1-6.16-6.16,0.44,0.44,0,0,1,.44-0.44h5.28v-5.28a0.44,0.44,0,0,1,.44-0.44A6.16,6.16,0,0,1,2520.13,4796.7Zm-5.26-5.72a5.28,5.28,0,1,0,5.7-5.7v5.26a0.44,0.44,0,0,1-.44.44h-5.26Z" transform="translate(-2465.12 -4755.56)"/>
  </g>
</svg>
