<svg xmlns="http://www.w3.org/2000/svg" viewBox="0 0 30.5 38.85">
    <defs><style>.cls-1{fill:#55bb6e;stroke:#55bb6e;stroke-miterlimit:10;stroke-width:1px;}</style></defs><title>Asset 30</title><g id="Layer_2" data-name="Layer 2"><g id="Featured_Blog_Posts" data-name="Featured Blog Posts"><path class="cls-1" d="M27.77,2.34H16V1a.73.73,0,1,0-1.46,0V2.34H2.73A2.48,2.48,0,0,0,.25,4.81V36.12A2.48,2.48,0,0,0,2.73,38.6h25a2.48,2.48,0,0,0,2.48-2.48V4.81A2.48,2.48,0,0,0,27.77,2.34Zm1,33.79a1,1,0,0,1-1,1h-25a1,1,0,0,1-1-1V4.81a1,1,0,0,1,1-1h11.8V5.15a.73.73,0,1,0,1.46,0V3.79h11.8a1,1,0,0,1,1,1Z"/><path class="cls-1" d="M10.49,14.84H20a.73.73,0,0,0,0-1.46H10.49a.73.73,0,0,0,0,1.46Z"/><path class="cls-1" d="M20,18.12H10.51a.73.73,0,1,0,0,1.46H20a.73.73,0,1,0,0-1.46Z"/><path class="cls-1" d="M20,22.65H10.49a.73.73,0,0,0,0,1.46H20a.73.73,0,0,0,0-1.46Z"/></g></g></svg>