<svg xmlns="http://www.w3.org/2000/svg" viewBox="0 0 35.21 41.69"><defs><style>.cls-1{fill:#33b8b8;}</style></defs><title>Asset 3</title><g id="Layer_2" data-name="Layer 2"><g id="Featured_Blog_Posts" data-name="Featured Blog Posts"><path class="cls-1" d="M32.74,5.11H30.26V2.47A2.47,2.47,0,0,0,27.79,0H6.64a.69.69,0,0,0-.22,0,.69.69,0,0,0-.16.1L6.2.2l-6,5.87h0a.7.7,0,0,0-.2.49H0v.36H0V34.12a2.47,2.47,0,0,0,2.47,2.47H5v2.64a2.47,2.47,0,0,0,2.47,2.47H32.74a2.47,2.47,0,0,0,2.47-2.47V7.57A2.47,2.47,0,0,0,32.74,5.11ZM6,2.37V5.17A1.07,1.07,0,0,1,4.92,6.24H2Zm-.83,8.81a.7.7,0,0,0-.21.5H5V12H5V35.18H2.47A1.07,1.07,0,0,1,1.4,34.12V7.64H4.92A2.47,2.47,0,0,0,7.39,5.17V1.4h20.4a1.07,1.07,0,0,1,1.07,1.07V5.11H11.62a.7.7,0,0,0-.25,0,.69.69,0,0,0-.15.1l-.07,0h0Zm5.78-3.7v2.81a1.07,1.07,0,0,1-1.07,1.07H7ZM33.81,39.22a1.07,1.07,0,0,1-1.07,1.07H7.42a1.07,1.07,0,0,1-1.07-1.07V12.75H9.88a2.47,2.47,0,0,0,2.47-2.47V6.51h20.4a1.07,1.07,0,0,1,1.07,1.07Z"/><path class="cls-1" d="M28.08,20.52H14.49a.78.78,0,0,0,0,1.56H28.08a.78.78,0,1,0,0-1.56Z"/><path class="cls-1" d="M28.08,24.26H14.49a.78.78,0,0,0,0,1.56H28.08a.78.78,0,1,0,0-1.56Z"/><path class="cls-1" d="M28.08,28.17H14.49a.78.78,0,0,0,0,1.56H28.08a.78.78,0,1,0,0-1.56Z"/></g></g></svg>