<svg xmlns="http://www.w3.org/2000/svg" viewBox="0 0 114.85 77.21"><defs><style>.cls-1{fill:#3cc;}</style></defs><title>Asset 1</title><g id="Layer_2" data-name="Layer 2"><g id="Featured_Blog_Posts" data-name="Featured Blog Posts"><path class="cls-1" d="M113.15,40.19a1.33,1.33,0,0,0,.65-.19,1.34,1.34,0,0,0,1-1.3,1.36,1.36,0,0,0-1.36-1.36H19.37a13.56,13.56,0,0,0-.81,27.09v2.87h-.84a15,15,0,0,1-15-15,1.36,1.36,0,1,0-2.72,0A17.74,17.74,0,0,0,17.72,70h.84v5.83a1.36,1.36,0,0,0,2.16,1.1l6.72-4.89,6.72,4.89a1.36,1.36,0,0,0,2.16-1.1V70h77.16a1.36,1.36,0,0,0,0-2.72H36.32V64.47h77.16a1.36,1.36,0,0,0,1.36-1.36,1.34,1.34,0,0,0-1-1.3,1.33,1.33,0,0,0-.65-.19,10.72,10.72,0,0,1,0-21.43Zm-79.55,33-5.36-3.9a1.36,1.36,0,0,0-1.6,0l-5.36,3.9v-24H33.6ZM99.71,50.9a13.42,13.42,0,0,0,5.53,10.84H36.32V56.43h61a1.36,1.36,0,1,0,0-2.73h-61V47.8A1.36,1.36,0,0,0,35,46.44h-15a1.36,1.36,0,0,0-1.36,1.36V61.7a10.83,10.83,0,0,1,.82-21.64h85.86A13.42,13.42,0,0,0,99.71,50.9Zm-65-33.17A1.36,1.36,0,0,1,36,16.36H97.31a1.36,1.36,0,1,1,0,2.73H36A1.36,1.36,0,0,1,34.67,17.73ZM113.15,2.85a1.32,1.32,0,0,0,.65-.19,1.34,1.34,0,0,0,1-1.3A1.36,1.36,0,0,0,113.49,0H19.37a13.56,13.56,0,0,0,0,27.13h94.11a1.36,1.36,0,0,0,1.36-1.36,1.34,1.34,0,0,0-1-1.3,1.33,1.33,0,0,0-.65-.19,10.72,10.72,0,0,1,0-21.43ZM99.71,13.56a13.42,13.42,0,0,0,5.52,10.84H19.37a10.84,10.84,0,0,1,0-21.68h85.86A13.42,13.42,0,0,0,99.71,13.56Zm15.14,17.75a1.36,1.36,0,0,1-1.36,1.36H17.72A17.74,17.74,0,0,1,0,15a1.36,1.36,0,1,1,2.72,0,15,15,0,0,0,15,15h95.77A1.36,1.36,0,0,1,114.85,31.32Z"/></g></g></svg>