<svg xmlns="http://www.w3.org/2000/svg" viewBox="0 0 47.42 37.45"><defs><style>.cls-1{fill:#33b8b8;}</style></defs><title>Asset 5</title><g id="Layer_2" data-name="Layer 2"><g id="Featured_Blog_Posts" data-name="Featured Blog Posts"><path class="cls-1" d="M33,6.9H7.55A7.56,7.56,0,0,0,0,14.45V25.88a7.56,7.56,0,0,0,7.55,7.55H26.67L32,37.29a.84.84,0,0,0,1.34-.69V33.42a7.56,7.56,0,0,0,7.22-7.55V14.45A7.56,7.56,0,0,0,33,6.9Zm5.87,19A5.87,5.87,0,0,1,33,31.74h-.51a.84.84,0,0,0-.84.84V35L27.43,31.9a.84.84,0,0,0-.49-.16H7.55a5.87,5.87,0,0,1-5.87-5.87V14.45A5.87,5.87,0,0,1,7.55,8.58H33a5.87,5.87,0,0,1,5.87,5.86Z"/><path class="cls-1" d="M31.49,14.35H9.73a.7.7,0,0,0,0,1.41H31.49a.7.7,0,0,0,0-1.41Z"/><path class="cls-1" d="M31.49,17.92H9.73a.7.7,0,0,0,0,1.41H31.49a.7.7,0,0,0,0-1.41Z"/><path class="cls-1" d="M31.49,21.48H9.73a.7.7,0,0,0,0,1.41H31.49a.7.7,0,0,0,0-1.41Z"/><path class="cls-1" d="M35.34,5.27a6.62,6.62,0,0,1,6.61,6.61.7.7,0,1,0,1.41,0,8,8,0,0,0-8-8,.7.7,0,0,0,0,1.41Z"/><path class="cls-1" d="M36.08,1.41A10,10,0,0,1,46,11.35a.7.7,0,1,0,1.41,0A11.36,11.36,0,0,0,36.08,0a.7.7,0,1,0,0,1.41Z"/></g></g></svg>