<svg xmlns="http://www.w3.org/2000/svg" viewBox="0 0 30.5 41.35"><defs><style>.cls-1{fill:#33b8b8;stroke:#32b7b7;stroke-miterlimit:10;stroke-width:0.5px;}</style></defs><title>Asset 29</title><g id="Layer_2" data-name="Layer 2"><g id="Featured_Blog_Posts" data-name="Featured Blog Posts"><path class="cls-1" d="M7.39,16.75H.81a.56.56,0,0,0-.56.56V38.15a.56.56,0,0,0,.56.56H3.54v1.83a.56.56,0,1,0,1.12,0V38.71H7.39A.56.56,0,0,0,8,38.15V17.31A.56.56,0,0,0,7.39,16.75Zm-.56,1.12v5.05H1.37V17.87ZM4.66,37.59V35.75a.56.56,0,1,0-1.12,0v1.83H1.37V24H6.83V37.59Z"/><path class="cls-1" d="M18.54,11.62H12a.56.56,0,0,0-.56.56v26a.56.56,0,0,0,.56.56h2.73v1.83a.56.56,0,1,0,1.12,0V38.71h2.73a.56.56,0,0,0,.56-.56v-26A.56.56,0,0,0,18.54,11.62ZM18,12.74V22.92H12.52V12.74ZM15.81,37.59V35.75a.56.56,0,1,0-1.12,0v1.83H12.52V24H18V37.59Z"/><path class="cls-1" d="M29.69.25H23.11a.56.56,0,0,0-.56.56V38.15a.56.56,0,0,0,.56.56h2.73v1.83a.56.56,0,1,0,1.12,0V38.71h2.73a.56.56,0,0,0,.56-.56V.81A.56.56,0,0,0,29.69.25Zm-.56,1.12V22.92H23.67V1.37ZM27,37.59V35.75a.56.56,0,1,0-1.12,0v1.83H23.67V24h5.46V37.59Z"/></g></g></svg>