<svg xmlns="http://www.w3.org/2000/svg" viewBox="0 0 34.79 47"><defs><style>.cls-1{fill:#33b8b8;}</style></defs><title>Asset 4</title><g id="Layer_2" data-name="Layer 2"><g id="Featured_Blog_Posts" data-name="Featured Blog Posts"><path class="cls-1" d="M8.28,19H.65a.65.65,0,0,0-.65.65v24a.65.65,0,0,0,.65.65H3.82v2.11a.65.65,0,0,0,1.3,0V44.25H8.28a.65.65,0,0,0,.65-.65v-24A.65.65,0,0,0,8.28,19Zm-.65,1.29v5.81H1.3V20.27ZM5.12,43V40.85a.65.65,0,0,0-1.3,0V43H1.3V27.38H7.63V43Z"/><path class="cls-1" d="M21.21,13.08H13.58a.65.65,0,0,0-.65.65V43.6a.65.65,0,0,0,.65.65h3.17v2.11a.65.65,0,0,0,1.3,0V44.25h3.17a.65.65,0,0,0,.65-.65V13.73A.65.65,0,0,0,21.21,13.08Zm-.65,1.29V26.09H14.23V14.37ZM18,43V40.85a.65.65,0,0,0-1.3,0V43H14.23V27.38h6.33V43Z"/><path class="cls-1" d="M34.14,0H26.5a.65.65,0,0,0-.65.65v43a.65.65,0,0,0,.65.65h3.17v2.11a.65.65,0,0,0,1.3,0V44.25h3.17a.65.65,0,0,0,.65-.65V.65A.65.65,0,0,0,34.14,0Zm-.65,1.29V26.09H27.15V1.29ZM31,43V40.85a.65.65,0,0,0-1.3,0V43H27.15V27.38h6.33V43Z"/></g></g></svg>