<svg id="Layer_1" data-name="Layer 1" xmlns="http://www.w3.org/2000/svg" viewBox="0 0 681.64 125.82">
  <defs>
    <style>
      .cls-1 {
        font-size: 19.36px;
        font-family: Source Sans Pro;
        font-weight: 700;
      }

      .cls-1, .cls-3 {
        fill: #a24499;
      }

      .cls-2 {
        fill: none;
        stroke: #a24499;
        stroke-miterlimit: 10;
      }
    </style>
  </defs>
  <title>startups_steps</title>
  <text class="cls-1" transform="translate(64.09 72.16)">CHECK<tspan x="0" y="24.19">ELIGIBILI</tspan><tspan x="77.77" y="24.19">T</tspan><tspan x="88.16" y="24.19">Y</tspan></text>
  <text class="cls-1" transform="translate(248.52 70.1)">READ <tspan x="0" y="24.19">REOI</tspan></text>
  <text class="cls-1" transform="translate(387.89 70.24)">READ<tspan x="0" y="24.19">F</tspan><tspan x="9.37" y="24.19">A</tspan><tspan x="20.23" y="24.19">Q</tspan></text>
  <text class="cls-1" transform="translate(508.24 83.14)">SUBMIT</text>
  <g>
    <line class="cls-2" x1="181.79" y1="75.08" x2="211.31" y2="75.08"/>
    <polygon class="cls-3" points="209.33 77.99 220.17 75.08 209.33 72.17 209.33 77.99"/>
  </g>
  <g>
    <line class="cls-2" x1="310.86" y1="75.6" x2="340.38" y2="75.6"/>
    <polygon class="cls-3" points="338.4 78.5 349.24 75.6 338.4 72.69 338.4 78.5"/>
  </g>
  <g>
    <line class="cls-2" x1="450.79" y1="75.6" x2="480.31" y2="75.6"/>
    <polygon class="cls-3" points="478.32 78.5 489.17 75.6 478.32 72.69 478.32 78.5"/>
  </g>
  <g>
    <path class="cls-3" d="M968.6,1509.8a7.22,7.22,0,0,0,5.09,8.84h0a7.21,7.21,0,0,0,8.13-10.57c-0.11-.19-0.22-0.36-0.35-0.55A7.21,7.21,0,0,0,968.6,1509.8Zm12.26,3.3a5.48,5.48,0,0,1-10.76-1.27l10.29-2.77A5.44,5.44,0,0,1,980.86,1513.1Zm-5.3-6.91a5.48,5.48,0,0,1,3.64,1.39l-8.84,2.38A5.49,5.49,0,0,1,975.56,1506.19Z" transform="translate(-341.17 -1468.17)"/>
    <path class="cls-3" d="M994.17,1504.16c0.9-4.13.21-7.59-1.94-9.74s-5.61-2.84-9.74-1.94a20.73,20.73,0,0,0-9.87,5.3l-14.7,14.63L942.34,1518a2.5,2.5,0,0,0-.91,4.11l3.33,3.33-1.22,1.21a3.31,3.31,0,0,0,0,4.68l11.72,11.72a3.29,3.29,0,0,0,2.34,1h0a3.29,3.29,0,0,0,2.34-1l1.21-1.22,3.45,3.45a2.48,2.48,0,0,0,1.76.73,2.52,2.52,0,0,0,.55-0.06,2.48,2.48,0,0,0,1.8-1.59l5.78-15.94L988.87,1514A20.72,20.72,0,0,0,994.17,1504.16Zm-11.25-9.71a13.66,13.66,0,0,1,2.9-.33,6.91,6.91,0,0,1,5,1.73c1.63,1.63,2.13,4.5,1.4,7.89a19,19,0,0,1-3,6.73l-13-13A19,19,0,0,1,982.92,1494.45Zm-40.07,26.29a0.48,0.48,0,0,1,.18-0.79l11.5-4.17-8.34,8.29Zm15.66,21a1.28,1.28,0,0,1-.92.38h0a1.28,1.28,0,0,1-.91-0.38L945,1530a1.29,1.29,0,0,1,0-1.83l1.22-1.22,13.54,13.54Zm8.31,2a0.47,0.47,0,0,1-.35.3,0.47,0.47,0,0,1-.44-0.13l-3.45-3.45,8.54-8.58Zm20.63-31.13h0L961.15,1539l-13.54-13.54L974,1499.21c0.17-.17.37-0.34,0.55-0.51L988,1512.05C987.78,1512.24,987.62,1512.43,987.44,1512.6Z" transform="translate(-341.17 -1468.17)"/>
    <path class="cls-3" d="M945.17,1549.64a6,6,0,0,0,1.46-1.05A6.08,6.08,0,1,0,938,1540a6,6,0,0,0-1,1.46l-0.05.11-4.26,11.09a1,1,0,0,0,1.3,1.3l11.09-4.26Zm-9.8,1.62,3.43-8.91a3.91,3.91,0,0,1,.67-0.93,4.06,4.06,0,0,1,5.74,5.74,3.91,3.91,0,0,1-.93.67Z" transform="translate(-341.17 -1468.17)"/>
    <path class="cls-3" d="M965.37,1516.87a4.4,4.4,0,1,0,3.11,1.29A4.37,4.37,0,0,0,965.37,1516.87Zm1.69,6.09a2.44,2.44,0,0,1-3.38,0A2.39,2.39,0,1,1,967.06,1523Z" transform="translate(-341.17 -1468.17)"/>
    <path class="cls-3" d="M956.15,1502.6a1,1,0,0,0,1.43,0l11.18-11.18a1,1,0,0,0-1.43-1.43l-11.18,11.18A1,1,0,0,0,956.15,1502.6Z" transform="translate(-341.17 -1468.17)"/>
    <path class="cls-3" d="M948.41,1475.23h4v4a1,1,0,1,0,2,0v-4h4a1,1,0,0,0,0-2h-4v-4a1,1,0,0,0-2,0v4h-4A1,1,0,0,0,948.41,1475.23Z" transform="translate(-341.17 -1468.17)"/>
    <path class="cls-3" d="M990.62,1475.23h4v4a1,1,0,1,0,2,0v-4h4a1,1,0,1,0,0-2h-4v-4a1,1,0,0,0-2,0v4h-4A1,1,0,0,0,990.62,1475.23Z" transform="translate(-341.17 -1468.17)"/>
    <path class="cls-3" d="M1011.72,1500.22h4v4a1,1,0,1,0,2,0v-4h4a1,1,0,1,0,0-2h-4v-4a1,1,0,1,0-2,0v4h-4A1,1,0,1,0,1011.72,1500.22Z" transform="translate(-341.17 -1468.17)"/>
    <path class="cls-3" d="M971.75,1514.23a5.41,5.41,0,0,0,7.65,0,1,1,0,0,0-1.43-1.43,3.39,3.39,0,0,1-4.79,0A1,1,0,0,0,971.75,1514.23Z" transform="translate(-341.17 -1468.17)"/>
  </g>
  <path class="cls-3" d="M400.22,1502.27h4v4a1,1,0,1,0,2,0v-4h4a1,1,0,1,0,0-2h-4v-4a1,1,0,1,0-2,0v4h-4A1,1,0,1,0,400.22,1502.27Z" transform="translate(-341.17 -1468.17)"/>
  <path class="cls-3" d="M375.35,1522.28h4v4a1,1,0,1,0,2,0v-4h4a1,1,0,0,0,0-2h-4v-4a1,1,0,1,0-2,0v4h-4A1,1,0,0,0,375.35,1522.28Z" transform="translate(-341.17 -1468.17)"/>
  <path class="cls-3" d="M342.17,1505.56h4v4a1,1,0,1,0,2,0v-4h4a1,1,0,1,0,0-2h-4v-4a1,1,0,1,0-2,0v4h-4A1,1,0,1,0,342.17,1505.56Z" transform="translate(-341.17 -1468.17)"/>
  <path class="cls-3" d="M362.19,1485.54h4v4a1,1,0,1,0,2,0v-4h4a1,1,0,0,0,0-2h-4v-4a1,1,0,1,0-2,0v4h-4A1,1,0,0,0,362.19,1485.54Z" transform="translate(-341.17 -1468.17)"/>
  <path class="cls-3" d="M360.94,1559h4v4a1,1,0,1,0,2,0v-4h4a1,1,0,0,0,0-2h-4v-4a1,1,0,1,0-2,0v4h-4A1,1,0,0,0,360.94,1559Z" transform="translate(-341.17 -1468.17)"/>
</svg>
