<?xml version="1.0" encoding="utf-8"?>
<!-- Generator: Adobe Illustrator 20.1.0, SVG Export Plug-In . SVG Version: 6.00 Build 0)  -->
<svg version="1.1" id="Layer_1" xmlns="http://www.w3.org/2000/svg" xmlns:xlink="http://www.w3.org/1999/xlink" x="0px" y="0px"
	 viewBox="0 0 70.5 88.6" style="enable-background:new 0 0 70.5 88.6;" xml:space="preserve">
<style type="text/css">
	.st0{fill:#1295D3;}
</style>
<g>
	<path class="st0" d="M13.6,39.3C13.5,39.3,13.5,39.3,13.6,39.3c-1-1.4-2.5-2.5-4.2-2.9c-0.6-0.2-1.3-0.3-1.9-0.3
		c-3.4,0-6.3,2.3-7.2,5.5c-1.1,4,1.3,8.1,5.3,9.1c0.6,0.2,1.3,0.3,1.9,0.3c3.4,0,6.3-2.3,7.2-5.5c0.5-1.9,0.3-3.9-0.7-5.7
		C13.8,39.7,13.7,39.5,13.6,39.3z M1.6,42c0.7-2.6,3.1-4.5,5.8-4.5c0.5,0,1.1,0.1,1.6,0.2c1,0.3,2,0.8,2.7,1.6L1.6,42
		C1.6,42.1,1.6,42.1,1.6,42z M13.3,45.2c-0.7,2.6-3.1,4.5-5.8,4.5c-0.5,0-1.1-0.1-1.6-0.2c-2.7-0.7-4.5-3.2-4.5-5.8l11.2-3
		c0,0,0,0,0,0C13.5,42,13.7,43.6,13.3,45.2z"/>
	<path class="st0" d="M7.4,52.6c-3.9,0-7.1,3.1-7.3,6.9c0,0,0,0.1,0,0.1v21.5c0,0.8,0.6,1.4,1.4,1.4l0,0l0,0h2.9v5.3
		c0,0.4,0.3,0.7,0.7,0.7c0.4,0,0.7-0.3,0.7-0.7v-5.3h3.7v5.3c0,0.4,0.3,0.7,0.7,0.7c0.4,0,0.7-0.3,0.7-0.7v-5.3h2.9
		c0.3,0,0.5-0.2,0.6-0.4c0.3-0.3,0.4-0.6,0.4-1V59.7c0,0,0-0.1,0-0.1C14.5,55.7,11.3,52.6,7.4,52.6z M13.4,81.2H1.5V60
		c0-3.3,2.7-5.9,5.9-5.9c3.3,0,5.9,2.7,5.9,5.9V81.2z"/>
	<path class="st0" d="M68.7,47.7c0.4-0.7,0.8-1.4,1-2.2c0.5-1.9,0.3-3.9-0.7-5.7c-0.1-0.2-0.2-0.4-0.4-0.6c0,0,0,0,0,0
		c-1-1.4-2.5-2.4-4.2-2.9c-0.6-0.2-1.3-0.3-1.9-0.3c-3.4,0-6.3,2.3-7.2,5.5c-0.6,2.2-0.1,4.4,1,6.1l-1.6,1.6c-0.3,0.3-0.3,0.7,0,1
		c0.1,0.1,0.3,0.2,0.5,0.2s0.4-0.1,0.5-0.2l1.5-1.5c0.9,0.9,2,1.6,3.3,1.9c0.6,0.2,1.3,0.3,1.9,0.3c2,0,3.9-0.8,5.3-2.2l1.6,1.6
		c0.1,0.1,0.3,0.2,0.5,0.2c0.2,0,0.4-0.1,0.5-0.2c0.3-0.3,0.3-0.7,0-1L68.7,47.7z M56.6,42c0.7-2.6,3.1-4.5,5.8-4.5
		c0.5,0,1.1,0.1,1.6,0.2c1,0.3,2,0.8,2.7,1.6L56.6,42C56.6,42.1,56.6,42.1,56.6,42z M68.3,45.2c-0.7,2.6-3.1,4.5-5.8,4.5
		c-0.5,0-1.1-0.1-1.6-0.2c-2.7-0.7-4.5-3.2-4.5-5.8l11.2-3c0,0,0,0,0,0C68.5,42,68.7,43.6,68.3,45.2z"/>
	<path class="st0" d="M69.8,79.3V60v0v0v-0.3c0,0,0-0.1,0-0.1c-0.2-3.8-3.4-6.9-7.3-6.9c-1.4,0-2.8,0.4-3.9,1.2
		c0.3,0.3,0.7,0.7,0.9,1.1c0.9-0.5,1.9-0.8,3-0.8c3.3,0,5.9,2.7,5.9,5.9v0v19.4c0,0,0,0.1,0,0.1c0,0,0,0.1,0,0.1l0.5,1.6h0H57.5
		h-1.4l0.4-1.6c0,0,0-0.1,0-0.1c0,0,0-0.1,0-0.1v-2.1c-0.4,0.2-0.9,0.4-1.4,0.5v1.5l-0.6,2.4c-0.1,0.2,0,0.4,0.1,0.6
		c0.1,0.2,0.3,0.3,0.6,0.3h2.3h1.7v5.3c0,0.4,0.3,0.7,0.7,0.7c0.4,0,0.7-0.3,0.7-0.7v-5.3h3.7v5.3c0,0.4,0.3,0.7,0.7,0.7
		c0.4,0,0.7-0.3,0.7-0.7v-5.3h3.1h1c0.2,0,0.4-0.1,0.6-0.3c0.1-0.2,0.2-0.4,0.1-0.6L69.8,79.3z"/>
	<path class="st0" d="M59.6,70V59.4c0-3.8-3.1-6.9-6.9-6.9h-3.1v-3c0-0.3-0.1-0.5-0.4-0.6c-0.2-0.1-0.5-0.1-0.7,0.1l-5,3.6H29
		c-3.8,0-6.9,3.1-6.9,6.9V70c0,3.8,3.1,6.9,6.9,6.9h23.6C56.5,77,59.6,73.9,59.6,70z M52.7,75.6H29c-3,0-5.5-2.5-5.5-5.5V59.4
		c0-3,2.5-5.5,5.5-5.5h14.6c0.1,0,0.3,0,0.4-0.1l4.1-2.9v2.3c0,0.4,0.3,0.7,0.7,0.7h3.8c3,0,5.5,2.5,5.5,5.5V70
		C58.2,73.1,55.7,75.6,52.7,75.6z"/>
	<path class="st0" d="M51.5,58.7H29.7c-0.4,0-0.7,0.3-0.7,0.7c0,0.4,0.3,0.7,0.7,0.7h21.9c0.4,0,0.7-0.3,0.7-0.7
		C52.2,59,51.9,58.7,51.5,58.7z"/>
	<path class="st0" d="M51.5,62.3H29.7c-0.4,0-0.7,0.3-0.7,0.7c0,0.4,0.3,0.7,0.7,0.7h21.9c0.4,0,0.7-0.3,0.7-0.7
		C52.2,62.6,51.9,62.3,51.5,62.3z"/>
	<path class="st0" d="M51.5,65.9H29.7c-0.4,0-0.7,0.3-0.7,0.7c0,0.4,0.3,0.7,0.7,0.7h21.9c0.4,0,0.7-0.3,0.7-0.7
		C52.2,66.2,51.9,65.9,51.5,65.9z"/>
	<path class="st0" d="M44.2,69.4H29.7c-0.4,0-0.7,0.3-0.7,0.7c0,0.4,0.3,0.7,0.7,0.7h14.5c0.4,0,0.7-0.3,0.7-0.7
		C44.9,69.7,44.6,69.4,44.2,69.4z"/>
	<path class="st0" d="M54.6,15.4c-0.8,2.8,0.1,5.7,2.2,7.6l1.5,3.7c0.1,0.3,0.4,0.4,0.7,0.4h5.8c0.3,0,0.5-0.2,0.6-0.4l1.7-3.8
		c1-1,1.8-2.2,2.2-3.6c1.1-4.1-1.3-8.3-5.4-9.4c-0.7-0.2-1.3-0.3-2-0.3C58.6,9.7,55.5,12.1,54.6,15.4z M68,19c-0.3,1.2-1,2.2-1.9,3
		c-0.1,0.1-0.1,0.1-0.2,0.2l-1.6,3.5h-1.7v-2.4c0-0.4-0.3-0.7-0.7-0.7c-0.4,0-0.7,0.3-0.7,0.7v2.4h-1.8l-1.4-3.4
		c0-0.1-0.1-0.2-0.2-0.3c-1.8-1.6-2.5-4-1.9-6.3c0.7-2.7,3.2-4.6,6-4.6c0.5,0,1.1,0.1,1.6,0.2C67,12.3,68.9,15.7,68,19z"/>
	<path class="st0" d="M62,4.5c0.4,0,0.7-0.3,0.7-0.7V0.7C62.7,0.3,62.4,0,62,0c-0.4,0-0.7,0.3-0.7,0.7v3.1C61.3,4.2,61.6,4.5,62,4.5
		z"/>
	<path class="st0" d="M63.6,28h-3.1c-0.4,0-0.7,0.3-0.7,0.7c0,0.4,0.3,0.7,0.7,0.7h3.1c0.4,0,0.7-0.3,0.7-0.7
		C64.3,28.3,64,28,63.6,28z"/>
	<path class="st0" d="M63.6,29.9h-3.1c-0.4,0-0.7,0.3-0.7,0.7c0,0.4,0.3,0.7,0.7,0.7h3.1c0.4,0,0.7-0.3,0.7-0.7
		C64.3,30.2,64,29.9,63.6,29.9z"/>
	<path class="st0" d="M55.2,5.7c0.1,0.2,0.4,0.4,0.6,0.4c0.1,0,0.2,0,0.4-0.1c0.3-0.2,0.5-0.6,0.3-1l-1.6-2.7
		c-0.2-0.3-0.6-0.5-1-0.3c-0.3,0.2-0.5,0.6-0.3,1L55.2,5.7z"/>
	<path class="st0" d="M48.3,8.9l2.7,1.6c0.1,0.1,0.2,0.1,0.4,0.1c0.2,0,0.5-0.1,0.6-0.4c0.2-0.3,0.1-0.8-0.3-1L49,7.6
		c-0.3-0.2-0.8-0.1-1,0.3C47.8,8.2,47.9,8.7,48.3,8.9z"/>
	<path class="st0" d="M67.8,6c0.1,0.1,0.2,0.1,0.4,0.1c0.2,0,0.5-0.1,0.6-0.4L70.4,3c0.2-0.3,0.1-0.8-0.3-1c-0.3-0.2-0.8-0.1-1,0.3
		L67.6,5C67.4,5.4,67.5,5.8,67.8,6z"/>
</g>
</svg>
