<svg id="Layer_1" data-name="Layer 1" xmlns="http://www.w3.org/2000/svg" viewBox="0 0 363.87 307.93">
    <defs>
        <style>.cls-1{fill:none;stroke:#0068EA;stroke-miterlimit:10;stroke-width:7.5px;}</style>
    </defs>
    <title>Icons for Submit</title>
    <path class="cls-1" d="M884.84,209.12a28.35,28.35,0,1,0-37.8.9l9.85,16.44,18.9-.45Z" transform="translate(-546.75 -55.57)"/>
    <line class="cls-1" x1="318.92" y1="142.33" x2="319.59" y2="170.67"/>
    <line class="cls-1" x1="329.34" y1="182.9" x2="310.44" y2="183.35"/>
    <line class="cls-1" x1="329.64" y1="195.34" x2="310.74" y2="195.8"/>
    <line class="cls-1" x1="317.77" y1="94.33" x2="317.46" y2="81.1"/>
    <line class="cls-1" x1="285.32" y1="115.09" x2="274.36" y2="107.45"/>
    <line class="cls-1" x1="298.48" y1="100.29" x2="290.61" y2="89.48"/>
    <line class="cls-1" x1="337.37" y1="99.36" x2="344.71" y2="88.19"/>
    <line class="cls-1" x1="350.99" y1="113.2" x2="361.58" y2="105.04"/>
    <circle class="cls-1" cx="137.52" cy="140.94" r="25"/>
    <path class="cls-1" d="M709.27,251a25,25,0,0,0-50,0v87h50V251Z" transform="translate(-546.75 -55.57)"/>
    <line class="cls-1" x1="125.02" y1="282.44" x2="125.02" y2="307.93"/>
    <line class="cls-1" x1="150.02" y1="282.44" x2="150.02" y2="307.93"/>
    <line class="cls-1" x1="112.52" y1="140.94" x2="159.3" y2="129.13"/>
    <circle class="cls-1" cx="229.27" cy="140.94" r="25"/>
    <path class="cls-1" d="M751,251a25,25,0,0,1,50,0v87H751V251Z" transform="translate(-546.75 -55.57)"/>
    <line class="cls-1" x1="241.77" y1="282.44" x2="241.77" y2="307.93"/>
    <line class="cls-1" x1="216.77" y1="282.44" x2="216.77" y2="307.93"/>
    <circle class="cls-1" cx="258.4" cy="157.69" r="8.38"/>
    <line class="cls-1" x1="252.83" y1="149.25" x2="213.01" y2="121.9"/>
    <line class="cls-1" x1="204.77" y1="145.85" x2="226.33" y2="131.05"/>
    <path class="cls-1" d="M598.77,206.49a24.12,24.12,0,0,1-48.23.08l0-20.25,48.23-.08Z" transform="translate(-546.75 -55.57)"/>
    <line class="cls-1" x1="15.78" y1="106.61" x2="15.81" y2="130.73"/>
    <line class="cls-1" x1="39.89" y1="106.58" x2="39.93" y2="130.69"/>
    <path class="cls-1" d="M574.69,230.65l0,15.66a18.09,18.09,0,0,0,36.17-.06v0.26a12.06,12.06,0,0,1,12-12.08l12.06,0" transform="translate(-546.75 -55.57)"/>
    <polyline class="cls-1" points="78.04 118.57 70.84 137.87 82.89 137.85 75.69 157.15"/>
    <polygon class="cls-1" points="113.77 64.53 113.77 3.75 202.98 3.75 202.98 64.53 145.91 64.53 129.22 78.14 129.22 64.53 113.77 64.53"/>
    <polygon class="cls-1" points="193.6 21.88 249.47 21.88 249.47 83.27 232.8 83.27 232.8 96.47 214.97 83.27 160.26 83.27 160.26 65 160.26 21.88 193.6 21.88"/>
    <line class="cls-1" x1="160.28" y1="64.53" x2="202.98" y2="21.88"/>
    <line class="cls-1" x1="160.26" y1="45.57" x2="183.98" y2="21.88"/>
    <line class="cls-1" x1="179.27" y1="64.53" x2="202.98" y2="40.85"/>
</svg>