<svg xmlns="http://www.w3.org/2000/svg" viewBox="0 0 463.79 128.49"><defs><style>.cls-1{fill:#7f3f98;}.cls-2,.cls-5,.cls-6{fill:none;stroke:#7f3f98;}.cls-2,.cls-5{stroke-miterlimit:10;}.cls-2{stroke-width:2px;}.cls-3{fill:#fff;}.cls-4{fill:#6a1e74;}.cls-5,.cls-6{stroke-width:1.5px;}.cls-6{stroke-linecap:round;stroke-linejoin:round;}</style></defs><title>startup_submit_tech</title><g id="Layer_2" data-name="Layer 2"><g id="Layer_1-2" data-name="Layer 1"><path class="cls-1" d="M419.51,15.78h2.72v2.67a.68.68,0,0,0,1.36,0V15.78h2.72a.67.67,0,1,0,0-1.34H423.6V11.77a.68.68,0,0,0-1.36,0v2.67h-2.72a.67.67,0,1,0,0,1.34Z"/><path class="cls-1" d="M402.69,29.05h2.72v2.67a.68.68,0,0,0,1.36,0V29.05h2.72a.67.67,0,1,0,0-1.34h-2.72V25a.68.68,0,0,0-1.36,0v2.67h-2.72a.67.67,0,1,0,0,1.34Z"/><path class="cls-1" d="M380.26,18H383v2.67a.68.68,0,0,0,1.36,0V18h2.72a.67.67,0,1,0,0-1.34h-2.72V13.95a.68.68,0,0,0-1.36,0v2.67h-2.72a.67.67,0,1,0,0,1.34Z"/><path class="cls-1" d="M393.79,4.68h2.72V7.35a.68.68,0,0,0,1.36,0V4.68h2.72a.67.67,0,1,0,0-1.34h-2.72V.67a.68.68,0,0,0-1.36,0V3.34h-2.72a.67.67,0,1,0,0,1.34Z"/><path class="cls-1" d="M392.95,53.39h2.72v2.67a.68.68,0,0,0,1.36,0V53.39h2.72a.67.67,0,1,0,0-1.34H397V49.38a.68.68,0,0,0-1.36,0v2.67h-2.72a.67.67,0,1,0,0,1.34Z"/><path class="cls-1" d="M462.76,89a.82.82,0,0,0,.4-.11.81.81,0,0,0,.64-.78.82.82,0,0,0-.83-.82H405.51a8.11,8.11,0,0,0-.49,16.22v1.72h-.51a9.08,9.08,0,0,1-9.16-9,.83.83,0,0,0-1.66,0,10.73,10.73,0,0,0,10.82,10.61H405v3.49a.81.81,0,0,0,.46.73.85.85,0,0,0,.87-.07l4.1-2.93,4.1,2.93a.85.85,0,0,0,.87.07.82.82,0,0,0,.45-.73v-3.49H463a.82.82,0,1,0,0-1.63h-47.1V103.5H463a.82.82,0,0,0,.83-.82.81.81,0,0,0-.64-.78.82.82,0,0,0-.4-.11,6.42,6.42,0,1,1,0-12.83Zm-48.56,19.75-3.27-2.33a.85.85,0,0,0-1,0l-3.27,2.33V94.34h7.52Zm40.36-13.33a8,8,0,0,0,3.37,6.49H415.86V98.68h37.23a.82.82,0,1,0,0-1.63H415.86V93.52a.82.82,0,0,0-.83-.82h-9.18a.82.82,0,0,0-.83.82v8.32a6.48,6.48,0,0,1,.5-13h52.41A8,8,0,0,0,454.55,95.38Z"/><path class="cls-1" d="M415.68,76.33h37.4a.82.82,0,1,0,0-1.63h-37.4a.82.82,0,1,0,0,1.63Z"/><path class="cls-1" d="M462.76,66.6a.82.82,0,0,0,.4-.11.81.81,0,0,0,.64-.78.82.82,0,0,0-.83-.82H405.51a8.12,8.12,0,1,0,0,16.25H463a.82.82,0,0,0,.83-.82.81.81,0,0,0-.64-.78.82.82,0,0,0-.4-.11,6.42,6.42,0,1,1,0-12.83ZM454.55,73a8,8,0,0,0,3.37,6.49H405.51a6.49,6.49,0,1,1,0-13h52.41A8,8,0,0,0,454.55,73Z"/><path class="cls-1" d="M463,82.83H404.5a9.08,9.08,0,0,1-9.16-9,.83.83,0,0,0-1.66,0A10.73,10.73,0,0,0,404.5,84.46H463a.82.82,0,1,0,0-1.63Z"/><path class="cls-1" d="M66.56,60.27H47.37v-4a.83.83,0,0,0-1.66,0v4H43a4.3,4.3,0,0,0-4.34,4.25v45.26A4.3,4.3,0,0,0,43,114H66.56a4.3,4.3,0,0,0,4.34-4.25V64.52A4.3,4.3,0,0,0,66.56,60.27Zm2.67,49.52a2.65,2.65,0,0,1-2.67,2.62H43a2.65,2.65,0,0,1-2.67-2.62V64.52A2.65,2.65,0,0,1,43,61.9H66.56a2.65,2.65,0,0,1,2.67,2.62Z"/><path class="cls-1" d="M64.44,66.95H45.12a2.56,2.56,0,0,0-2.58,2.53V87.72a2.56,2.56,0,0,0,2.58,2.54H64.44A2.56,2.56,0,0,0,67,87.72V69.48A2.56,2.56,0,0,0,64.44,66.95Zm.92,20.77a.91.91,0,0,1-.92.9H45.12a.91.91,0,0,1-.92-.9V69.48a.91.91,0,0,1,.92-.9H64.44a.91.91,0,0,1,.92.9Z"/><path class="cls-1" d="M63.9,94.53H60.67a.82.82,0,1,0,0,1.63H63.9a.82.82,0,1,0,0-1.63Z"/><path class="cls-1" d="M56.4,94.53H53.17a.82.82,0,1,0,0,1.63H56.4a.82.82,0,1,0,0-1.63Z"/><path class="cls-1" d="M48.89,94.53H45.66a.82.82,0,1,0,0,1.63h3.23a.82.82,0,1,0,0-1.63Z"/><path class="cls-1" d="M63.9,99.54H60.67a.82.82,0,1,0,0,1.63H63.9a.82.82,0,1,0,0-1.63Z"/><path class="cls-1" d="M56.4,99.54H53.17a.82.82,0,1,0,0,1.63H56.4a.82.82,0,1,0,0-1.63Z"/><path class="cls-1" d="M48.89,99.54H45.66a.82.82,0,1,0,0,1.63h3.23a.82.82,0,1,0,0-1.63Z"/><path class="cls-1" d="M63.9,104.41H60.67a.82.82,0,1,0,0,1.63H63.9a.82.82,0,1,0,0-1.63Z"/><path class="cls-1" d="M56.4,104.41H53.17a.82.82,0,1,0,0,1.63H56.4a.82.82,0,1,0,0-1.63Z"/><path class="cls-1" d="M48.89,104.41H45.66a.82.82,0,1,0,0,1.63h3.23a.82.82,0,1,0,0-1.63Z"/><path class="cls-1" d="M40.13,50.66a7.75,7.75,0,0,0-7.82,7.67.83.83,0,0,1-1.66,0A9.4,9.4,0,0,1,40.13,49a.82.82,0,1,1,0,1.63Z"/><path class="cls-1" d="M39.25,46.17A11.66,11.66,0,0,0,27.5,57.7a.83.83,0,0,1-1.66,0A13.31,13.31,0,0,1,39.25,44.54a.82.82,0,1,1,0,1.63Z"/><path class="cls-1" d="M342.89,47.38H314.68a5,5,0,0,0-5,4.93v54.2a5,5,0,0,0,5,4.93h28.21a5,5,0,0,0,5-4.93V52.31A5,5,0,0,0,342.89,47.38Zm3.37,59.13a3.34,3.34,0,0,1-3.37,3.3H314.68a3.34,3.34,0,0,1-3.36-3.3V52.31a3.34,3.34,0,0,1,3.36-3.3h28.21a3.34,3.34,0,0,1,3.37,3.3Z"/><path class="cls-1" d="M328.79,98.89A4.13,4.13,0,1,0,333,103,4.18,4.18,0,0,0,328.79,98.89Zm0,6.63a2.5,2.5,0,1,1,2.55-2.5A2.53,2.53,0,0,1,328.79,105.51Z"/><path class="cls-1" d="M340.35,54.7H317.22a2.91,2.91,0,0,0-2.93,2.87V94.43a2.91,2.91,0,0,0,2.93,2.87h23.13a2.91,2.91,0,0,0,2.93-2.87V57.57A2.91,2.91,0,0,0,340.35,54.7Zm1.27,39.74a1.26,1.26,0,0,1-1.27,1.24H317.22A1.26,1.26,0,0,1,316,94.43V57.57a1.26,1.26,0,0,1,1.27-1.24h23.13a1.26,1.26,0,0,1,1.27,1.24Z"/><path class="cls-1" d="M326.85,52.41h3.87a.82.82,0,1,0,0-1.63h-3.87a.82.82,0,1,0,0,1.63Z"/><path class="cls-1" d="M297.65,37.5v0c-.54-1.16-1.18-2.52-1.93-4.13a1.78,1.78,0,0,0-1.65-1.06,1.71,1.71,0,0,0-1.61,1c-5.4,10.25-5.4,10.68-5.4,10.88l-.1,64a1,1,0,0,0,0,.15v0c0,.07,0,.14,0,.22a6.68,6.68,0,0,0,6.73,6.61,6.76,6.76,0,0,0,4.76-1.93,6.5,6.5,0,0,0,2-4.68c0-.06,0-.12,0-.2v0a1.13,1.13,0,0,0,0-.17v-3.85a6.55,6.55,0,0,0,0-.75v-.08h0l.09-59.28C300.53,44,300.53,43.7,297.65,37.5Zm-3.92-3.65a.34.34,0,0,1,.32-.17.38.38,0,0,1,.36.23l1.36,2.9h-3.59Zm-2.31,4.44a.75.75,0,0,1,.35-.09h4.37a.75.75,0,0,1,.32.08c1.07,2.31,2.08,4.53,2.49,5.51l-2.33,2.27-2.45-2.41a.72.72,0,0,0-1,0h0l-2.45,2.4L288.58,44C289,43.09,290.14,40.76,291.42,38.29ZM299,108.44s0,.06,0,.1h0a5.13,5.13,0,0,1-1.57,3.69,5.34,5.34,0,0,1-9.08-3.7l0-.31v-.72a6.79,6.79,0,0,0,10.64.14v.8Zm0-4.24a5.33,5.33,0,0,1-10.59-.67v-.08h0l.09-57.63,1.74,1.71a.72.72,0,0,0,.5.2.71.71,0,0,0,.5-.2l2.46-2.4,2.45,2.41a.72.72,0,0,0,1,0l2-2Z"/><path class="cls-1" d="M295.32,52.54a.7.7,0,0,0-.71.7l0,49a.71.71,0,0,0,1.21.49.68.68,0,0,0,.21-.49l0-49A.7.7,0,0,0,295.32,52.54Z"/><path class="cls-1" d="M292.52,52.54a.7.7,0,0,0-.71.69l0,49a.71.71,0,0,0,1.41,0l0-49A.7.7,0,0,0,292.52,52.54Z"/><path class="cls-1" d="M371.93,53.26a11.25,11.25,0,0,0-11.35,11.13.83.83,0,0,0,1.66,0,9.69,9.69,0,0,1,19.37,0,.83.83,0,0,0,1.66,0A11.25,11.25,0,0,0,371.93,53.26Z"/><path class="cls-1" d="M371.93,48.09a16.32,16.32,0,0,0-16.46,16.14.83.83,0,0,0,1.66,0,14.8,14.8,0,0,1,29.59,0,.83.83,0,0,0,1.66,0A16.32,16.32,0,0,0,371.93,48.09Z"/><path class="cls-1" d="M373,70.4a6.21,6.21,0,1,0-2.25,0l-10.26,36.74a.81.81,0,0,0,.58,1,.85.85,0,0,0,.22,0,.83.83,0,0,0,.8-.6L365,97.14a.84.84,0,0,0,.39-.1l6.49-3.63L378.36,97a.83.83,0,0,0,.38.1l2.91,10.41a.83.83,0,0,0,.8.6.85.85,0,0,0,.22,0,.81.81,0,0,0,.58-1Zm-5.62-6a4.56,4.56,0,1,1,4.56,4.47A4.52,4.52,0,0,1,367.37,64.39ZM365.58,95l1.25-4.46,3.37,1.88Zm6.29-3.52L367.28,89l4.59-16.43L376.45,89Zm1.68.94,3.36-1.88L378.15,95Z"/><path class="cls-1" d="M248.51,71.84v9.83h-10a.82.82,0,0,0-.83.82A11.68,11.68,0,1,0,249.34,71,.82.82,0,0,0,248.51,71.84Zm1.66,10.64V72.69A9.84,9.84,0,1,1,239.36,83.3h10A.82.82,0,0,0,250.17,82.48Z"/><path class="cls-1" d="M230.53,108.56H214.84v-3.18h-1.66v3.18H197.5c-2.67,0-4.73,2.94-4.73,5.47a.82.82,0,0,0,.83.82h40.84a.82.82,0,0,0,.83-.82C235.26,111.5,233.19,108.56,230.53,108.56Zm-36,4.66c.36-1.49,1.6-3,3-3h33c1.37,0,2.61,1.53,3,3Z"/><path class="cls-1" d="M171,74.57a.82.82,0,0,0-.83.82V81a.83.83,0,0,0,1.66,0V75.39A.82.82,0,0,0,171,74.57Z"/><path class="cls-1" d="M178.62,70.36V81a.83.83,0,0,0,1.66,0V70.36a.83.83,0,0,0-1.66,0Z"/><path class="cls-1" d="M183.2,73.06V81a.83.83,0,0,0,1.66,0v-7.9a.83.83,0,0,0-1.66,0Z"/><path class="cls-1" d="M191.91,73.06V81a.83.83,0,0,0,1.66,0v-7.9a.83.83,0,0,0-1.66,0Z"/><path class="cls-1" d="M187.63,69.88V81a.83.83,0,0,0,1.66,0V69.88a.83.83,0,0,0-1.66,0Z"/><path class="cls-1" d="M229,117.09h-29.9a.82.82,0,1,0,0,1.63H229a.82.82,0,1,0,0-1.63Z"/><path class="cls-1" d="M204.49,65.76a2.54,2.54,0,0,0-2.56,2.51V91.85a2.54,2.54,0,0,0,2.56,2.51h19a2.54,2.54,0,0,0,2.56-2.51V68.27a2.54,2.54,0,0,0-2.56-2.51Zm19.94,2.51V91.85a.89.89,0,0,1-.9.88h-19a.89.89,0,0,1-.9-.88V68.27a.89.89,0,0,1,.9-.88h19A.89.89,0,0,1,224.43,68.27Z"/><path class="cls-1" d="M212.71,80.71a5.08,5.08,0,0,0,1.3.17,5,5,0,0,0,4.81-3.62,4.78,4.78,0,0,0-.49-3.71,4.94,4.94,0,0,0-3-2.28,5.08,5.08,0,0,0-1.3-.17,5,5,0,0,0-4.81,3.62A4.89,4.89,0,0,0,212.71,80.71Zm-1.91-5.57A3.32,3.32,0,0,1,214,72.72a3.39,3.39,0,0,1,.87.11,3.29,3.29,0,0,1,2,1.52,3.18,3.18,0,0,1,.33,2.48A3.32,3.32,0,0,1,214,79.25a3.4,3.4,0,0,1-.87-.11A3.26,3.26,0,0,1,210.8,75.13Z"/><path class="cls-1" d="M214,81.57a5.79,5.79,0,0,0-5.84,5.73.82.82,0,0,0,.83.82h10a.82.82,0,0,0,.83-.82A5.79,5.79,0,0,0,214,81.57Zm-4.09,4.91a4.19,4.19,0,0,1,8.18,0Z"/><path class="cls-1" d="M246.11,78.38V67.74a.82.82,0,0,0-.83-.82A11.58,11.58,0,0,0,233.6,78.38a.82.82,0,0,0,.83.82h10.85A.82.82,0,0,0,246.11,78.38Zm-1.66-.82H235.3a9.94,9.94,0,0,1,9.15-9Z"/><path class="cls-1" d="M253.73,99.6V94.31a12.89,12.89,0,0,1-1.66.48V99.6a3,3,0,0,1-3.07,3H179a3,3,0,0,1-3.07-3V88.52a.74.74,0,0,0,0-.08V64.77a.74.74,0,0,0,0-.08V59.25h0a3,3,0,0,1,3.07-3h70a3,3,0,0,1,3.07,3V70.17a12.88,12.88,0,0,1,1.66.48V59.25A4.7,4.7,0,0,0,249,54.61H179a4.7,4.7,0,0,0-4.73,4.64h0V99.6a4.69,4.69,0,0,0,4.73,4.64h70A4.69,4.69,0,0,0,253.73,99.6Z"/><ellipse class="cls-2" cx="431.71" cy="47.97" rx="10.75" ry="10.55"/><path class="cls-1" d="M429.33,43.91h2.4c1.64,0,2.79.54,2.79,1.93a1.73,1.73,0,0,1-1.42,1.73v0c1.18.18,1.87.81,1.87,1.9,0,1.56-1.26,2.32-3.06,2.32h-2.59Zm2.23,3.39c1.37,0,1.95-.48,1.95-1.37s-.65-1.22-1.9-1.22h-1.24v2.59Zm.21,3.75c1.38,0,2.19-.5,2.19-1.57S433.19,48,431.78,48h-1.4v3Z"/><line class="cls-2" x1="430.98" y1="42.28" x2="430.98" y2="44.11"/><line class="cls-2" x1="432.76" y1="42.28" x2="432.76" y2="44.11"/><line class="cls-2" x1="431.05" y1="51.84" x2="431.05" y2="53.67"/><line class="cls-2" x1="432.83" y1="51.84" x2="432.83" y2="53.67"/><polyline class="cls-2" points="275.65 123.63 275.65 99.79 275.65 89.88"/><circle class="cls-3" cx="275.65" cy="123.38" r="4.51"/><path class="cls-1" d="M280.77,123.38a5.11,5.11,0,1,0-5.11,5.11,5.12,5.12,0,0,0,5.11-5.11Zm-9,0a3.91,3.91,0,1,1,3.91,3.91,3.92,3.92,0,0,1-3.91-3.91Z"/><circle class="cls-3" cx="275.65" cy="90.14" r="4.51"/><path class="cls-1" d="M280.77,90.14A5.11,5.11,0,1,1,275.65,85a5.12,5.12,0,0,1,5.11,5.11Zm-9,0a3.91,3.91,0,1,0,3.91-3.91,3.92,3.92,0,0,0-3.91,3.91Z"/><path class="cls-2" d="M252.16,114.92c1.44-3.89,5.13-7,13-8.39a12,12,0,0,0,10.52-12"/><circle class="cls-3" cx="252.27" cy="114.68" r="4.51" transform="translate(95.65 343.29) rotate(-80.03)"/><path class="cls-1" d="M257.3,115.56a5.11,5.11,0,1,0-5.92,4.15,5.12,5.12,0,0,0,5.92-4.15ZM248.41,114a3.91,3.91,0,1,1,3.18,4.53,3.92,3.92,0,0,1-3.18-4.53Z"/><path class="cls-4" d="M1.19,87.58A1.18,1.18,0,0,0,0,88.75v8a1.18,1.18,0,0,0,1.19,1.17,1.18,1.18,0,0,0,1.19-1.17v-8A1.18,1.18,0,0,0,1.19,87.58Z"/><path class="cls-4" d="M7.12,72.34a1.18,1.18,0,0,0-1.19,1.17v34a1.19,1.19,0,0,0,2.39,0v-34A1.18,1.18,0,0,0,7.12,72.34Z"/><path class="cls-4" d="M13.3,80.37a1.18,1.18,0,0,0-1.19,1.17V96.75a1.19,1.19,0,0,0,2.39,0V81.54A1.18,1.18,0,0,0,13.3,80.37Z"/><path class="cls-4" d="M19.87,84.24a1.18,1.18,0,0,0-1.19,1.17V96.75a1.19,1.19,0,0,0,2.39,0V85.41A1.18,1.18,0,0,0,19.87,84.24Z"/><path class="cls-4" d="M26.23,79.68A1.18,1.18,0,0,0,25,80.86v15.9a1.19,1.19,0,0,0,2.39,0V80.86A1.18,1.18,0,0,0,26.23,79.68Z"/><path class="cls-1" d="M97.37,60.53h2.46a.62.62,0,1,1,0,1.24H97.37a.62.62,0,1,1,0-1.24Z"/><path class="cls-1" d="M103.08,60.53h2.46a.62.62,0,1,1,0,1.24h-2.46a.62.62,0,1,1,0-1.24Z"/><path class="cls-1" d="M108.78,60.53h2.46a.62.62,0,1,1,0,1.24h-2.46a.62.62,0,1,1,0-1.24Z"/><path class="cls-1" d="M97.37,64.34h2.46a.62.62,0,1,1,0,1.24H97.37a.62.62,0,1,1,0-1.24Z"/><path class="cls-1" d="M103.08,64.34h2.46a.62.62,0,1,1,0,1.24h-2.46a.62.62,0,1,1,0-1.24Z"/><path class="cls-1" d="M108.78,64.34h2.46a.62.62,0,1,1,0,1.24h-2.46a.62.62,0,1,1,0-1.24Z"/><path class="cls-1" d="M97.37,48.67h2.46a.62.62,0,1,1,0,1.24H97.37a.62.62,0,1,1,0-1.24Z"/><path class="cls-1" d="M103.08,48.67h2.46a.62.62,0,1,1,0,1.24h-2.46a.62.62,0,1,1,0-1.24Z"/><path class="cls-1" d="M108.78,48.67h2.46a.62.62,0,1,1,0,1.24h-2.46a.62.62,0,1,1,0-1.24Z"/><path class="cls-1" d="M97.37,52.48h2.46a.62.62,0,1,1,0,1.24H97.37a.62.62,0,1,1,0-1.24Z"/><path class="cls-1" d="M103.08,52.48h2.46a.62.62,0,1,1,0,1.24h-2.46a.62.62,0,1,1,0-1.24Z"/><path class="cls-1" d="M108.78,52.48h2.46a.62.62,0,1,1,0,1.24h-2.46a.62.62,0,1,1,0-1.24Z"/><path class="cls-1" d="M97.37,56.18h2.46a.62.62,0,1,1,0,1.24H97.37a.62.62,0,1,1,0-1.24Z"/><path class="cls-1" d="M103.08,56.18h2.46a.62.62,0,1,1,0,1.24h-2.46a.62.62,0,1,1,0-1.24Z"/><path class="cls-1" d="M108.78,56.18h2.46a.62.62,0,1,1,0,1.24h-2.46a.62.62,0,1,1,0-1.24Z"/><path class="cls-1" d="M69.48,57.12a2.1,2.1,0,0,0,4.09.61H88.92a.61.61,0,1,0,0-1.21H73.57a2.1,2.1,0,0,0-4.09.61Zm1.23,0a.86.86,0,1,1,.86.85A.86.86,0,0,1,70.71,57.12Z"/><path class="cls-1" d="M88,57.73V68.45a6,6,0,0,0,6,5.93h15.48l4.36,3.08a.62.62,0,0,0,.36.11.63.63,0,0,0,.28-.07.6.6,0,0,0,.34-.54V74.38a6,6,0,0,0,5.84-5.93v-23a6,6,0,0,0-6-5.93H94a6,6,0,0,0-6,5.93V57.73ZM89.19,45.4A4.77,4.77,0,0,1,94,40.68h20.62a4.77,4.77,0,0,1,4.81,4.72v23a4.77,4.77,0,0,1-4.81,4.72h-.41a.61.61,0,0,0-.62.61v2L110,73.28a.63.63,0,0,0-.36-.11H94a4.77,4.77,0,0,1-4.81-4.72Z"/><path class="cls-1" d="M127,105.77l4.87-9.69a.94.94,0,0,0-.55-1.22l-9.42-4.56a1,1,0,0,0-1.32.32l-4.87,9.69a.94.94,0,0,0,.55,1.22l9.42,4.56A1,1,0,0,0,127,105.77Zm-1.08-.44-9.08-4.39a.37.37,0,0,1-.22-.48l4.66-9.14a.39.39,0,0,1,.52-.13l9.08,4.39a.37.37,0,0,1,.22.48l-4.66,9.14A.39.39,0,0,1,126,105.34Z"/><path class="cls-5" d="M114.46,98.09l3.6-7.15c.16-.31-.13-.77-.65-1l-29-14.32c-.51-.25-1.06-.2-1.22.12l-3.6,7.15c-.16.31.13.77.65,1l29,14.32C113.76,98.46,114.3,98.41,114.46,98.09Z"/><path class="cls-5" d="M127.83,90.86c3.06,1.37,5.87,1.78,6.28.9s-1.74-2.7-4.8-4.07-5.87-1.78-6.28-.9S124.77,89.48,127.83,90.86Z"/><path class="cls-5" d="M160.75,120.13l3.6-7.15c.16-.31-.13-.77-.65-1l-29-14.32c-.51-.25-1.06-.2-1.22.12l-3.6,7.15c-.16.31.13.77.65,1l29,14.32C160,120.49,160.59,120.44,160.75,120.13Z"/><path class="cls-6" d="M125.69,77.24s8.22-3.14,13.54,6.07"/><path class="cls-6" d="M126,80.25a10,10,0,0,1,10.63,5.3"/><path class="cls-6" d="M126.36,83.46a7.38,7.38,0,0,1,8.07,4.08"/><path class="cls-1" d="M168.11,43.6h2.72v2.67a.68.68,0,0,0,1.36,0V43.6h2.72a.67.67,0,1,0,0-1.34H172.2V39.59a.68.68,0,0,0-1.36,0v2.67h-2.72a.67.67,0,1,0,0,1.34Z"/><path class="cls-1" d="M151.29,56.87H154v2.67a.68.68,0,0,0,1.36,0V56.87h2.72a.67.67,0,1,0,0-1.34h-2.72V52.86a.68.68,0,0,0-1.36,0v2.67h-2.72a.67.67,0,1,0,0,1.34Z"/><path class="cls-1" d="M128.85,45.78h2.72v2.67a.68.68,0,0,0,1.36,0V45.78h2.72a.67.67,0,1,0,0-1.34h-2.72V41.77a.68.68,0,0,0-1.36,0v2.67h-2.72a.67.67,0,1,0,0,1.34Z"/><path class="cls-1" d="M142.39,32.49h2.72v2.67a.68.68,0,0,0,1.36,0V32.49h2.72a.67.67,0,1,0,0-1.34h-2.72V28.49a.68.68,0,0,0-1.36,0v2.67h-2.72a.67.67,0,1,0,0,1.34Z"/><path class="cls-1" d="M131,65.56h2.72v2.67a.68.68,0,0,0,1.36,0V65.56h2.72a.67.67,0,1,0,0-1.34h-2.72V61.55a.68.68,0,0,0-1.36,0v2.67H131a.67.67,0,1,0,0,1.34Z"/></g></g></svg>