<svg xmlns="http://www.w3.org/2000/svg" viewBox="0 0 490.45 83.07"><defs><style>.cls-1{fill:#231f20;}.cls-2{fill:none;stroke:#6a1e74;stroke-miterlimit:10;}.cls-3{fill:#6a1e74;}</style></defs><title>startup_submit_steps</title><g id="Layer_2" data-name="Layer 2"><g id="Layer_1-2" data-name="Layer 1"><path class="cls-1" d="M51.84,54.91a3.87,3.87,0,0,1,2.73,1.2L53.42,57.4a2.17,2.17,0,0,0-1.55-.69c-1.29,0-2.29,1.12-2.29,3s.89,3,2.23,3a2.26,2.26,0,0,0,1.75-.82l1.14,1.26a3.76,3.76,0,0,1-2.92,1.36c-2.39,0-4.34-1.62-4.34-4.72S49.46,54.91,51.84,54.91Z"/><path class="cls-1" d="M56.08,55.08h2.09v3.55h3.18V55.08h2.08v9.21H61.35V60.45H58.17v3.84H56.08Z"/><path class="cls-1" d="M65.58,55.08h5.78v1.75H67.67v1.85h3.14v1.74H67.67v2.12H71.5v1.75H65.58Z"/><path class="cls-1" d="M77.25,54.91A3.87,3.87,0,0,1,80,56.11L78.84,57.4a2.17,2.17,0,0,0-1.55-.69c-1.29,0-2.29,1.12-2.29,3s.89,3,2.23,3A2.26,2.26,0,0,0,79,61.85l1.14,1.26a3.76,3.76,0,0,1-2.92,1.36c-2.39,0-4.34-1.62-4.34-4.72S74.88,54.91,77.25,54.91Z"/><path class="cls-1" d="M81.5,55.08h2.09v3.77h0l2.76-3.77h2.27l-2.78,3.67,3.31,5.54H86.89l-2.23-3.89-1.07,1.41v2.47H81.5Z"/><path class="cls-1" d="M47.88,72.75h5.78V74.5H50v1.85h3.14v1.74H50v2.12H53.8V82H47.88Z"/><path class="cls-1" d="M55.6,72.75h2.09v7.46h3.63V82H55.6Z"/><path class="cls-1" d="M62.89,72.75H65V82H62.89Z"/><path class="cls-1" d="M71.23,72.58a4,4,0,0,1,2.87,1.2L73,75.07a2.26,2.26,0,0,0-1.7-.69c-1.41,0-2.43,1.12-2.43,3s.86,3,2.6,3a1.62,1.62,0,0,0,1-.28V78.47H70.88v-1.7h3.38V81a4.87,4.87,0,0,1-3.09,1.12c-2.49,0-4.46-1.62-4.46-4.72A4.47,4.47,0,0,1,71.23,72.58Z"/><path class="cls-1" d="M76.12,72.75h2.09V82H76.12Z"/><path class="cls-1" d="M80.37,72.75h3.15c1.92,0,3.41.52,3.41,2.29a2,2,0,0,1-1.55,2v.06c1.31.24,2,.93,2,2.16,0,1.88-1.58,2.71-3.59,2.71H80.37Zm3.05,3.72c1,0,1.47-.44,1.47-1.13s-.48-1-1.44-1h-1v2.1Zm.2,3.89c1.13,0,1.72-.42,1.72-1.26s-.58-1.16-1.72-1.16H82.46v2.42Z"/><path class="cls-1" d="M88.9,72.75H91V82H88.9Z"/><path class="cls-1" d="M93.14,72.75h2.09v7.46h3.63V82H93.14Z"/><path class="cls-1" d="M100.44,72.75h2.09V82h-2.09Z"/><path class="cls-1" d="M106.49,74.5h-2.54V72.75h7.15V74.5h-2.53V82h-2.08Z"/><path class="cls-1" d="M113.85,78.69l-2.77-5.93h2.22l.83,2.12c.24.69.48,1.33.75,2h.06c.25-.71.52-1.34.78-2l.82-2.12h2.18l-2.78,5.93V82h-2.08Z"/><path class="cls-1" d="M187.56,62.79l-1.77-3.32h-1.13v3.32h-2.09V53.57h3.32c1.95,0,3.56.68,3.56,2.87a2.71,2.71,0,0,1-1.64,2.66l2.08,3.69Zm-2.9-5h1.06c1.09,0,1.68-.47,1.68-1.37s-.59-1.22-1.68-1.22h-1.06Z"/><path class="cls-1" d="M191.27,53.57H197v1.75h-3.69v1.85h3.14v1.74h-3.14V61h3.83v1.75h-5.92Z"/><path class="cls-1" d="M203.32,60.6H200.5l-.57,2.19h-2.12l2.9-9.21h2.49l2.9,9.21h-2.2ZM202.9,59l-.23-.85c-.25-.92-.49-2-.75-3h-.06c-.21,1-.47,2-.72,3l-.23.85Z"/><path class="cls-1" d="M207.06,53.57h2.6c2.83,0,4.63,1.4,4.63,4.56s-1.81,4.65-4.51,4.65h-2.73Zm2.49,7.53c1.55,0,2.61-.76,2.61-3s-1.06-2.88-2.61-2.88h-.4V61.1Z"/><path class="cls-1" d="M187.56,80.46l-1.77-3.32h-1.13v3.32h-2.09V71.24h3.32c1.95,0,3.56.68,3.56,2.87a2.71,2.71,0,0,1-1.64,2.66l2.08,3.69Zm-2.9-5h1.06c1.09,0,1.68-.47,1.68-1.37s-.59-1.21-1.68-1.21h-1.06Z"/><path class="cls-1" d="M191.27,71.24H197V73h-3.69v1.85h3.14v1.74h-3.14V78.7h3.83v1.75h-5.92Z"/><path class="cls-1" d="M198.55,75.81c0-3,1.71-4.73,4.18-4.73s4.18,1.74,4.18,4.73-1.7,4.82-4.18,4.82S198.55,78.82,198.55,75.81Zm6.23,0c0-1.84-.79-2.94-2-2.94s-2,1.1-2,2.94.81,3,2,3S204.78,77.66,204.78,75.81Z"/><path class="cls-1" d="M208.64,71.24h2.09v9.21h-2.09Z"/><path class="cls-1" d="M289.35,62.89l-1.77-3.32h-1.13v3.32h-2.09V53.68h3.32c1.95,0,3.56.68,3.56,2.87a2.71,2.71,0,0,1-1.64,2.66l2.08,3.69Zm-2.9-5h1.06c1.09,0,1.68-.47,1.68-1.37s-.59-1.21-1.68-1.21h-1.06Z"/><path class="cls-1" d="M293.05,53.68h5.78v1.75h-3.69v1.85h3.14V59h-3.14v2.12H299v1.75h-5.92Z"/><path class="cls-1" d="M305.11,60.7h-2.83l-.57,2.19H299.6l2.9-9.21H305l2.9,9.21h-2.2Zm-.42-1.62-.23-.85c-.25-.92-.49-2-.75-3h-.06c-.21,1-.47,2-.72,3l-.23.85Z"/><path class="cls-1" d="M308.84,53.68h2.6c2.83,0,4.63,1.4,4.63,4.56s-1.81,4.65-4.51,4.65h-2.73Zm2.49,7.53c1.55,0,2.61-.76,2.61-3s-1.06-2.88-2.61-2.88h-.4v5.85Z"/><path class="cls-1" d="M284.36,71.35h5.82V73.1h-3.73v2.13h3.18V77h-3.18v3.57h-2.09Z"/><path class="cls-1" d="M295.54,78.37h-2.83l-.57,2.19H290l2.9-9.21h2.49l2.9,9.21h-2.2Zm-.42-1.62-.23-.85c-.25-.92-.49-2-.75-3h-.06c-.21,1-.47,2-.72,3l-.23.85Z"/><path class="cls-1" d="M307.5,82.78a3.87,3.87,0,0,1-1.62.3,4.17,4.17,0,0,1-4-2.44c-2-.41-3.24-2.12-3.24-4.72,0-3,1.7-4.73,4.18-4.73S307,72.92,307,75.91c0,2.47-1.14,4.14-2.92,4.65a2.36,2.36,0,0,0,2,.86,3,3,0,0,0,1-.17Zm-4.66-3.84c1.26,0,2-1.17,2-3s-.79-2.94-2-2.94-2,1.1-2,2.94S301.58,78.93,302.83,78.93Z"/><path class="cls-1" d="M372.86,69.73a3.66,3.66,0,0,0,2.26,1c.86,0,1.29-.34,1.29-.89s-.52-.76-1.33-1.1l-1.19-.51A2.68,2.68,0,0,1,372,65.67c0-1.53,1.37-2.74,3.28-2.74a4.26,4.26,0,0,1,3,1.21l-1,1.31a3,3,0,0,0-1.92-.73c-.71,0-1.17.31-1.17.83s.61.76,1.41,1.09l1.17.48a2.54,2.54,0,0,1,1.82,2.5c0,1.53-1.27,2.85-3.46,2.85a5.11,5.11,0,0,1-3.42-1.33Z"/><path class="cls-1" d="M380,63.1h2.08v5.16c0,1.81.57,2.43,1.6,2.43s1.64-.62,1.64-2.43V63.1h2V68c0,3.09-1.26,4.44-3.65,4.44S380,71.14,380,68Z"/><path class="cls-1" d="M389.46,63.1h3.15c1.92,0,3.41.52,3.41,2.29a2,2,0,0,1-1.55,2v.06c1.31.24,2,.93,2,2.16,0,1.88-1.58,2.71-3.59,2.71h-3.42Zm3.05,3.72c1,0,1.47-.44,1.47-1.13s-.48-1-1.44-1h-1v2.1Zm.2,3.89c1.13,0,1.72-.42,1.72-1.26s-.58-1.16-1.72-1.16h-1.16V70.7Z"/><path class="cls-1" d="M398,63.1h2.2l1.54,4.14.55,1.61h.06l.55-1.61,1.5-4.14h2.2v9.21h-2V68.94c0-.9.17-2.25.27-3.14h-.06l-.75,2.13-1.43,3.58h-.83l-1.41-3.58-.74-2.13h-.06c.1.89.27,2.23.27,3.14v3.38H398Z"/><path class="cls-1" d="M408.75,63.1h2.09v9.21h-2.09Z"/><path class="cls-1" d="M414.8,64.85h-2.54V63.1h7.15v1.75h-2.53v7.46H414.8Z"/><line class="cls-2" x1="132.77" y1="66.43" x2="151.94" y2="66.43"/><polygon class="cls-3" points="149.96 69.33 160.79 66.43 149.96 63.52 149.96 69.33"/><line class="cls-2" x1="227.03" y1="66.8" x2="246.2" y2="66.8"/><polygon class="cls-3" points="244.21 69.71 255.06 66.8 244.21 63.9 244.21 69.71"/><line class="cls-2" x1="329.22" y1="66.8" x2="348.39" y2="66.8"/><polygon class="cls-3" points="346.41 69.71 357.25 66.8 346.41 63.9 346.41 69.71"/><path class="cls-3" d="M450.87,30.4a5.28,5.28,0,0,0,3.72,6.46h0a5.27,5.27,0,0,0,5.94-7.72c-.08-.14-.16-.26-.26-.4a5.27,5.27,0,0,0-9.39,1.66Zm9,2.41a4,4,0,0,1-7.86-.93l7.51-2A4,4,0,0,1,459.82,32.81Zm-3.87-5a4,4,0,0,1,2.66,1l-6.46,1.74A4,4,0,0,1,456,27.77Z"/><path class="cls-3" d="M469.54,26.28c.66-3,.15-5.54-1.42-7.11S464,17.09,461,17.75a15.14,15.14,0,0,0-7.21,3.87L443.06,32.3l-11.38,4.12a1.82,1.82,0,0,0-.67,3l2.43,2.43-.89.89a2.42,2.42,0,0,0,0,3.42l8.56,8.56a2.4,2.4,0,0,0,1.71.71h0a2.4,2.4,0,0,0,1.71-.71l.89-.89,2.52,2.52a1.81,1.81,0,0,0,1.29.53,1.84,1.84,0,0,0,.4,0,1.81,1.81,0,0,0,1.32-1.16L455.17,44l10.5-10.56A15.13,15.13,0,0,0,469.54,26.28Zm-8.22-7.09a10,10,0,0,1,2.12-.24,5,5,0,0,1,3.64,1.26c1.19,1.19,1.56,3.29,1,5.76a13.9,13.9,0,0,1-2.18,4.92l-9.52-9.52A13.91,13.91,0,0,1,461.32,19.19Zm-29.26,19.2a.35.35,0,0,1,.13-.58l8.4-3-6.09,6.06Zm11.44,15.3a.94.94,0,0,1-.67.28h0a.94.94,0,0,1-.67-.28l-8.56-8.56a.94.94,0,0,1,0-1.34l.89-.89,9.89,9.89Zm6.07,1.49a.34.34,0,0,1-.25.22.35.35,0,0,1-.32-.09l-2.52-2.52,6.24-6.27Zm15.06-22.73h0l-19.2,19.3-9.89-9.89,19.3-19.2c.13-.13.27-.25.4-.37L465,32C464.88,32.18,464.75,32.32,464.63,32.45Z"/><path class="cls-3" d="M433.75,59.5a4.39,4.39,0,0,0,1.07-.77,4.44,4.44,0,1,0-6.28-6.28,4.38,4.38,0,0,0-.77,1.07l0,.08-3.11,8.1a.74.74,0,0,0,1,1l8.1-3.11Zm-7.16,1.18,2.5-6.51a2.85,2.85,0,0,1,.49-.68,3,3,0,0,1,4.19,4.19,2.85,2.85,0,0,1-.68.49Z"/><path class="cls-3" d="M448.51,35.57a3.22,3.22,0,1,0,2.27.94A3.19,3.19,0,0,0,448.51,35.57ZM449.74,40a1.78,1.78,0,0,1-2.47,0,1.74,1.74,0,1,1,2.47,0Z"/><path class="cls-3" d="M441.78,25.15a.74.74,0,0,0,1,0L451,17a.74.74,0,0,0-1-1l-8.16,8.16A.74.74,0,0,0,441.78,25.15Z"/><path class="cls-3" d="M436.12,5.15h2.94V8.09a.74.74,0,1,0,1.47,0V5.15h2.94a.74.74,0,1,0,0-1.47h-2.94V.74a.74.74,0,1,0-1.47,0V3.68h-2.94a.74.74,0,0,0,0,1.47Z"/><path class="cls-3" d="M466.95,5.15h2.94V8.09a.74.74,0,1,0,1.47,0V5.15h2.94a.74.74,0,0,0,0-1.47h-2.94V.74a.74.74,0,1,0-1.47,0V3.68h-2.94a.74.74,0,1,0,0,1.47Z"/><path class="cls-3" d="M482.36,23.41h2.94v2.94a.74.74,0,1,0,1.47,0V23.41h2.94a.74.74,0,0,0,0-1.47h-2.94V19a.74.74,0,1,0-1.47,0v2.94h-2.94a.74.74,0,0,0,0,1.47Z"/><path class="cls-3" d="M453.17,33.64a3.95,3.95,0,0,0,5.58,0,.74.74,0,0,0-1-1,2.48,2.48,0,0,1-3.5,0,.74.74,0,0,0-1,1Z"/><path class="cls-3" d="M43.13,36.5h2.94v2.94a.74.74,0,0,0,1.47,0V36.5h2.94a.74.74,0,0,0,0-1.47H47.54V32.09a.74.74,0,1,0-1.47,0V35H43.13a.74.74,0,0,0,0,1.47Z"/><path class="cls-3" d="M25,51.11h2.94v2.94a.74.74,0,0,0,1.47,0V51.11h2.94a.74.74,0,0,0,0-1.47H29.38V46.7a.74.74,0,0,0-1.47,0v2.94H25a.74.74,0,1,0,0,1.47Z"/><path class="cls-3" d="M.74,38.9H3.68v2.94a.74.74,0,0,0,1.47,0V38.9H8.09a.74.74,0,0,0,0-1.47H5.15V34.48a.74.74,0,0,0-1.47,0v2.94H.74a.74.74,0,0,0,0,1.47Z"/><path class="cls-3" d="M15.36,24.28H18.3v2.94a.74.74,0,0,0,1.47,0V24.28h2.94a.74.74,0,0,0,0-1.47H19.77V19.86a.74.74,0,0,0-1.47,0v2.94H15.36a.74.74,0,0,0,0,1.47Z"/><path class="cls-3" d="M14.44,77.9h2.94v2.94a.74.74,0,1,0,1.47,0V77.9H21.8a.74.74,0,1,0,0-1.47H18.86V73.49a.74.74,0,0,0-1.47,0v2.94H14.44a.74.74,0,1,0,0,1.47Z"/></g></g></svg>