<svg xmlns="http://www.w3.org/2000/svg" viewBox="0 0 644.53 118.7"><defs><style>.cls-1,.cls-4,.cls-5,.cls-6{isolation:isolate;}.cls-2{fill:#7348b3;}.cls-3,.cls-7,.cls-8{fill:none;}.cls-3{stroke:#6c6;stroke-width:3.86px;}.cls-3,.cls-8{stroke-miterlimit:10;}.cls-4,.cls-5,.cls-6{font-size:16.41px;fill:#6c6;font-family:Montserrat-Bold, Montserrat;font-weight:700;}.cls-4{letter-spacing:-0.04em;}.cls-5{letter-spacing:-0.02em;}.cls-8{stroke:#46c66d;stroke-width:3px;}.cls-9{fill:#46c66d;}</style></defs><title>Asset 1</title><g id="Layer_2" data-name="Layer 2"><g id="Layer_1-2" data-name="Layer 1"><g class="cls-1"><path class="cls-2" d="M5.6,103.54a4.93,4.93,0,0,1,3.47,1.53l-1.46,1.64a2.77,2.77,0,0,0-2-.88c-1.64,0-2.92,1.42-2.92,3.78s1.13,3.82,2.84,3.82a2.88,2.88,0,0,0,2.23-1L9.25,114a4.79,4.79,0,0,1-3.73,1.73c-3,0-5.53-2.07-5.53-6S2.57,103.54,5.6,103.54Z"/><path class="cls-2" d="M11,103.75h2.66v4.52h4.05v-4.52h2.65v11.74H17.71v-4.9H13.66v4.9H11Z"/><path class="cls-2" d="M23.09,103.75h7.36V106h-4.7v2.36h4v2.21h-4v2.7h4.88v2.23H23.09Z"/><path class="cls-2" d="M38,103.54a4.93,4.93,0,0,1,3.47,1.53L40,106.71a2.77,2.77,0,0,0-2-.88c-1.64,0-2.92,1.42-2.92,3.78s1.13,3.82,2.84,3.82a2.88,2.88,0,0,0,2.23-1l1.46,1.6a4.79,4.79,0,0,1-3.73,1.73c-3,0-5.53-2.07-5.53-6S34.94,103.54,38,103.54Z"/><path class="cls-2" d="M43.36,103.75H46v4.81h.05l3.51-4.81h2.9l-3.55,4.68,4.21,7.06H50.24l-2.84-5L46,112.34v3.15H43.36Z"/><path class="cls-2" d="M58.14,103.75H65.5V106H60.8v2.36h4v2.21h-4v2.7h4.88v2.23H58.14Z"/><path class="cls-2" d="M68,103.75h2.66v9.51h4.63v2.23H68Z"/><path class="cls-2" d="M77.26,103.75h2.66v11.74H77.26Z"/><path class="cls-2" d="M87.88,103.54a5.07,5.07,0,0,1,3.66,1.53l-1.46,1.64a2.88,2.88,0,0,0-2.16-.88c-1.8,0-3.1,1.42-3.1,3.78s1.1,3.82,3.31,3.82a2.07,2.07,0,0,0,1.24-.36v-2H87.43v-2.16h4.3v5.4a6.22,6.22,0,0,1-3.94,1.42c-3.17,0-5.69-2.07-5.69-6S84.69,103.54,87.88,103.54Z"/><path class="cls-2" d="M94.1,103.75h2.67v11.74H94.1Z"/><path class="cls-2" d="M99.5,103.75h4c2.45,0,4.34.67,4.34,2.92a2.58,2.58,0,0,1-2,2.54v.07c1.67.31,2.56,1.19,2.56,2.75,0,2.39-2,3.46-4.57,3.46H99.5Zm3.89,4.74c1.3,0,1.87-.56,1.87-1.44s-.61-1.24-1.84-1.24h-1.26v2.68Zm.25,5c1.44,0,2.2-.54,2.2-1.6s-.74-1.48-2.2-1.48h-1.48v3.08Z"/><path class="cls-2" d="M110.37,103.75H113v11.74h-2.66Z"/><path class="cls-2" d="M115.77,103.75h2.66v9.51h4.63v2.23h-7.29Z"/><path class="cls-2" d="M125.06,103.75h2.66v11.74h-2.66Z"/><path class="cls-2" d="M132.77,106h-3.24v-2.23h9.11V106h-3.22v9.51h-2.65Z"/><path class="cls-2" d="M142.14,111.32l-3.53-7.56h2.83l1.06,2.7c.31.88.61,1.69,1,2.59h.07c.32-.9.67-1.71,1-2.59l1-2.7h2.77l-3.55,7.56v4.18h-2.65Z"/></g><g class="cls-1"><path class="cls-2" d="M211.48,115.49l-2.25-4.23h-1.44v4.23h-2.67V103.75h4.23c2.48,0,4.54.86,4.54,3.66a3.46,3.46,0,0,1-2.09,3.38l2.65,4.7Zm-3.69-6.34h1.35c1.39,0,2.14-.59,2.14-1.75s-.76-1.55-2.14-1.55h-1.35Z"/><path class="cls-2" d="M216.2,103.75h7.36V106h-4.7v2.36h4v2.21h-4v2.7h4.88v2.23H216.2Z"/><path class="cls-2" d="M231.55,112.7H228l-.72,2.79h-2.7l3.69-11.74h3.17l3.69,11.74h-2.81Zm-.54-2.07-.29-1.08c-.32-1.17-.63-2.56-1-3.78h-.07c-.27,1.24-.59,2.61-.92,3.78l-.29,1.08Z"/><path class="cls-2" d="M236.3,103.75h3.31c3.6,0,5.91,1.78,5.91,5.82s-2.3,5.92-5.74,5.92H236.3Zm3.17,9.6c2,0,3.33-1,3.33-3.78s-1.35-3.67-3.33-3.67H239v7.45Z"/><path class="cls-2" d="M257.81,115.49l-2.25-4.23h-1.44v4.23h-2.67V103.75h4.23c2.48,0,4.54.86,4.54,3.66a3.46,3.46,0,0,1-2.09,3.38l2.65,4.7Zm-3.69-6.34h1.35c1.39,0,2.14-.59,2.14-1.75s-.76-1.55-2.14-1.55h-1.35Z"/><path class="cls-2" d="M262.53,103.75h7.36V106h-4.7v2.36h4v2.21h-4v2.7h4.88v2.23h-7.54Z"/><path class="cls-2" d="M271.8,109.57c0-3.83,2.18-6,5.33-6s5.33,2.21,5.33,6-2.16,6.14-5.33,6.14S271.8,113.4,271.8,109.57Zm7.94,0c0-2.34-1-3.75-2.61-3.75s-2.61,1.4-2.61,3.75,1,3.85,2.61,3.85S279.74,111.93,279.74,109.57Z"/><path class="cls-2" d="M284.65,103.75h2.66v11.74h-2.66Z"/></g><g class="cls-1"><path class="cls-2" d="M387.38,115.49l-2.25-4.23h-1.44v4.23H381V103.75h4.23c2.49,0,4.54.86,4.54,3.66a3.46,3.46,0,0,1-2.09,3.38l2.65,4.7Zm-3.69-6.34H385c1.39,0,2.14-.59,2.14-1.75s-.76-1.55-2.14-1.55h-1.35Z"/><path class="cls-2" d="M392.1,103.75h7.36V106h-4.7v2.36h4v2.21h-4v2.7h4.88v2.23H392.1Z"/><path class="cls-2" d="M407.45,112.7h-3.6l-.72,2.79h-2.7l3.69-11.74h3.17L411,115.49h-2.81Zm-.54-2.07-.29-1.08c-.32-1.17-.63-2.56-1-3.78h-.07c-.27,1.24-.59,2.61-.92,3.78l-.29,1.08Z"/><path class="cls-2" d="M412.2,103.75h3.31c3.6,0,5.91,1.78,5.91,5.82s-2.3,5.92-5.74,5.92H412.2Zm3.17,9.6c2,0,3.33-1,3.33-3.78s-1.35-3.67-3.33-3.67h-.5v7.45Z"/></g><g class="cls-1"><path class="cls-2" d="M427.47,103.75h7.42V106h-4.75v2.72h4.05v2.23h-4.05v4.56h-2.67Z"/></g><g class="cls-1"><path class="cls-2" d="M441.73,112.7h-3.6l-.72,2.79h-2.7l3.69-11.74h3.17l3.69,11.74h-2.81Zm-.54-2.07-.29-1.08c-.32-1.17-.63-2.56-1-3.78h-.07c-.27,1.24-.59,2.61-.92,3.78l-.29,1.08Z"/></g><g class="cls-1"><path class="cls-2" d="M457,118.32a4.92,4.92,0,0,1-2.07.38,5.31,5.31,0,0,1-5.08-3.12c-2.5-.52-4.12-2.7-4.12-6,0-3.83,2.16-6,5.33-6s5.33,2.21,5.33,6c0,3.15-1.46,5.28-3.73,5.92a3,3,0,0,0,2.57,1.1,3.83,3.83,0,0,0,1.3-.22Zm-5.94-4.9c1.6,0,2.61-1.5,2.61-3.85s-1-3.75-2.61-3.75-2.61,1.4-2.61,3.75S449.44,113.42,451,113.42Z"/></g><g class="cls-1"><path class="cls-2" d="M585.25,112.2a4.68,4.68,0,0,0,2.88,1.22c1.1,0,1.64-.43,1.64-1.13s-.67-1-1.69-1.4l-1.51-.65a3.41,3.41,0,0,1-2.38-3.21c0-1.94,1.75-3.49,4.18-3.49a5.44,5.44,0,0,1,3.78,1.55l-1.33,1.67a3.85,3.85,0,0,0-2.45-.94c-.9,0-1.49.4-1.49,1.06s.77,1,1.8,1.39l1.5.61a3.24,3.24,0,0,1,2.32,3.19c0,1.94-1.62,3.64-4.41,3.64a6.51,6.51,0,0,1-4.36-1.69Z"/><path class="cls-2" d="M594.4,103.75H597v6.57c0,2.3.72,3.1,2,3.1s2.09-.79,2.09-3.1v-6.57h2.56v6.3c0,3.94-1.6,5.65-4.65,5.65s-4.68-1.71-4.68-5.65Z"/><path class="cls-2" d="M606.38,103.75h4c2.45,0,4.34.67,4.34,2.92a2.58,2.58,0,0,1-2,2.54v.07c1.67.31,2.56,1.19,2.56,2.75,0,2.39-2,3.46-4.57,3.46h-4.36Zm3.89,4.74c1.3,0,1.87-.56,1.87-1.44s-.61-1.24-1.84-1.24H609v2.68Zm.25,5c1.44,0,2.2-.54,2.2-1.6s-.74-1.48-2.2-1.48H609v3.08Z"/><path class="cls-2" d="M617.26,103.75h2.81l2,5.28.7,2.05h.07l.7-2.05,1.91-5.28h2.81v11.74h-2.48v-4.3c0-1.15.22-2.86.34-4H626l-1,2.72-1.82,4.56h-1.06l-1.8-4.56-.94-2.72h-.07c.13,1.13.34,2.84.34,4v4.3h-2.45Z"/><path class="cls-2" d="M631,103.75h2.67v11.74H631Z"/><path class="cls-2" d="M638.66,106h-3.24v-2.23h9.11V106h-3.22v9.51h-2.65Z"/></g><polyline class="cls-3" points="284.06 71.57 284.06 74.7 245.03 84.46 206.01 74.7 206.01 16.16 233.41 23.02"/><polyline class="cls-3" points="269.61 19.78 284.06 16.16 284.06 59.86"/><line class="cls-3" x1="245.03" y1="54.58" x2="245.03" y2="84.46"/><line class="cls-3" x1="269.14" y1="48.95" x2="277.04" y2="46.98"/><line class="cls-3" x1="252" y1="62.99" x2="270.85" y2="58.28"/><line class="cls-3" x1="252" y1="72.75" x2="277.04" y2="66.49"/><line class="cls-3" x1="230.65" y1="31.87" x2="212.99" y2="27.46"/><line class="cls-3" x1="232.39" y1="42.07" x2="212.99" y2="37.21"/><line class="cls-3" x1="238.02" y1="53.23" x2="212.99" y2="46.97"/><line class="cls-3" x1="238.02" y1="62.99" x2="212.99" y2="56.73"/><line class="cls-3" x1="238.02" y1="72.74" x2="212.99" y2="66.48"/><circle class="cls-3" cx="252.62" cy="33.86" r="22.06"/><path class="cls-3" d="M266.61,53l5.18-5.18h0l25.63,25.63a3.66,3.66,0,0,1,0,5.18h0a3.66,3.66,0,0,1-5.18,0h0L266.61,53Z"/><path class="cls-3" d="M255.69,46.64a13.24,13.24,0,0,1-16.1-9.56h0"/><line class="cls-3" x1="277.43" y1="53.49" x2="272.25" y2="58.67"/><rect class="cls-3" x="397.83" y="15.72" width="51.01" height="69.95"/><polyline class="cls-3" points="405.12 15.72 405.12 8.44 456.13 8.44 456.13 78.38 448.84 78.38"/><line class="cls-3" x1="405.12" y1="51.28" x2="441.55" y2="51.28"/><line class="cls-3" x1="405.12" y1="62.65" x2="441.55" y2="62.65"/><line class="cls-3" x1="405.12" y1="74.02" x2="441.55" y2="74.02"/><g class="cls-1"><text class="cls-4" transform="translate(405.8 37.75)">F</text><text class="cls-5" transform="translate(415.18 37.75)">A</text><text class="cls-6" transform="translate(427.55 37.75)">Q</text></g><path class="cls-3" d="M593.12,74.14l36-36s11.76-10.34,11.76-30.3c-20,0-30.3,11.76-30.3,11.76l-36,36Z"/><circle class="cls-3" cx="621.97" cy="26.76" r="5.28" transform="translate(163.25 447.63) rotate(-45)"/><polyline class="cls-3" points="574.58 55.6 560.49 56.5 585.61 31.39 598.77 31.39"/><polyline class="cls-3" points="593.13 74.15 592.23 88.23 617.34 63.12 617.34 49.96"/><line class="cls-3" x1="608.63" y1="40.09" x2="573.13" y2="75.59"/><path class="cls-3" d="M577.28,58.3s-10.74.82-13.53,10.45A13.74,13.74,0,0,0,574,66.61s-15.19,7.7-16.82,23.7c0,0,15.31,0,23-12.72,0,0-5.62,6.61-4.77,12.4,0,0,14.94-4.46,14.94-18.61"/><line class="cls-3" x1="567.53" y1="97" x2="553.46" y2="111.06"/><line class="cls-3" x1="549.41" y1="95.31" x2="534.7" y2="110.02"/><line class="cls-3" x1="536.8" y1="90.26" x2="552.93" y2="74.14"/><line class="cls-7" x1="130.07" y1="50.11" x2="180.76" y2="50.11"/><line class="cls-8" x1="130.07" y1="50.11" x2="177.51" y2="50.11"/><polygon class="cls-9" points="167.57 62.38 165.52 60.18 176.36 50.11 165.52 40.04 167.57 37.84 180.76 50.11 167.57 62.38"/><line class="cls-7" x1="318.01" y1="51.28" x2="368.7" y2="51.28"/><line class="cls-8" x1="318.01" y1="51.28" x2="365.45" y2="51.28"/><polygon class="cls-9" points="355.51 63.55 353.46 61.35 364.3 51.28 353.46 41.21 355.51 39.01 368.7 51.28 355.51 63.55"/><line class="cls-7" x1="475.95" y1="52.45" x2="526.64" y2="52.45"/><line class="cls-8" x1="475.95" y1="52.45" x2="523.39" y2="52.45"/><polygon class="cls-9" points="513.45 64.72 511.4 62.52 522.24 52.46 511.4 42.38 513.45 40.19 526.64 52.46 513.45 64.72"/><circle class="cls-3" cx="73.15" cy="33.22" r="14.35"/><path class="cls-3" d="M95.38,50.73a26.37,26.37,0,0,0-11.47-10"/><path class="cls-3" d="M62.39,40.76a26.27,26.27,0,0,0-15.51,24v7.89h29"/><path class="cls-3" d="M75.83,72.6a19.13,19.13,0,0,1-.1-2,18.9,18.9,0,1,1,.1,2"/><polyline class="cls-3" points="84.89 72.2 91.34 78.14 103.94 65.55"/><line class="cls-3" x1="40" y1="10.53" x2="47.98" y2="18.5"/><line class="cls-3" x1="47.98" y1="10.53" x2="40" y2="18.5"/><line class="cls-3" x1="97.56" y1="19.5" x2="105.54" y2="27.47"/><line class="cls-3" x1="105.54" y1="19.5" x2="97.56" y2="27.47"/><line class="cls-3" x1="84.89" y1="2.55" x2="92.87" y2="10.53"/><line class="cls-3" x1="92.87" y1="2.55" x2="84.89" y2="10.53"/><line class="cls-3" x1="28.41" y1="56.69" x2="36.38" y2="64.66"/><line class="cls-3" x1="36.38" y1="56.69" x2="28.41" y2="64.66"/><polyline class="cls-3" points="69.94 1.36 61.97 9.34 58.8 6.17"/><polyline class="cls-3" points="113.55 34.84 105.58 42.81 102.42 39.65"/><polyline class="cls-3" points="46.89 32.78 38.91 40.76 35.75 37.6"/></g></g></svg>