<svg id="Layer_1" data-name="Layer 1" xmlns="http://www.w3.org/2000/svg" viewBox="0 0 109.47 106.51"><defs><style>.cls-1{fill:none;stroke:#6c6;stroke-miterlimit:10;stroke-width:3.86px;}</style></defs><title>Step 4</title><path class="cls-1" d="M1769.58,1477.88l36-36s11.76-10.34,11.76-30.3c-20,0-30.3,11.76-30.3,11.76l-36,36Z" transform="translate(-1709.8 -1409.66)"/><circle class="cls-1" cx="1798.43" cy="1430.49" r="5.28" transform="translate(-2194.56 281.01) rotate(-45)"/><polyline class="cls-1" points="41.24 49.69 27.16 50.59 52.27 25.47 65.44 25.47"/><polyline class="cls-1" points="59.79 68.24 58.9 82.32 84.01 57.21 84.01 44.05"/><line class="cls-1" x1="75.29" y1="34.18" x2="39.8" y2="69.67"/><path class="cls-1" d="M1753.74,1462s-10.74.82-13.53,10.45a13.74,13.74,0,0,0,10.26-2.14s-15.19,7.68-16.78,23.69c0,0,15.31,0,23-12.72,0,0-5.62,6.61-4.77,12.4,0,0,14.94-4.46,14.94-18.61" transform="translate(-1709.8 -1409.66)"/><line class="cls-1" x1="34.19" y1="91.09" x2="20.13" y2="105.15"/><line class="cls-1" x1="16.07" y1="89.4" x2="1.36" y2="104.1"/><line class="cls-1" x1="3.47" y1="84.35" x2="19.6" y2="68.23"/></svg>