<svg id="Layer_1" data-name="Layer 1" xmlns="http://www.w3.org/2000/svg" viewBox="0 0 76.28 57.77">
  <defs>
    <style>
      .cls-1 {
        fill: #fff;
      }

      .cls-2 {
        fill: #ffb100;
      }
    </style>
  </defs>
  <title>youth_engagement</title>
  <rect class="cls-1" width="76.28" height="57.77"/>
  <g>
    <path class="cls-2" d="M2174.52,4796.65h-1.69a0.44,0.44,0,0,0,0,.87h1.69A0.44,0.44,0,0,0,2174.52,4796.65Z" transform="translate(-2140.05 -4755.56)"/>
    <path class="cls-2" d="M2170.59,4796.65h-1.69a0.44,0.44,0,0,0,0,.87h1.69A0.44,0.44,0,0,0,2170.59,4796.65Z" transform="translate(-2140.05 -4755.56)"/>
    <path class="cls-2" d="M2166.66,4796.65H2165a0.44,0.44,0,0,0,0,.87h1.69A0.44,0.44,0,0,0,2166.66,4796.65Z" transform="translate(-2140.05 -4755.56)"/>
    <path class="cls-2" d="M2174.52,4799.33h-1.69a0.44,0.44,0,0,0,0,.87h1.69A0.44,0.44,0,0,0,2174.52,4799.33Z" transform="translate(-2140.05 -4755.56)"/>
    <path class="cls-2" d="M2170.59,4799.33h-1.69a0.44,0.44,0,0,0,0,.87h1.69A0.44,0.44,0,1,0,2170.59,4799.33Z" transform="translate(-2140.05 -4755.56)"/>
    <path class="cls-2" d="M2166.66,4799.33H2165a0.44,0.44,0,0,0,0,.87h1.69A0.44,0.44,0,0,0,2166.66,4799.33Z" transform="translate(-2140.05 -4755.56)"/>
    <path class="cls-2" d="M2174.52,4801.93h-1.69a0.44,0.44,0,0,0,0,.87h1.69A0.44,0.44,0,0,0,2174.52,4801.93Z" transform="translate(-2140.05 -4755.56)"/>
    <path class="cls-2" d="M2170.59,4801.93h-1.69a0.44,0.44,0,0,0,0,.87h1.69A0.44,0.44,0,0,0,2170.59,4801.93Z" transform="translate(-2140.05 -4755.56)"/>
    <path class="cls-2" d="M2166.66,4801.93H2165a0.44,0.44,0,0,0,0,.87h1.69A0.44,0.44,0,0,0,2166.66,4801.93Z" transform="translate(-2140.05 -4755.56)"/>
    <path class="cls-2" d="M2177.38,4784.28l-0.06,0v20.47a1.4,1.4,0,0,1-1.4,1.4h-12.34a1.4,1.4,0,0,1-1.4-1.4v-24.18a1.4,1.4,0,0,1,1.4-1.4h5.18v-0.87h-2.89v-2.14a0.44,0.44,0,1,0-.87,0v2.14h-1.42a2.27,2.27,0,0,0-2.27,2.27v24.18a2.27,2.27,0,0,0,2.27,2.27h12.34a2.27,2.27,0,0,0,2.27-2.27v-20.51h-0.81Z" transform="translate(-2140.05 -4755.56)"/>
    <path class="cls-2" d="M2175.28,4793a0.48,0.48,0,0,1-.48.48h-10.12a0.48,0.48,0,0,1-.48-0.48v-9.74a0.48,0.48,0,0,1,.48-0.48h5.4a4.71,4.71,0,0,1-.64-0.87h-4.76a1.36,1.36,0,0,0-1.35,1.35V4793a1.36,1.36,0,0,0,1.35,1.35h10.12a1.36,1.36,0,0,0,1.35-1.35v-7.8l-0.87.63V4793Z" transform="translate(-2140.05 -4755.56)"/>
    <path class="cls-2" d="M2174,4786a0.44,0.44,0,0,1-.44-0.44v-1.86a4.28,4.28,0,0,1-4.13-4.27v-6.53a4.28,4.28,0,0,1,4.27-4.27h14.57a4.28,4.28,0,0,1,4.27,4.27v6.53a4.28,4.28,0,0,1-4.27,4.27h-10.94l-3.08,2.22A0.44,0.44,0,0,1,2174,4786Zm-0.29-16.5a3.4,3.4,0,0,0-3.4,3.4v6.53a3.4,3.4,0,0,0,3.4,3.4H2174a0.44,0.44,0,0,1,.44.44v1.45l2.51-1.8a0.43,0.43,0,0,1,.25-0.08h11.08a3.4,3.4,0,0,0,3.4-3.4v-6.53a3.4,3.4,0,0,0-3.4-3.4h-14.57Z" transform="translate(-2140.05 -4755.56)"/>
    <path class="cls-2" d="M2187.87,4773.33h-13.48a0.44,0.44,0,1,1,0-.87h13.48A0.44,0.44,0,0,1,2187.87,4773.33Z" transform="translate(-2140.05 -4755.56)"/>
    <path class="cls-2" d="M2187.87,4775.54h-13.48a0.44,0.44,0,1,1,0-.87h13.48A0.44,0.44,0,0,1,2187.87,4775.54Z" transform="translate(-2140.05 -4755.56)"/>
    <path class="cls-2" d="M2187.87,4777.75h-13.48a0.44,0.44,0,1,1,0-.87h13.48A0.44,0.44,0,0,1,2187.87,4777.75Z" transform="translate(-2140.05 -4755.56)"/>
    <path class="cls-2" d="M2156.86,4780.32l-0.18-.27,0-.08a4.55,4.55,0,0,0-2.56-1.79,4.59,4.59,0,1,0,3.24,5.63A4.56,4.56,0,0,0,2156.86,4780.32Zm-4-1.43a3.73,3.73,0,0,1,1,.13,3.69,3.69,0,0,1,1.67,1l-6.24,1.68v0A3.72,3.72,0,0,1,2152.88,4778.89Zm3.59,4.69a3.72,3.72,0,0,1-7.31-1l6.93-1.87h0A3.69,3.69,0,0,1,2156.48,4783.58Z" transform="translate(-2140.05 -4755.56)"/>
    <path class="cls-2" d="M2157.38,4792.39a4.51,4.51,0,0,0-9,0,0.43,0.43,0,0,0,0,.11v13.27a0.44,0.44,0,0,0,0,.09,0.86,0.86,0,0,0,.85.77H2151v2.84a0.44,0.44,0,0,0,.87,0v-2.84h2.27v2.84a0.44,0.44,0,0,0,.87,0v-2.84h1.76a0.43,0.43,0,0,0,.39-0.25,0.85,0.85,0,0,0,.25-0.52,0.44,0.44,0,0,0,0-.09V4792.5A0.43,0.43,0,0,0,2157.38,4792.39Zm-4.5-3.34a3.65,3.65,0,0,1,3.64,3.64v13.07h-7.28v-13.07A3.65,3.65,0,0,1,2152.89,4789.05Z" transform="translate(-2140.05 -4755.56)"/>
    <path class="cls-2" d="M2209.51,4786.18l-1-1a4.58,4.58,0,0,0,.16-4.83l-0.18-.27-0.05-.08a4.55,4.55,0,0,0-2.56-1.79,4.59,4.59,0,0,0-5,7l-1,1a0.44,0.44,0,0,0,.62.62l0.92-.92a4.56,4.56,0,0,0,2,1.18,4.57,4.57,0,0,0,4.46-1.22l1,1A0.44,0.44,0,0,0,2209.51,4786.18Zm-4.85-7.28a3.73,3.73,0,0,1,1,.13,3.69,3.69,0,0,1,1.67,1l-6.24,1.68v0A3.72,3.72,0,0,1,2204.66,4778.89Zm0,7.44a3.72,3.72,0,0,1-3.72-3.72l6.93-1.87h0A3.72,3.72,0,0,1,2204.66,4786.33Z" transform="translate(-2140.05 -4755.56)"/>
    <path class="cls-2" d="M2167.48,4771.37a0.44,0.44,0,0,1-.44-0.44,5,5,0,0,1,5-5,0.44,0.44,0,0,1,0,.87,4.1,4.1,0,0,0-4.1,4.1A0.44,0.44,0,0,1,2167.48,4771.37Z" transform="translate(-2140.05 -4755.56)"/>
    <path class="cls-2" d="M2165,4771a0.44,0.44,0,0,1-.44-0.44,7,7,0,0,1,7-7,0.44,0.44,0,0,1,0,.87,6.17,6.17,0,0,0-6.16,6.16A0.44,0.44,0,0,1,2165,4771Z" transform="translate(-2140.05 -4755.56)"/>
    <path class="cls-2" d="M2209.62,4806.07l-0.44-1.49V4792.5a0.43,0.43,0,0,0,0-.11,4.51,4.51,0,0,0-6.93-3.5,4.62,4.62,0,0,1,.59.67,3.64,3.64,0,0,1,5.48,3.14v12.08l0.3,1h-7.86l0.25-1h0v0a0.45,0.45,0,0,0,0,0h0v-1.29a4.56,4.56,0,0,1-.87.3v0.93l-0.37,1.5a0.44,0.44,0,0,0,.42.54h2.46v2.84a0.44,0.44,0,0,0,.87,0v-2.84h2.27v2.84a0.44,0.44,0,0,0,.87,0v-2.84h2.54A0.44,0.44,0,0,0,2209.62,4806.07Z" transform="translate(-2140.05 -4755.56)"/>
    <path class="cls-2" d="M2198.63,4803.18h-14.57a4.28,4.28,0,0,1-4.27-4.27v-6.53a4.28,4.28,0,0,1,4.27-4.27h8.86l3.08-2.22a0.44,0.44,0,0,1,.69.35v1.86h1.93a4.28,4.28,0,0,1,4.27,4.27v6.53A4.28,4.28,0,0,1,2198.63,4803.18Zm-14.57-14.2a3.4,3.4,0,0,0-3.4,3.4v6.53a3.4,3.4,0,0,0,3.4,3.4h14.57a3.4,3.4,0,0,0,3.4-3.4v-6.53a3.4,3.4,0,0,0-3.4-3.4h-2.37a0.44,0.44,0,0,1-.44-0.44v-1.45l-2.51,1.8a0.43,0.43,0,0,1-.25.08h-9Z" transform="translate(-2140.05 -4755.56)"/>
    <path class="cls-2" d="M2197.94,4792.79h-13.48a0.44,0.44,0,0,1,0-.87h13.48A0.44,0.44,0,1,1,2197.94,4792.79Z" transform="translate(-2140.05 -4755.56)"/>
    <path class="cls-2" d="M2197.94,4795h-13.48a0.44,0.44,0,0,1,0-.87h13.48A0.44,0.44,0,1,1,2197.94,4795Z" transform="translate(-2140.05 -4755.56)"/>
    <path class="cls-2" d="M2197.94,4797.21h-13.48a0.44,0.44,0,0,1,0-.87h13.48A0.44,0.44,0,1,1,2197.94,4797.21Z" transform="translate(-2140.05 -4755.56)"/>
    <path class="cls-2" d="M2193.39,4799.4h-8.94a0.44,0.44,0,0,1,0-.87h8.94A0.44,0.44,0,1,1,2193.39,4799.4Z" transform="translate(-2140.05 -4755.56)"/>
    <g>
      <path class="cls-2" d="M2205.62,4766.08a3.68,3.68,0,0,0-3.43,6.27l0.73,1.78a0.34,0.34,0,0,0,.31.21h2.8a0.34,0.34,0,0,0,.31-0.2l0.83-1.81A3.68,3.68,0,0,0,2205.62,4766.08Zm1.94,4.33a3,3,0,0,1-.9,1.45,0.34,0.34,0,0,0-.08.11l-0.76,1.68h-0.73v-1.86a0.44,0.44,0,1,0-.87,0v1.86h-0.75l-0.68-1.64a0.34,0.34,0,0,0-.09-0.13A3,3,0,1,1,2207.56,4770.41Z" transform="translate(-2140.05 -4755.56)"/>
      <path class="cls-2" d="M2204.65,4764.52a0.34,0.34,0,0,0,.34-0.34v-1.51a0.34,0.34,0,1,0-.68,0v1.51A0.34,0.34,0,0,0,2204.65,4764.52Z" transform="translate(-2140.05 -4755.56)"/>
      <path class="cls-2" d="M2205.63,4774.95h-1.93a0.44,0.44,0,1,0,0,.87h1.93A0.44,0.44,0,0,0,2205.63,4774.95Z" transform="translate(-2140.05 -4755.56)"/>
      <path class="cls-2" d="M2205.63,4776.17h-1.93a0.44,0.44,0,1,0,0,.87h1.93A0.44,0.44,0,0,0,2205.63,4776.17Z" transform="translate(-2140.05 -4755.56)"/>
      <path class="cls-2" d="M2201.7,4765.27a0.34,0.34,0,0,0,.29-0.51l-0.75-1.3a0.34,0.34,0,1,0-.59.34l0.75,1.3A0.34,0.34,0,0,0,2201.7,4765.27Z" transform="translate(-2140.05 -4755.56)"/>
      <path class="cls-2" d="M2199.68,4766.76l-1.3-.75a0.34,0.34,0,0,0-.34.59l1.3,0.75A0.34,0.34,0,1,0,2199.68,4766.76Z" transform="translate(-2140.05 -4755.56)"/>
      <path class="cls-2" d="M2208.55,4763.33a0.34,0.34,0,0,0-.46.12l-0.75,1.3a0.34,0.34,0,1,0,.59.34l0.75-1.3A0.34,0.34,0,0,0,2208.55,4763.33Z" transform="translate(-2140.05 -4755.56)"/>
      <path class="cls-2" d="M2211.41,4766.14a0.34,0.34,0,0,0-.46-0.12l-1.3.75a0.34,0.34,0,0,0,.34.59l1.3-.75A0.34,0.34,0,0,0,2211.41,4766.14Z" transform="translate(-2140.05 -4755.56)"/>
    </g>
  </g>
</svg>
